<?xml version="1.0" encoding="utf-8" standalone="no"?>
<!DOCTYPE svg PUBLIC "-//W3C//DTD SVG 1.1//EN"
  "http://www.w3.org/Graphics/SVG/1.1/DTD/svg11.dtd">
<!-- Created with matplotlib (http://matplotlib.org/) -->
<svg height="345.6pt" version="1.1" viewBox="0 0 460.8 345.6" width="460.8pt" xmlns="http://www.w3.org/2000/svg" xmlns:xlink="http://www.w3.org/1999/xlink">
 <defs>
  <style type="text/css">
*{stroke-linecap:butt;stroke-linejoin:round;}
  </style>
 </defs>
 <g id="figure_1">
  <g id="patch_1">
   <path d="M 0 345.6 
L 460.8 345.6 
L 460.8 0 
L 0 0 
z
" style="fill:#ffffff;"/>
  </g>
  <g id="axes_1">
   <g id="patch_2">
    <path d="M 57.6 307.584 
L 414.72 307.584 
L 414.72 41.472 
L 57.6 41.472 
z
" style="fill:#ffffff;"/>
   </g>
   <g id="matplotlib.axis_1">
    <g id="xtick_1">
     <g id="line2d_1">
      <path clip-path="url(#p94fc75a1c9)" d="M 57.6 307.584 
L 57.6 41.472 
" style="fill:none;stroke:#b0b0b0;stroke-linecap:square;stroke-width:0.8;"/>
     </g>
     <g id="line2d_2">
      <defs>
       <path d="M 0 0 
L 0 3.5 
" id="mc28083e494" style="stroke:#000000;stroke-width:0.8;"/>
      </defs>
      <g>
       <use style="stroke:#000000;stroke-width:0.8;" x="57.6" xlink:href="#mc28083e494" y="307.584"/>
      </g>
     </g>
     <g id="text_1">
      <!-- 0 -->
      <defs>
       <path d="M 31.78125 66.40625 
Q 24.171875 66.40625 20.328125 58.90625 
Q 16.5 51.421875 16.5 36.375 
Q 16.5 21.390625 20.328125 13.890625 
Q 24.171875 6.390625 31.78125 6.390625 
Q 39.453125 6.390625 43.28125 13.890625 
Q 47.125 21.390625 47.125 36.375 
Q 47.125 51.421875 43.28125 58.90625 
Q 39.453125 66.40625 31.78125 66.40625 
z
M 31.78125 74.21875 
Q 44.046875 74.21875 50.515625 64.515625 
Q 56.984375 54.828125 56.984375 36.375 
Q 56.984375 17.96875 50.515625 8.265625 
Q 44.046875 -1.421875 31.78125 -1.421875 
Q 19.53125 -1.421875 13.0625 8.265625 
Q 6.59375 17.96875 6.59375 36.375 
Q 6.59375 54.828125 13.0625 64.515625 
Q 19.53125 74.21875 31.78125 74.21875 
z
" id="DejaVuSans-30"/>
      </defs>
      <g transform="translate(54.41875 322.182437)scale(0.1 -0.1)">
       <use xlink:href="#DejaVuSans-30"/>
      </g>
     </g>
    </g>
    <g id="xtick_2">
     <g id="line2d_3">
      <path clip-path="url(#p94fc75a1c9)" d="M 129.024 307.584 
L 129.024 41.472 
" style="fill:none;stroke:#b0b0b0;stroke-linecap:square;stroke-width:0.8;"/>
     </g>
     <g id="line2d_4">
      <g>
       <use style="stroke:#000000;stroke-width:0.8;" x="129.024" xlink:href="#mc28083e494" y="307.584"/>
      </g>
     </g>
     <g id="text_2">
      <!-- 2 -->
      <defs>
       <path d="M 19.1875 8.296875 
L 53.609375 8.296875 
L 53.609375 0 
L 7.328125 0 
L 7.328125 8.296875 
Q 12.9375 14.109375 22.625 23.890625 
Q 32.328125 33.6875 34.8125 36.53125 
Q 39.546875 41.84375 41.421875 45.53125 
Q 43.3125 49.21875 43.3125 52.78125 
Q 43.3125 58.59375 39.234375 62.25 
Q 35.15625 65.921875 28.609375 65.921875 
Q 23.96875 65.921875 18.8125 64.3125 
Q 13.671875 62.703125 7.8125 59.421875 
L 7.8125 69.390625 
Q 13.765625 71.78125 18.9375 73 
Q 24.125 74.21875 28.421875 74.21875 
Q 39.75 74.21875 46.484375 68.546875 
Q 53.21875 62.890625 53.21875 53.421875 
Q 53.21875 48.921875 51.53125 44.890625 
Q 49.859375 40.875 45.40625 35.40625 
Q 44.1875 33.984375 37.640625 27.21875 
Q 31.109375 20.453125 19.1875 8.296875 
z
" id="DejaVuSans-32"/>
      </defs>
      <g transform="translate(125.84275 322.182437)scale(0.1 -0.1)">
       <use xlink:href="#DejaVuSans-32"/>
      </g>
     </g>
    </g>
    <g id="xtick_3">
     <g id="line2d_5">
      <path clip-path="url(#p94fc75a1c9)" d="M 200.448 307.584 
L 200.448 41.472 
" style="fill:none;stroke:#b0b0b0;stroke-linecap:square;stroke-width:0.8;"/>
     </g>
     <g id="line2d_6">
      <g>
       <use style="stroke:#000000;stroke-width:0.8;" x="200.448" xlink:href="#mc28083e494" y="307.584"/>
      </g>
     </g>
     <g id="text_3">
      <!-- 4 -->
      <defs>
       <path d="M 37.796875 64.3125 
L 12.890625 25.390625 
L 37.796875 25.390625 
z
M 35.203125 72.90625 
L 47.609375 72.90625 
L 47.609375 25.390625 
L 58.015625 25.390625 
L 58.015625 17.1875 
L 47.609375 17.1875 
L 47.609375 0 
L 37.796875 0 
L 37.796875 17.1875 
L 4.890625 17.1875 
L 4.890625 26.703125 
z
" id="DejaVuSans-34"/>
      </defs>
      <g transform="translate(197.26675 322.182437)scale(0.1 -0.1)">
       <use xlink:href="#DejaVuSans-34"/>
      </g>
     </g>
    </g>
    <g id="xtick_4">
     <g id="line2d_7">
      <path clip-path="url(#p94fc75a1c9)" d="M 271.872 307.584 
L 271.872 41.472 
" style="fill:none;stroke:#b0b0b0;stroke-linecap:square;stroke-width:0.8;"/>
     </g>
     <g id="line2d_8">
      <g>
       <use style="stroke:#000000;stroke-width:0.8;" x="271.872" xlink:href="#mc28083e494" y="307.584"/>
      </g>
     </g>
     <g id="text_4">
      <!-- 6 -->
      <defs>
       <path d="M 33.015625 40.375 
Q 26.375 40.375 22.484375 35.828125 
Q 18.609375 31.296875 18.609375 23.390625 
Q 18.609375 15.53125 22.484375 10.953125 
Q 26.375 6.390625 33.015625 6.390625 
Q 39.65625 6.390625 43.53125 10.953125 
Q 47.40625 15.53125 47.40625 23.390625 
Q 47.40625 31.296875 43.53125 35.828125 
Q 39.65625 40.375 33.015625 40.375 
z
M 52.59375 71.296875 
L 52.59375 62.3125 
Q 48.875 64.0625 45.09375 64.984375 
Q 41.3125 65.921875 37.59375 65.921875 
Q 27.828125 65.921875 22.671875 59.328125 
Q 17.53125 52.734375 16.796875 39.40625 
Q 19.671875 43.65625 24.015625 45.921875 
Q 28.375 48.1875 33.59375 48.1875 
Q 44.578125 48.1875 50.953125 41.515625 
Q 57.328125 34.859375 57.328125 23.390625 
Q 57.328125 12.15625 50.6875 5.359375 
Q 44.046875 -1.421875 33.015625 -1.421875 
Q 20.359375 -1.421875 13.671875 8.265625 
Q 6.984375 17.96875 6.984375 36.375 
Q 6.984375 53.65625 15.1875 63.9375 
Q 23.390625 74.21875 37.203125 74.21875 
Q 40.921875 74.21875 44.703125 73.484375 
Q 48.484375 72.75 52.59375 71.296875 
z
" id="DejaVuSans-36"/>
      </defs>
      <g transform="translate(268.69075 322.182437)scale(0.1 -0.1)">
       <use xlink:href="#DejaVuSans-36"/>
      </g>
     </g>
    </g>
    <g id="xtick_5">
     <g id="line2d_9">
      <path clip-path="url(#p94fc75a1c9)" d="M 343.296 307.584 
L 343.296 41.472 
" style="fill:none;stroke:#b0b0b0;stroke-linecap:square;stroke-width:0.8;"/>
     </g>
     <g id="line2d_10">
      <g>
       <use style="stroke:#000000;stroke-width:0.8;" x="343.296" xlink:href="#mc28083e494" y="307.584"/>
      </g>
     </g>
     <g id="text_5">
      <!-- 8 -->
      <defs>
       <path d="M 31.78125 34.625 
Q 24.75 34.625 20.71875 30.859375 
Q 16.703125 27.09375 16.703125 20.515625 
Q 16.703125 13.921875 20.71875 10.15625 
Q 24.75 6.390625 31.78125 6.390625 
Q 38.8125 6.390625 42.859375 10.171875 
Q 46.921875 13.96875 46.921875 20.515625 
Q 46.921875 27.09375 42.890625 30.859375 
Q 38.875 34.625 31.78125 34.625 
z
M 21.921875 38.8125 
Q 15.578125 40.375 12.03125 44.71875 
Q 8.5 49.078125 8.5 55.328125 
Q 8.5 64.0625 14.71875 69.140625 
Q 20.953125 74.21875 31.78125 74.21875 
Q 42.671875 74.21875 48.875 69.140625 
Q 55.078125 64.0625 55.078125 55.328125 
Q 55.078125 49.078125 51.53125 44.71875 
Q 48 40.375 41.703125 38.8125 
Q 48.828125 37.15625 52.796875 32.3125 
Q 56.78125 27.484375 56.78125 20.515625 
Q 56.78125 9.90625 50.3125 4.234375 
Q 43.84375 -1.421875 31.78125 -1.421875 
Q 19.734375 -1.421875 13.25 4.234375 
Q 6.78125 9.90625 6.78125 20.515625 
Q 6.78125 27.484375 10.78125 32.3125 
Q 14.796875 37.15625 21.921875 38.8125 
z
M 18.3125 54.390625 
Q 18.3125 48.734375 21.84375 45.5625 
Q 25.390625 42.390625 31.78125 42.390625 
Q 38.140625 42.390625 41.71875 45.5625 
Q 45.3125 48.734375 45.3125 54.390625 
Q 45.3125 60.0625 41.71875 63.234375 
Q 38.140625 66.40625 31.78125 66.40625 
Q 25.390625 66.40625 21.84375 63.234375 
Q 18.3125 60.0625 18.3125 54.390625 
z
" id="DejaVuSans-38"/>
      </defs>
      <g transform="translate(340.11475 322.182437)scale(0.1 -0.1)">
       <use xlink:href="#DejaVuSans-38"/>
      </g>
     </g>
    </g>
    <g id="xtick_6">
     <g id="line2d_11">
      <path clip-path="url(#p94fc75a1c9)" d="M 414.72 307.584 
L 414.72 41.472 
" style="fill:none;stroke:#b0b0b0;stroke-linecap:square;stroke-width:0.8;"/>
     </g>
     <g id="line2d_12">
      <g>
       <use style="stroke:#000000;stroke-width:0.8;" x="414.72" xlink:href="#mc28083e494" y="307.584"/>
      </g>
     </g>
     <g id="text_6">
      <!-- 10 -->
      <defs>
       <path d="M 12.40625 8.296875 
L 28.515625 8.296875 
L 28.515625 63.921875 
L 10.984375 60.40625 
L 10.984375 69.390625 
L 28.421875 72.90625 
L 38.28125 72.90625 
L 38.28125 8.296875 
L 54.390625 8.296875 
L 54.390625 0 
L 12.40625 0 
z
" id="DejaVuSans-31"/>
      </defs>
      <g transform="translate(408.3575 322.182437)scale(0.1 -0.1)">
       <use xlink:href="#DejaVuSans-31"/>
       <use x="63.623047" xlink:href="#DejaVuSans-30"/>
      </g>
     </g>
    </g>
    <g id="text_7">
     <!-- x -->
     <defs>
      <path d="M 54.890625 54.6875 
L 35.109375 28.078125 
L 55.90625 0 
L 45.3125 0 
L 29.390625 21.484375 
L 13.484375 0 
L 2.875 0 
L 24.125 28.609375 
L 4.6875 54.6875 
L 15.28125 54.6875 
L 29.78125 35.203125 
L 44.28125 54.6875 
z
" id="DejaVuSans-78"/>
     </defs>
     <g transform="translate(233.200625 335.860562)scale(0.1 -0.1)">
      <use xlink:href="#DejaVuSans-78"/>
     </g>
    </g>
   </g>
   <g id="matplotlib.axis_2">
    <g id="ytick_1">
     <g id="line2d_13">
      <path clip-path="url(#p94fc75a1c9)" d="M 57.6 307.584 
L 414.72 307.584 
" style="fill:none;stroke:#b0b0b0;stroke-linecap:square;stroke-width:0.8;"/>
     </g>
     <g id="line2d_14">
      <defs>
       <path d="M 0 0 
L -3.5 0 
" id="md1ac7c0e5d" style="stroke:#000000;stroke-width:0.8;"/>
      </defs>
      <g>
       <use style="stroke:#000000;stroke-width:0.8;" x="57.6" xlink:href="#md1ac7c0e5d" y="307.584"/>
      </g>
     </g>
     <g id="text_8">
      <!-- 0 -->
      <g transform="translate(44.2375 311.383219)scale(0.1 -0.1)">
       <use xlink:href="#DejaVuSans-30"/>
      </g>
     </g>
    </g>
    <g id="ytick_2">
     <g id="line2d_15">
      <path clip-path="url(#p94fc75a1c9)" d="M 57.6 254.3616 
L 414.72 254.3616 
" style="fill:none;stroke:#b0b0b0;stroke-linecap:square;stroke-width:0.8;"/>
     </g>
     <g id="line2d_16">
      <g>
       <use style="stroke:#000000;stroke-width:0.8;" x="57.6" xlink:href="#md1ac7c0e5d" y="254.3616"/>
      </g>
     </g>
     <g id="text_9">
      <!-- 2 -->
      <g transform="translate(44.2375 258.160819)scale(0.1 -0.1)">
       <use xlink:href="#DejaVuSans-32"/>
      </g>
     </g>
    </g>
    <g id="ytick_3">
     <g id="line2d_17">
      <path clip-path="url(#p94fc75a1c9)" d="M 57.6 201.1392 
L 414.72 201.1392 
" style="fill:none;stroke:#b0b0b0;stroke-linecap:square;stroke-width:0.8;"/>
     </g>
     <g id="line2d_18">
      <g>
       <use style="stroke:#000000;stroke-width:0.8;" x="57.6" xlink:href="#md1ac7c0e5d" y="201.1392"/>
      </g>
     </g>
     <g id="text_10">
      <!-- 4 -->
      <g transform="translate(44.2375 204.938419)scale(0.1 -0.1)">
       <use xlink:href="#DejaVuSans-34"/>
      </g>
     </g>
    </g>
    <g id="ytick_4">
     <g id="line2d_19">
      <path clip-path="url(#p94fc75a1c9)" d="M 57.6 147.9168 
L 414.72 147.9168 
" style="fill:none;stroke:#b0b0b0;stroke-linecap:square;stroke-width:0.8;"/>
     </g>
     <g id="line2d_20">
      <g>
       <use style="stroke:#000000;stroke-width:0.8;" x="57.6" xlink:href="#md1ac7c0e5d" y="147.9168"/>
      </g>
     </g>
     <g id="text_11">
      <!-- 6 -->
      <g transform="translate(44.2375 151.716019)scale(0.1 -0.1)">
       <use xlink:href="#DejaVuSans-36"/>
      </g>
     </g>
    </g>
    <g id="ytick_5">
     <g id="line2d_21">
      <path clip-path="url(#p94fc75a1c9)" d="M 57.6 94.6944 
L 414.72 94.6944 
" style="fill:none;stroke:#b0b0b0;stroke-linecap:square;stroke-width:0.8;"/>
     </g>
     <g id="line2d_22">
      <g>
       <use style="stroke:#000000;stroke-width:0.8;" x="57.6" xlink:href="#md1ac7c0e5d" y="94.6944"/>
      </g>
     </g>
     <g id="text_12">
      <!-- 8 -->
      <g transform="translate(44.2375 98.493619)scale(0.1 -0.1)">
       <use xlink:href="#DejaVuSans-38"/>
      </g>
     </g>
    </g>
    <g id="ytick_6">
     <g id="line2d_23">
      <path clip-path="url(#p94fc75a1c9)" d="M 57.6 41.472 
L 414.72 41.472 
" style="fill:none;stroke:#b0b0b0;stroke-linecap:square;stroke-width:0.8;"/>
     </g>
     <g id="line2d_24">
      <g>
       <use style="stroke:#000000;stroke-width:0.8;" x="57.6" xlink:href="#md1ac7c0e5d" y="41.472"/>
      </g>
     </g>
     <g id="text_13">
      <!-- 10 -->
      <g transform="translate(37.875 45.271219)scale(0.1 -0.1)">
       <use xlink:href="#DejaVuSans-31"/>
       <use x="63.623047" xlink:href="#DejaVuSans-30"/>
      </g>
     </g>
    </g>
    <g id="text_14">
     <!-- y -->
     <defs>
      <path d="M 32.171875 -5.078125 
Q 28.375 -14.84375 24.75 -17.8125 
Q 21.140625 -20.796875 15.09375 -20.796875 
L 7.90625 -20.796875 
L 7.90625 -13.28125 
L 13.1875 -13.28125 
Q 16.890625 -13.28125 18.9375 -11.515625 
Q 21 -9.765625 23.484375 -3.21875 
L 25.09375 0.875 
L 2.984375 54.6875 
L 12.5 54.6875 
L 29.59375 11.921875 
L 46.6875 54.6875 
L 56.203125 54.6875 
z
" id="DejaVuSans-79"/>
     </defs>
     <g transform="translate(31.795313 177.487375)rotate(-90)scale(0.1 -0.1)">
      <use xlink:href="#DejaVuSans-79"/>
     </g>
    </g>
   </g>
   <g id="line2d_25">
    <defs>
     <path d="M -6 6 
L 6 -6 
M -6 -6 
L 6 6 
" id="mcc5b7df899" style="stroke:#008000;"/>
    </defs>
    <g clip-path="url(#p94fc75a1c9)">
     <use style="fill:#008000;stroke:#008000;" x="57.6" xlink:href="#mcc5b7df899" y="174.528"/>
    </g>
   </g>
   <g id="line2d_26">
    <path clip-path="url(#p94fc75a1c9)" d="M 202.862484 41.472 
L 202.862484 203.143959 
L 274.286484 203.143959 
L 274.286484 41.472 
L 202.862484 41.472 
" style="fill:none;stroke:#0000ff;stroke-linecap:square;stroke-width:2;"/>
   </g>
   <g id="line2d_27">
    <path clip-path="url(#p94fc75a1c9)" d="M 202.862484 256.366359 
L 202.862484 307.584 
L 274.286484 307.584 
L 274.286484 256.366359 
L 202.862484 256.366359 
" style="fill:none;stroke:#0000ff;stroke-linecap:square;stroke-width:2;"/>
   </g>
   <g id="line2d_28">
    <defs>
     <path d="M -6 6 
L 6 -6 
M -6 -6 
L 6 6 
" id="mfc811ce9c8" style="stroke:#ff0000;"/>
    </defs>
    <g clip-path="url(#p94fc75a1c9)">
     <use style="fill:#ff0000;stroke:#ff0000;" x="324.370191" xlink:href="#mfc811ce9c8" y="199.454735"/>
    </g>
   </g>
   <g id="line2d_29">
    <path clip-path="url(#p94fc75a1c9)" d="M 57.779159 174.005207 
L 68.491526 178.709096 
L 76.588338 182.466435 
L 83.146463 185.727917 
L 89.369726 189.105891 
L 93.713436 191.688051 
L 99.078497 195.179595 
L 104.051511 198.692239 
L 116.86479 207.936818 
L 121.66915 211.054073 
L 126.729928 214.050663 
L 132.031391 216.900319 
L 137.47921 219.533294 
L 141.606056 221.319383 
L 145.753998 222.920607 
L 149.935015 224.331331 
L 154.166061 225.554969 
L 158.448722 226.595735 
L 162.759828 227.45238 
L 167.060182 228.117033 
L 171.316928 228.579206 
L 175.526186 228.832705 
L 179.723141 228.882757 
L 185.420482 228.674192 
L 196.247033 227.890582 
L 203.282959 227.488825 
L 209.13304 227.331909 
L 215.572493 227.343377 
L 225.151133 227.623285 
L 255.299792 228.8145 
L 263.35988 228.756288 
L 268.457886 228.520956 
L 273.292583 228.104811 
L 277.847063 227.49758 
L 282.116906 226.698893 
L 286.104005 225.718527 
L 289.810906 224.575793 
L 293.236936 223.297955 
L 296.376793 221.917679 
L 299.22152 220.469784 
L 301.761182 218.987809 
L 303.988292 217.501054 
L 305.901003 216.032652 
L 307.50542 214.598995 
L 308.816789 213.210442 
L 309.85961 211.87298 
L 310.994537 209.970449 
L 311.740793 208.203031 
L 313.242116 203.90011 
L 313.961466 202.855982 
L 314.930152 202.010732 
L 316.155197 201.347763 
L 317.591695 200.842233 
L 319.685693 200.364348 
L 322.71679 199.94116 
L 324.392398 199.782492 
L 324.392398 199.782492 
" style="fill:none;stroke:#b2b2b2;stroke-linecap:square;stroke-width:1.5;"/>
   </g>
   <g id="line2d_30">
    <path clip-path="url(#p94fc75a1c9)" d="M 58.354005 174.088323 
L 70.569559 179.852188 
L 78.67333 183.865948 
L 85.08292 187.233364 
L 91.061307 190.617342 
L 96.495503 193.977453 
L 101.438152 197.303837 
L 108.214723 202.179725 
L 115.779264 207.592069 
L 120.256927 210.563397 
L 124.999776 213.463456 
L 130.032797 216.255757 
L 133.974765 218.229413 
L 138.040372 220.056006 
L 142.229314 221.707359 
L 146.557423 223.172319 
L 151.04008 224.454432 
L 155.669862 225.564469 
L 160.40339 226.512805 
L 166.749778 227.535548 
L 172.985268 228.286992 
L 179.053862 228.777863 
L 185.054181 229.038816 
L 192.778087 229.130152 
L 217.407679 229.192948 
L 252.395596 229.61816 
L 260.873561 229.4563 
L 268.921053 229.054798 
L 273.954175 228.626354 
L 278.686583 228.056452 
L 283.107182 227.340542 
L 287.215579 226.480549 
L 291.015813 225.48496 
L 294.511238 224.368234 
L 297.701563 223.149425 
L 300.582362 221.850129 
L 303.146701 220.492095 
L 305.388054 219.09498 
L 307.303563 217.674791 
L 308.896827 216.243356 
L 310.179784 214.80895 
L 311.173557 213.377812 
L 311.908392 211.956155 
L 312.422817 210.552049 
L 312.881675 208.504238 
L 313.737875 202.847022 
L 314.108249 202.040426 
L 314.606247 201.357188 
L 315.236462 200.793728 
L 315.992135 200.342211 
L 317.321226 199.850092 
L 318.802446 199.539743 
L 321.313163 199.299972 
L 323.884925 199.251709 
L 323.884925 199.251709 
" style="fill:none;stroke:#b2b2b2;stroke-linecap:square;stroke-width:1.5;"/>
   </g>
   <g id="line2d_31">
    <path clip-path="url(#p94fc75a1c9)" d="M 57.905584 174.342804 
L 69.796399 179.978336 
L 79.360123 184.742505 
L 85.658277 188.082089 
L 91.579539 191.445569 
L 97.076132 194.809712 
L 103.48048 199.003137 
L 115.753373 207.166181 
L 122.205661 211.117194 
L 127.689757 214.235287 
L 133.39285 217.266537 
L 139.147236 220.1089 
L 144.794123 222.656419 
L 150.272018 224.848296 
L 154.287333 226.252366 
L 158.249901 227.457041 
L 162.17417 228.466536 
L 166.062266 229.279123 
L 169.916089 229.888696 
L 173.754483 230.290271 
L 177.623674 230.486532 
L 181.594871 230.493225 
L 187.193952 230.264774 
L 205.887824 229.252709 
L 214.468185 229.134701 
L 224.239312 229.242371 
L 258.021554 229.908808 
L 266.216811 229.754301 
L 273.878416 229.324252 
L 278.648886 228.864326 
L 283.140274 228.260482 
L 287.35111 227.515138 
L 291.27917 226.636455 
L 294.917633 225.637265 
L 298.253951 224.533429 
L 301.271323 223.341839 
L 303.952042 222.078429 
L 306.281615 220.756659 
L 308.252611 219.386846 
L 309.867495 217.976549 
L 311.140182 216.531897 
L 312.096346 215.059531 
L 312.772711 213.568611 
L 313.215504 212.072324 
L 313.56 209.857805 
L 314.078651 204.139564 
L 314.394212 203.178767 
L 314.844947 202.349936 
L 315.436912 201.650659 
L 316.163811 201.0736 
L 317.466619 200.412528 
L 318.938642 199.955874 
L 320.967187 199.582238 
L 323.676191 199.32844 
L 324.058653 199.307093 
L 324.058653 199.307093 
" style="fill:none;stroke:#b2b2b2;stroke-linecap:square;stroke-width:1.5;"/>
   </g>
   <g id="line2d_32">
    <path clip-path="url(#p94fc75a1c9)" d="M 57.954285 175.653453 
L 71.848832 181.95505 
L 81.740596 186.665272 
L 89.633754 190.685352 
L 95.420485 193.864875 
L 100.74531 197.007223 
L 106.910748 200.88823 
L 124.66939 212.274947 
L 131.103107 216.014421 
L 136.439969 218.836967 
L 140.496914 220.766124 
L 144.581402 222.484938 
L 148.700835 223.972338 
L 152.87148 225.227577 
L 157.097573 226.262295 
L 161.357476 227.091657 
L 165.607132 227.728653 
L 169.800355 228.182882 
L 175.270519 228.519308 
L 180.666072 228.576462 
L 186.166741 228.409241 
L 207.842447 227.490929 
L 216.673437 227.450625 
L 229.525302 227.625139 
L 249.726386 227.932823 
L 258.378774 227.893139 
L 266.598868 227.642131 
L 274.19686 227.121261 
L 278.870438 226.605946 
L 283.221805 225.951788 
L 287.253225 225.161821 
L 290.968976 224.244766 
L 294.371069 223.214039 
L 297.457408 222.08615 
L 300.222374 220.878707 
L 302.659199 219.608383 
L 304.763184 218.289338 
L 306.534836 216.932474 
L 307.982281 215.545732 
L 309.122672 214.135346 
L 309.982597 212.707719 
L 310.597637 211.27139 
L 311.011193 209.838544 
L 311.362875 207.732788 
L 311.969644 202.875402 
L 312.290988 201.93448 
L 312.740055 201.12352 
L 313.327397 200.44248 
L 314.051552 199.885945 
L 315.3635 199.262487 
L 316.870039 198.852417 
L 318.988967 198.551106 
L 321.896162 198.408169 
L 322.708455 198.402378 
L 322.708455 198.402378 
" style="fill:none;stroke:#b2b2b2;stroke-linecap:square;stroke-width:1.5;"/>
   </g>
   <g id="line2d_33">
    <path clip-path="url(#p94fc75a1c9)" d="M 57.473553 174.835786 
L 74.326469 183.34609 
L 85.65868 189.297089 
L 94.579713 194.252511 
L 102.60481 199.00397 
L 111.220433 204.383706 
L 125.870007 213.585211 
L 131.089463 216.637913 
L 136.446176 219.505159 
L 140.505706 221.432926 
L 144.584691 223.109277 
L 148.692 224.509205 
L 152.844727 225.635812 
L 157.047411 226.513372 
L 161.278302 227.17799 
L 166.885438 227.801396 
L 173.70726 228.279494 
L 181.678116 228.587682 
L 201.116398 228.987498 
L 241.479096 229.809042 
L 250.040553 229.753364 
L 258.43085 229.501808 
L 266.419445 228.997392 
L 271.450291 228.499045 
L 276.220867 227.862249 
L 280.723889 227.085509 
L 284.957089 226.173182 
L 288.917361 225.135305 
L 292.596949 223.986723 
L 295.982366 222.745513 
L 299.055944 221.430908 
L 301.799247 220.061151 
L 304.197245 218.651764 
L 306.242159 217.214686 
L 307.936266 215.758519 
L 309.293358 214.289771 
L 310.338952 212.814788 
L 311.109464 211.341801 
L 311.650591 209.882529 
L 312.14869 207.755133 
L 312.976229 202.934029 
L 313.333745 202.021417 
L 313.81679 201.245698 
L 314.437542 200.606279 
L 315.195551 200.096985 
L 316.559959 199.552667 
L 318.120473 199.227702 
L 320.310337 199.040347 
L 323.310506 199.04768 
L 324.148274 199.08307 
L 324.148274 199.08307 
" style="fill:none;stroke:#b2b2b2;stroke-linecap:square;stroke-width:1.5;"/>
   </g>
   <g id="line2d_34">
    <path clip-path="url(#p94fc75a1c9)" d="M 57.432996 174.733584 
L 70.336413 180.860759 
L 79.619946 185.527025 
L 85.67884 188.782394 
L 91.391357 192.073448 
L 96.741568 195.384131 
L 104.251596 200.342871 
L 115.038856 207.528044 
L 121.235361 211.371517 
L 126.446591 214.383887 
L 131.852703 217.289106 
L 137.361737 219.996467 
L 142.910038 222.425233 
L 147.100409 224.04167 
L 151.336081 225.483365 
L 155.625608 226.75726 
L 161.397535 228.200271 
L 167.144613 229.342347 
L 171.393125 229.991347 
L 175.593054 230.459967 
L 181.202096 230.82034 
L 186.993402 230.929227 
L 196.483713 230.814614 
L 211.777068 230.646067 
L 231.325725 230.758707 
L 245.206314 230.760086 
L 253.603151 230.592332 
L 261.72638 230.212242 
L 269.385452 229.559978 
L 274.181088 228.953522 
L 278.713719 228.20348 
L 282.980368 227.311641 
L 286.979783 226.286378 
L 290.707627 225.142077 
L 294.154082 223.897769 
L 297.30415 222.575062 
L 300.140209 221.195722 
L 302.645868 219.779385 
L 304.810003 218.341952 
L 306.630077 216.895023 
L 308.114257 215.446475 
L 309.282225 214.001966 
L 310.164877 212.566915 
L 310.80313 211.14839 
L 311.411138 209.074349 
L 311.958679 205.882691 
L 312.308872 204.214318 
L 312.859495 202.781664 
L 313.385588 201.966618 
L 314.054401 201.263074 
L 314.864841 200.66596 
L 316.314125 199.951498 
L 317.963471 199.422991 
L 320.270004 198.942521 
L 323.421716 198.541398 
L 324.300714 198.461903 
L 324.300714 198.461903 
" style="fill:none;stroke:#b2b2b2;stroke-linecap:square;stroke-width:1.5;"/>
   </g>
   <g id="line2d_35">
    <path clip-path="url(#p94fc75a1c9)" d="M 56.948909 174.341304 
L 68.59992 179.372369 
L 76.491523 182.999674 
L 82.896898 186.162978 
L 89.075471 189.4855 
L 94.925521 192.942358 
L 100.459211 196.505929 
L 106.992338 201.007456 
L 121.586262 211.235841 
L 127.68261 215.157453 
L 132.676363 218.086632 
L 136.475054 220.100118 
L 140.312535 221.911844 
L 144.20046 223.497432 
L 148.16308 224.851997 
L 152.220432 225.986458 
L 156.370163 226.919779 
L 160.580804 227.671729 
L 166.20495 228.420615 
L 171.763657 228.908358 
L 177.27961 229.167328 
L 184.343805 229.238295 
L 215.594349 229.11889 
L 245.784342 229.480596 
L 254.508006 229.364312 
L 262.889158 229.019708 
L 268.174829 228.631249 
L 273.17135 228.099482 
L 277.859694 227.416754 
L 282.234917 226.582078 
L 286.299726 225.601559 
L 290.058505 224.488165 
L 293.513114 223.260687 
L 296.661165 221.941882 
L 299.496708 220.55602 
L 302.012692 219.126308 
L 304.204231 217.672726 
L 306.071729 216.210793 
L 307.623222 214.751509 
L 308.875648 213.302411 
L 309.855101 211.869394 
L 310.596242 210.458764 
L 311.354477 208.404031 
L 311.962579 205.84601 
L 312.635146 203.115186 
L 313.243881 201.804049 
L 313.7929 201.079491 
L 314.470084 200.473407 
L 315.27413 199.979828 
L 316.68837 199.429056 
L 318.278297 199.068615 
L 320.483537 198.805836 
L 323.478512 198.684409 
L 324.311441 198.680613 
L 324.311441 198.680613 
" style="fill:none;stroke:#b2b2b2;stroke-linecap:square;stroke-width:1.5;"/>
   </g>
   <g id="line2d_36">
    <path clip-path="url(#p94fc75a1c9)" d="M 56.66494 174.730814 
L 75.004075 183.400004 
L 86.179558 188.912136 
L 94.892741 193.480332 
L 101.485373 197.182942 
L 107.636221 200.871763 
L 114.711737 205.401893 
L 131.99906 216.771158 
L 135.955808 219.077173 
L 139.969526 221.170244 
L 144.044495 222.996834 
L 148.200153 224.534563 
L 152.453156 225.787938 
L 156.797763 226.778151 
L 161.198205 227.5327 
L 165.600042 228.078456 
L 171.393214 228.521754 
L 177.089856 228.685782 
L 182.804491 228.624542 
L 191.864416 228.267971 
L 204.125156 227.820706 
L 214.686361 227.707488 
L 227.109552 227.814291 
L 252.633369 228.081327 
L 261.065019 227.966373 
L 269.018692 227.643723 
L 276.351473 227.068345 
L 280.86623 226.532314 
L 285.079102 225.873395 
L 288.992513 225.09665 
L 292.607499 224.211749 
L 295.920871 223.231826 
L 298.924951 222.171852 
L 301.609504 221.046799 
L 303.964972 219.869992 
L 305.986005 218.652048 
L 307.674454 217.400683 
L 309.04133 216.121452 
L 310.107659 214.819207 
L 310.904334 213.499893 
L 311.471151 212.17217 
L 311.994795 210.192854 
L 312.439806 207.072722 
L 312.735562 205.411328 
L 313.226936 203.968704 
L 313.708059 203.14063 
L 314.326471 202.420567 
L 315.080924 201.804508 
L 316.436985 201.058941 
L 317.98569 200.498187 
L 320.156348 199.976253 
L 323.127131 199.522687 
L 323.956262 199.429155 
L 323.956262 199.429155 
" style="fill:none;stroke:#b2b2b2;stroke-linecap:square;stroke-width:1.5;"/>
   </g>
   <g id="line2d_37">
    <path clip-path="url(#p94fc75a1c9)" d="M 57.480357 174.143986 
L 69.233344 179.955412 
L 78.611351 184.832908 
L 84.720194 188.223578 
L 90.386221 191.610958 
L 95.556025 194.975152 
L 100.315647 198.322197 
L 108.09572 204.126238 
L 115.933059 209.880736 
L 121.997813 214.010896 
L 127.189531 217.268067 
L 131.231048 219.600035 
L 135.348411 221.761676 
L 139.512927 223.695706 
L 143.722068 225.367811 
L 147.990485 226.768321 
L 152.329416 227.905298 
L 156.728345 228.794516 
L 161.151719 229.451454 
L 165.554271 229.887907 
L 169.906493 230.113116 
L 174.215351 230.137861 
L 178.529475 229.97974 
L 184.43039 229.537218 
L 201.342353 228.041568 
L 209.596841 227.658273 
L 216.556058 227.539117 
L 226.909634 227.597734 
L 258.832793 228.072354 
L 267.130284 227.912721 
L 274.814159 227.491955 
L 279.551993 227.04701 
L 283.973777 226.465962 
L 288.081401 225.752103 
L 291.878036 224.914653 
L 295.363945 223.967694 
L 298.53481 222.928511 
L 301.382545 221.815552 
L 303.897921 220.646359 
L 306.074014 219.435916 
L 307.909533 218.195794 
L 309.411341 216.934285 
L 310.59589 215.657447 
L 311.489602 214.370764 
L 312.128351 213.080932 
L 312.556189 211.797271 
L 312.913628 209.91171 
L 313.468683 205.505989 
L 313.961882 204.221199 
L 314.452551 203.493781 
L 315.080352 202.86757 
L 316.261383 202.104679 
L 317.667451 201.527193 
L 319.713929 200.987126 
L 322.630682 200.516928 
L 323.851034 200.3797 
L 323.851034 200.3797 
" style="fill:none;stroke:#b2b2b2;stroke-linecap:square;stroke-width:1.5;"/>
   </g>
   <g id="line2d_38">
    <path clip-path="url(#p94fc75a1c9)" d="M 58.13005 173.989293 
L 68.848393 178.624599 
L 76.923222 182.317843 
L 83.434398 185.514951 
L 89.574224 188.817303 
L 93.827519 191.337198 
L 97.777895 193.888365 
L 102.647855 197.324179 
L 109.391949 202.458591 
L 117.057505 208.264289 
L 121.651021 211.491313 
L 126.517708 214.645082 
L 131.64298 217.655418 
L 135.615166 219.750474 
L 139.671146 221.654135 
L 143.808911 223.337112 
L 148.0419 224.791334 
L 152.380046 226.025693 
L 156.809202 227.057487 
L 161.283209 227.904638 
L 167.20458 228.77178 
L 172.96552 229.363945 
L 178.566764 229.71139 
L 185.57799 229.871482 
L 198.004659 229.8152 
L 211.713881 229.86223 
L 250.006395 230.291749 
L 258.943406 230.090766 
L 267.515214 229.626332 
L 272.930703 229.141022 
L 278.068831 228.502016 
L 282.914754 227.705416 
L 287.462437 226.754745 
L 291.707848 225.661114 
L 295.643658 224.442578 
L 299.256567 223.122589 
L 302.527581 221.727651 
L 305.434785 220.284525 
L 307.957595 218.817563 
L 310.08131 217.346724 
L 311.801004 215.886715 
L 313.124187 214.447353 
L 314.072127 213.034951 
L 314.679919 211.65427 
L 314.995453 210.310463 
L 315.077375 209.010518 
L 314.908673 207.16393 
L 314.351442 203.539776 
L 314.41113 202.723196 
L 314.637681 202.01142 
L 315.045256 201.402297 
L 315.632852 200.890323 
L 316.385453 200.467443 
L 317.762561 199.978683 
L 319.863813 199.543343 
L 322.956331 199.196835 
L 324.269783 199.1061 
L 324.269783 199.1061 
" style="fill:none;stroke:#b2b2b2;stroke-linecap:square;stroke-width:1.5;"/>
   </g>
   <g id="line2d_39">
    <path clip-path="url(#p94fc75a1c9)" d="M 57.619807 174.497095 
L 71.152812 181.002898 
L 80.822614 185.872663 
L 88.579775 190.036047 
L 94.302964 193.334011 
L 100.87137 197.406779 
L 108.14713 202.215922 
L 119.894363 210.032975 
L 126.116334 213.90753 
L 131.340172 216.928075 
L 136.710855 219.74781 
L 140.79407 221.652998 
L 144.91818 223.338027 
L 149.097714 224.790809 
L 153.347639 226.017596 
L 157.663186 227.034093 
L 162.011362 227.857281 
L 167.772271 228.677924 
L 173.411675 229.205965 
L 178.952326 229.471463 
L 184.546045 229.521543 
L 195.169419 229.317666 
L 206.026379 229.167838 
L 216.985762 229.242448 
L 253.179973 229.763028 
L 261.77335 229.585071 
L 269.869523 229.140513 
L 274.911692 228.669797 
L 279.643469 228.049309 
L 284.058884 227.277671 
L 288.159526 226.360537 
L 291.948478 225.310291 
L 295.426084 224.14498 
L 298.588235 222.88647 
L 301.427133 221.558063 
L 303.933868 220.182003 
L 306.101842 218.777407 
L 307.930061 217.3591 
L 309.425654 215.937591 
L 310.605311 214.52013 
L 311.495669 213.112492 
L 312.132816 211.720983 
L 312.561026 210.354088 
L 312.923275 208.375894 
L 313.522825 203.886625 
L 313.840728 203.015627 
L 314.287368 202.258851 
L 314.87372 201.615032 
L 315.598521 201.078769 
L 316.914472 200.456575 
L 318.428069 200.019304 
L 320.559319 199.653545 
L 323.485916 199.396148 
L 324.303956 199.355061 
L 324.303956 199.355061 
" style="fill:none;stroke:#ff0000;stroke-linecap:square;stroke-width:1.5;"/>
   </g>
   <g id="line2d_40">
    <defs>
     <path d="M 0 -3 
L -0.673542 -0.927051 
L -2.85317 -0.927051 
L -1.089814 0.354102 
L -1.763356 2.427051 
L -0 1.145898 
L 1.763356 2.427051 
L 1.089814 0.354102 
L 2.85317 -0.927051 
L 0.673542 -0.927051 
z
" id="m454c9b27ba" style="stroke:#000000;stroke-linejoin:bevel;"/>
    </defs>
    <g clip-path="url(#p94fc75a1c9)">
     <use style="stroke:#000000;stroke-linejoin:bevel;" x="57.619807" xlink:href="#m454c9b27ba" y="174.497095"/>
    </g>
   </g>
   <g id="line2d_41">
    <defs>
     <path d="M 0 3 
C 0.795609 3 1.55874 2.683901 2.12132 2.12132 
C 2.683901 1.55874 3 0.795609 3 0 
C 3 -0.795609 2.683901 -1.55874 2.12132 -2.12132 
C 1.55874 -2.683901 0.795609 -3 0 -3 
C -0.795609 -3 -1.55874 -2.683901 -2.12132 -2.12132 
C -2.683901 -1.55874 -3 -0.795609 -3 0 
C -3 0.795609 -2.683901 1.55874 -2.12132 2.12132 
C -1.55874 2.683901 -0.795609 3 0 3 
z
" id="md4287500e2" style="stroke:#bf00bf;"/>
    </defs>
    <g clip-path="url(#p94fc75a1c9)">
     <use style="fill:#bf00bf;stroke:#bf00bf;" x="57.764377" xlink:href="#md4287500e2" y="174.603778"/>
    </g>
   </g>
   <g id="patch_3">
    <path d="M 57.6 307.584 
L 57.6 41.472 
" style="fill:none;stroke:#000000;stroke-linecap:square;stroke-linejoin:miter;stroke-width:0.8;"/>
   </g>
   <g id="patch_4">
    <path d="M 414.72 307.584 
L 414.72 41.472 
" style="fill:none;stroke:#000000;stroke-linecap:square;stroke-linejoin:miter;stroke-width:0.8;"/>
   </g>
   <g id="patch_5">
    <path d="M 57.6 307.584 
L 414.72 307.584 
" style="fill:none;stroke:#000000;stroke-linecap:square;stroke-linejoin:miter;stroke-width:0.8;"/>
   </g>
   <g id="patch_6">
    <path d="M 57.6 41.472 
L 414.72 41.472 
" style="fill:none;stroke:#000000;stroke-linecap:square;stroke-linejoin:miter;stroke-width:0.8;"/>
   </g>
  </g>
 </g>
 <defs>
  <clipPath id="p94fc75a1c9">
   <rect height="266.112" width="357.12" x="57.6" y="41.472"/>
  </clipPath>
 </defs>
</svg>
