<?xml version="1.0" encoding="utf-8" standalone="no"?>
<!DOCTYPE svg PUBLIC "-//W3C//DTD SVG 1.1//EN"
  "http://www.w3.org/Graphics/SVG/1.1/DTD/svg11.dtd">
<!-- Created with matplotlib (http://matplotlib.org/) -->
<svg height="345pt" version="1.1" viewBox="0 0 460 345" width="460pt" xmlns="http://www.w3.org/2000/svg" xmlns:xlink="http://www.w3.org/1999/xlink">
 <defs>
  <style type="text/css">
*{stroke-linecap:butt;stroke-linejoin:round;}
  </style>
 </defs>
 <g id="figure_1">
  <g id="patch_1">
   <path d="M 0 345.6 
L 460.8 345.6 
L 460.8 0 
L 0 0 
z
" style="fill:#ffffff;"/>
  </g>
  <g id="axes_1">
   <g id="patch_2">
    <path d="M 57.6 307.584 
L 414.72 307.584 
L 414.72 41.472 
L 57.6 41.472 
z
" style="fill:#ffffff;"/>
   </g>
   <g id="matplotlib.axis_1">
    <g id="xtick_1">
     <g id="line2d_1">
      <path clip-path="url(#p214e4ec81d)" d="M 57.6 307.584 
L 57.6 41.472 
" style="fill:none;stroke:#b0b0b0;stroke-linecap:square;stroke-width:0.8;"/>
     </g>
     <g id="line2d_2">
      <defs>
       <path d="M 0 0 
L 0 3.5 
" id="m0a3fb29fa7" style="stroke:#000000;stroke-width:0.8;"/>
      </defs>
      <g>
       <use style="stroke:#000000;stroke-width:0.8;" x="57.6" xlink:href="#m0a3fb29fa7" y="307.584"/>
      </g>
     </g>
     <g id="text_1">
      <!-- 0 -->
      <defs>
       <path d="M 31.78125 66.40625 
Q 24.171875 66.40625 20.328125 58.90625 
Q 16.5 51.421875 16.5 36.375 
Q 16.5 21.390625 20.328125 13.890625 
Q 24.171875 6.390625 31.78125 6.390625 
Q 39.453125 6.390625 43.28125 13.890625 
Q 47.125 21.390625 47.125 36.375 
Q 47.125 51.421875 43.28125 58.90625 
Q 39.453125 66.40625 31.78125 66.40625 
z
M 31.78125 74.21875 
Q 44.046875 74.21875 50.515625 64.515625 
Q 56.984375 54.828125 56.984375 36.375 
Q 56.984375 17.96875 50.515625 8.265625 
Q 44.046875 -1.421875 31.78125 -1.421875 
Q 19.53125 -1.421875 13.0625 8.265625 
Q 6.59375 17.96875 6.59375 36.375 
Q 6.59375 54.828125 13.0625 64.515625 
Q 19.53125 74.21875 31.78125 74.21875 
z
" id="DejaVuSans-30"/>
      </defs>
      <g transform="translate(54.41875 322.182437)scale(0.1 -0.1)">
       <use xlink:href="#DejaVuSans-30"/>
      </g>
     </g>
    </g>
    <g id="xtick_2">
     <g id="line2d_3">
      <path clip-path="url(#p214e4ec81d)" d="M 129.024 307.584 
L 129.024 41.472 
" style="fill:none;stroke:#b0b0b0;stroke-linecap:square;stroke-width:0.8;"/>
     </g>
     <g id="line2d_4">
      <g>
       <use style="stroke:#000000;stroke-width:0.8;" x="129.024" xlink:href="#m0a3fb29fa7" y="307.584"/>
      </g>
     </g>
     <g id="text_2">
      <!-- 2 -->
      <defs>
       <path d="M 19.1875 8.296875 
L 53.609375 8.296875 
L 53.609375 0 
L 7.328125 0 
L 7.328125 8.296875 
Q 12.9375 14.109375 22.625 23.890625 
Q 32.328125 33.6875 34.8125 36.53125 
Q 39.546875 41.84375 41.421875 45.53125 
Q 43.3125 49.21875 43.3125 52.78125 
Q 43.3125 58.59375 39.234375 62.25 
Q 35.15625 65.921875 28.609375 65.921875 
Q 23.96875 65.921875 18.8125 64.3125 
Q 13.671875 62.703125 7.8125 59.421875 
L 7.8125 69.390625 
Q 13.765625 71.78125 18.9375 73 
Q 24.125 74.21875 28.421875 74.21875 
Q 39.75 74.21875 46.484375 68.546875 
Q 53.21875 62.890625 53.21875 53.421875 
Q 53.21875 48.921875 51.53125 44.890625 
Q 49.859375 40.875 45.40625 35.40625 
Q 44.1875 33.984375 37.640625 27.21875 
Q 31.109375 20.453125 19.1875 8.296875 
z
" id="DejaVuSans-32"/>
      </defs>
      <g transform="translate(125.84275 322.182437)scale(0.1 -0.1)">
       <use xlink:href="#DejaVuSans-32"/>
      </g>
     </g>
    </g>
    <g id="xtick_3">
     <g id="line2d_5">
      <path clip-path="url(#p214e4ec81d)" d="M 200.448 307.584 
L 200.448 41.472 
" style="fill:none;stroke:#b0b0b0;stroke-linecap:square;stroke-width:0.8;"/>
     </g>
     <g id="line2d_6">
      <g>
       <use style="stroke:#000000;stroke-width:0.8;" x="200.448" xlink:href="#m0a3fb29fa7" y="307.584"/>
      </g>
     </g>
     <g id="text_3">
      <!-- 4 -->
      <defs>
       <path d="M 37.796875 64.3125 
L 12.890625 25.390625 
L 37.796875 25.390625 
z
M 35.203125 72.90625 
L 47.609375 72.90625 
L 47.609375 25.390625 
L 58.015625 25.390625 
L 58.015625 17.1875 
L 47.609375 17.1875 
L 47.609375 0 
L 37.796875 0 
L 37.796875 17.1875 
L 4.890625 17.1875 
L 4.890625 26.703125 
z
" id="DejaVuSans-34"/>
      </defs>
      <g transform="translate(197.26675 322.182437)scale(0.1 -0.1)">
       <use xlink:href="#DejaVuSans-34"/>
      </g>
     </g>
    </g>
    <g id="xtick_4">
     <g id="line2d_7">
      <path clip-path="url(#p214e4ec81d)" d="M 271.872 307.584 
L 271.872 41.472 
" style="fill:none;stroke:#b0b0b0;stroke-linecap:square;stroke-width:0.8;"/>
     </g>
     <g id="line2d_8">
      <g>
       <use style="stroke:#000000;stroke-width:0.8;" x="271.872" xlink:href="#m0a3fb29fa7" y="307.584"/>
      </g>
     </g>
     <g id="text_4">
      <!-- 6 -->
      <defs>
       <path d="M 33.015625 40.375 
Q 26.375 40.375 22.484375 35.828125 
Q 18.609375 31.296875 18.609375 23.390625 
Q 18.609375 15.53125 22.484375 10.953125 
Q 26.375 6.390625 33.015625 6.390625 
Q 39.65625 6.390625 43.53125 10.953125 
Q 47.40625 15.53125 47.40625 23.390625 
Q 47.40625 31.296875 43.53125 35.828125 
Q 39.65625 40.375 33.015625 40.375 
z
M 52.59375 71.296875 
L 52.59375 62.3125 
Q 48.875 64.0625 45.09375 64.984375 
Q 41.3125 65.921875 37.59375 65.921875 
Q 27.828125 65.921875 22.671875 59.328125 
Q 17.53125 52.734375 16.796875 39.40625 
Q 19.671875 43.65625 24.015625 45.921875 
Q 28.375 48.1875 33.59375 48.1875 
Q 44.578125 48.1875 50.953125 41.515625 
Q 57.328125 34.859375 57.328125 23.390625 
Q 57.328125 12.15625 50.6875 5.359375 
Q 44.046875 -1.421875 33.015625 -1.421875 
Q 20.359375 -1.421875 13.671875 8.265625 
Q 6.984375 17.96875 6.984375 36.375 
Q 6.984375 53.65625 15.1875 63.9375 
Q 23.390625 74.21875 37.203125 74.21875 
Q 40.921875 74.21875 44.703125 73.484375 
Q 48.484375 72.75 52.59375 71.296875 
z
" id="DejaVuSans-36"/>
      </defs>
      <g transform="translate(268.69075 322.182437)scale(0.1 -0.1)">
       <use xlink:href="#DejaVuSans-36"/>
      </g>
     </g>
    </g>
    <g id="xtick_5">
     <g id="line2d_9">
      <path clip-path="url(#p214e4ec81d)" d="M 343.296 307.584 
L 343.296 41.472 
" style="fill:none;stroke:#b0b0b0;stroke-linecap:square;stroke-width:0.8;"/>
     </g>
     <g id="line2d_10">
      <g>
       <use style="stroke:#000000;stroke-width:0.8;" x="343.296" xlink:href="#m0a3fb29fa7" y="307.584"/>
      </g>
     </g>
     <g id="text_5">
      <!-- 8 -->
      <defs>
       <path d="M 31.78125 34.625 
Q 24.75 34.625 20.71875 30.859375 
Q 16.703125 27.09375 16.703125 20.515625 
Q 16.703125 13.921875 20.71875 10.15625 
Q 24.75 6.390625 31.78125 6.390625 
Q 38.8125 6.390625 42.859375 10.171875 
Q 46.921875 13.96875 46.921875 20.515625 
Q 46.921875 27.09375 42.890625 30.859375 
Q 38.875 34.625 31.78125 34.625 
z
M 21.921875 38.8125 
Q 15.578125 40.375 12.03125 44.71875 
Q 8.5 49.078125 8.5 55.328125 
Q 8.5 64.0625 14.71875 69.140625 
Q 20.953125 74.21875 31.78125 74.21875 
Q 42.671875 74.21875 48.875 69.140625 
Q 55.078125 64.0625 55.078125 55.328125 
Q 55.078125 49.078125 51.53125 44.71875 
Q 48 40.375 41.703125 38.8125 
Q 48.828125 37.15625 52.796875 32.3125 
Q 56.78125 27.484375 56.78125 20.515625 
Q 56.78125 9.90625 50.3125 4.234375 
Q 43.84375 -1.421875 31.78125 -1.421875 
Q 19.734375 -1.421875 13.25 4.234375 
Q 6.78125 9.90625 6.78125 20.515625 
Q 6.78125 27.484375 10.78125 32.3125 
Q 14.796875 37.15625 21.921875 38.8125 
z
M 18.3125 54.390625 
Q 18.3125 48.734375 21.84375 45.5625 
Q 25.390625 42.390625 31.78125 42.390625 
Q 38.140625 42.390625 41.71875 45.5625 
Q 45.3125 48.734375 45.3125 54.390625 
Q 45.3125 60.0625 41.71875 63.234375 
Q 38.140625 66.40625 31.78125 66.40625 
Q 25.390625 66.40625 21.84375 63.234375 
Q 18.3125 60.0625 18.3125 54.390625 
z
" id="DejaVuSans-38"/>
      </defs>
      <g transform="translate(340.11475 322.182437)scale(0.1 -0.1)">
       <use xlink:href="#DejaVuSans-38"/>
      </g>
     </g>
    </g>
    <g id="xtick_6">
     <g id="line2d_11">
      <path clip-path="url(#p214e4ec81d)" d="M 414.72 307.584 
L 414.72 41.472 
" style="fill:none;stroke:#b0b0b0;stroke-linecap:square;stroke-width:0.8;"/>
     </g>
     <g id="line2d_12">
      <g>
       <use style="stroke:#000000;stroke-width:0.8;" x="414.72" xlink:href="#m0a3fb29fa7" y="307.584"/>
      </g>
     </g>
     <g id="text_6">
      <!-- 10 -->
      <defs>
       <path d="M 12.40625 8.296875 
L 28.515625 8.296875 
L 28.515625 63.921875 
L 10.984375 60.40625 
L 10.984375 69.390625 
L 28.421875 72.90625 
L 38.28125 72.90625 
L 38.28125 8.296875 
L 54.390625 8.296875 
L 54.390625 0 
L 12.40625 0 
z
" id="DejaVuSans-31"/>
      </defs>
      <g transform="translate(408.3575 322.182437)scale(0.1 -0.1)">
       <use xlink:href="#DejaVuSans-31"/>
       <use x="63.623047" xlink:href="#DejaVuSans-30"/>
      </g>
     </g>
    </g>
    <g id="text_7">
     <!-- x -->
     <defs>
      <path d="M 54.890625 54.6875 
L 35.109375 28.078125 
L 55.90625 0 
L 45.3125 0 
L 29.390625 21.484375 
L 13.484375 0 
L 2.875 0 
L 24.125 28.609375 
L 4.6875 54.6875 
L 15.28125 54.6875 
L 29.78125 35.203125 
L 44.28125 54.6875 
z
" id="DejaVuSans-78"/>
     </defs>
     <g transform="translate(230.833125 341.939312)scale(0.18 -0.18)">
      <use xlink:href="#DejaVuSans-78"/>
     </g>
    </g>
   </g>
   <g id="matplotlib.axis_2">
    <g id="ytick_1">
     <g id="line2d_13">
      <path clip-path="url(#p214e4ec81d)" d="M 57.6 307.584 
L 414.72 307.584 
" style="fill:none;stroke:#b0b0b0;stroke-linecap:square;stroke-width:0.8;"/>
     </g>
     <g id="line2d_14">
      <defs>
       <path d="M 0 0 
L -3.5 0 
" id="m10556943c2" style="stroke:#000000;stroke-width:0.8;"/>
      </defs>
      <g>
       <use style="stroke:#000000;stroke-width:0.8;" x="57.6" xlink:href="#m10556943c2" y="307.584"/>
      </g>
     </g>
     <g id="text_8">
      <!-- 0 -->
      <g transform="translate(44.2375 311.383219)scale(0.1 -0.1)">
       <use xlink:href="#DejaVuSans-30"/>
      </g>
     </g>
    </g>
    <g id="ytick_2">
     <g id="line2d_15">
      <path clip-path="url(#p214e4ec81d)" d="M 57.6 254.3616 
L 414.72 254.3616 
" style="fill:none;stroke:#b0b0b0;stroke-linecap:square;stroke-width:0.8;"/>
     </g>
     <g id="line2d_16">
      <g>
       <use style="stroke:#000000;stroke-width:0.8;" x="57.6" xlink:href="#m10556943c2" y="254.3616"/>
      </g>
     </g>
     <g id="text_9">
      <!-- 2 -->
      <g transform="translate(44.2375 258.160819)scale(0.1 -0.1)">
       <use xlink:href="#DejaVuSans-32"/>
      </g>
     </g>
    </g>
    <g id="ytick_3">
     <g id="line2d_17">
      <path clip-path="url(#p214e4ec81d)" d="M 57.6 201.1392 
L 414.72 201.1392 
" style="fill:none;stroke:#b0b0b0;stroke-linecap:square;stroke-width:0.8;"/>
     </g>
     <g id="line2d_18">
      <g>
       <use style="stroke:#000000;stroke-width:0.8;" x="57.6" xlink:href="#m10556943c2" y="201.1392"/>
      </g>
     </g>
     <g id="text_10">
      <!-- 4 -->
      <g transform="translate(44.2375 204.938419)scale(0.1 -0.1)">
       <use xlink:href="#DejaVuSans-34"/>
      </g>
     </g>
    </g>
    <g id="ytick_4">
     <g id="line2d_19">
      <path clip-path="url(#p214e4ec81d)" d="M 57.6 147.9168 
L 414.72 147.9168 
" style="fill:none;stroke:#b0b0b0;stroke-linecap:square;stroke-width:0.8;"/>
     </g>
     <g id="line2d_20">
      <g>
       <use style="stroke:#000000;stroke-width:0.8;" x="57.6" xlink:href="#m10556943c2" y="147.9168"/>
      </g>
     </g>
     <g id="text_11">
      <!-- 6 -->
      <g transform="translate(44.2375 151.716019)scale(0.1 -0.1)">
       <use xlink:href="#DejaVuSans-36"/>
      </g>
     </g>
    </g>
    <g id="ytick_5">
     <g id="line2d_21">
      <path clip-path="url(#p214e4ec81d)" d="M 57.6 94.6944 
L 414.72 94.6944 
" style="fill:none;stroke:#b0b0b0;stroke-linecap:square;stroke-width:0.8;"/>
     </g>
     <g id="line2d_22">
      <g>
       <use style="stroke:#000000;stroke-width:0.8;" x="57.6" xlink:href="#m10556943c2" y="94.6944"/>
      </g>
     </g>
     <g id="text_12">
      <!-- 8 -->
      <g transform="translate(44.2375 98.493619)scale(0.1 -0.1)">
       <use xlink:href="#DejaVuSans-38"/>
      </g>
     </g>
    </g>
    <g id="ytick_6">
     <g id="line2d_23">
      <path clip-path="url(#p214e4ec81d)" d="M 57.6 41.472 
L 414.72 41.472 
" style="fill:none;stroke:#b0b0b0;stroke-linecap:square;stroke-width:0.8;"/>
     </g>
     <g id="line2d_24">
      <g>
       <use style="stroke:#000000;stroke-width:0.8;" x="57.6" xlink:href="#m10556943c2" y="41.472"/>
      </g>
     </g>
     <g id="text_13">
      <!-- 10 -->
      <g transform="translate(37.875 45.271219)scale(0.1 -0.1)">
       <use xlink:href="#DejaVuSans-31"/>
       <use x="63.623047" xlink:href="#DejaVuSans-30"/>
      </g>
     </g>
    </g>
    <g id="text_14">
     <!-- y -->
     <defs>
      <path d="M 32.171875 -5.078125 
Q 28.375 -14.84375 24.75 -17.8125 
Q 21.140625 -20.796875 15.09375 -20.796875 
L 7.90625 -20.796875 
L 7.90625 -13.28125 
L 13.1875 -13.28125 
Q 16.890625 -13.28125 18.9375 -11.515625 
Q 21 -9.765625 23.484375 -3.21875 
L 25.09375 0.875 
L 2.984375 54.6875 
L 12.5 54.6875 
L 29.59375 11.921875 
L 46.6875 54.6875 
L 56.203125 54.6875 
z
" id="DejaVuSans-79"/>
     </defs>
     <g transform="translate(30.131563 179.854875)rotate(-90)scale(0.18 -0.18)">
      <use xlink:href="#DejaVuSans-79"/>
     </g>
    </g>
   </g>
   <g id="line2d_25">
    <defs>
     <path d="M -9 9 
L 9 -9 
M -9 -9 
L 9 9 
" id="m53ace82ad6" style="stroke:#008000;stroke-width:2;"/>
    </defs>
    <g clip-path="url(#p214e4ec81d)">
     <use style="fill:#008000;stroke:#008000;stroke-width:2;" x="57.6" xlink:href="#m53ace82ad6" y="174.528"/>
    </g>
   </g>
   <g id="line2d_26">
    <path clip-path="url(#p214e4ec81d)" d="M 214.478567 41.472 
L 214.478567 99.444102 
L 285.902567 99.444102 
L 285.902567 41.472 
L 214.478567 41.472 
" style="fill:none;stroke:#0000ff;stroke-linecap:square;stroke-width:2;"/>
   </g>
   <g id="line2d_27">
    <path clip-path="url(#p214e4ec81d)" d="M 214.478567 152.666502 
L 214.478567 307.584 
L 285.902567 307.584 
L 285.902567 152.666502 
L 214.478567 152.666502 
" style="fill:none;stroke:#0000ff;stroke-linecap:square;stroke-width:2;"/>
   </g>
   <g id="line2d_28">
    <defs>
     <path d="M -9 9 
L 9 -9 
M -9 -9 
L 9 9 
" id="m28906dc3e3" style="stroke:#ff0000;stroke-width:2;"/>
    </defs>
    <g clip-path="url(#p214e4ec81d)">
     <use style="fill:#ff0000;stroke:#ff0000;stroke-width:2;" x="372.794644" xlink:href="#m28906dc3e3" y="159.922926"/>
    </g>
   </g>
   <g id="line2d_29">
    <path clip-path="url(#p214e4ec81d)" d="M 57.865496 174.048939 
L 66.734769 171.829023 
L 72.954548 170.079687 
L 77.905741 168.522221 
L 82.926137 166.742813 
L 87.902858 164.727286 
L 92.78603 162.463428 
L 97.582227 159.952025 
L 102.332779 157.217992 
L 110.300224 152.31873 
L 118.578811 147.279756 
L 123.831563 144.301623 
L 129.381824 141.394019 
L 135.2622 138.573132 
L 141.443431 135.863148 
L 147.82378 133.30907 
L 154.247548 130.976363 
L 160.548403 128.937439 
L 166.596823 127.252441 
L 172.327855 125.953751 
L 177.738398 125.039556 
L 182.861764 124.476161 
L 187.738137 124.20589 
L 192.397981 124.157686 
L 198.315197 124.313405 
L 227.469066 125.492711 
L 242.327084 125.689771 
L 263.396189 125.747742 
L 281.780945 125.610431 
L 299.598906 125.265249 
L 318.035954 124.911864 
L 324.233515 124.991706 
L 329.873052 125.321085 
L 333.261737 125.725689 
L 336.321248 126.307621 
L 339.037779 127.086642 
L 341.412318 128.075393 
L 343.460685 129.277495 
L 345.212048 130.686121 
L 346.706495 132.283382 
L 347.992151 134.040884 
L 349.122158 135.921676 
L 351.134868 139.882965 
L 353.158161 143.83916 
L 354.877591 146.654911 
L 356.16607 148.426982 
L 357.577118 150.105521 
L 359.903671 152.440877 
L 362.409333 154.551984 
L 364.971414 156.431452 
L 368.237055 158.561824 
L 372.301747 160.947016 
L 372.301747 160.947016 
" style="fill:none;stroke:#b2b2b2;stroke-linecap:square;stroke-width:1.5;"/>
   </g>
   <g id="line2d_30">
    <path clip-path="url(#p214e4ec81d)" d="M 57.31918 174.941783 
L 66.69792 172.580413 
L 73.226268 170.750773 
L 80.111695 168.565725 
L 85.261398 166.688338 
L 90.27195 164.596567 
L 95.105767 162.283369 
L 99.784425 159.755144 
L 104.364821 157.04123 
L 123.239033 145.471651 
L 128.510685 142.642592 
L 134.12516 139.887252 
L 140.061109 137.232255 
L 146.226552 134.726914 
L 152.477648 132.441985 
L 158.660565 130.455225 
L 164.656426 128.831196 
L 168.518222 127.968762 
L 172.266848 127.285027 
L 177.69004 126.579011 
L 182.899594 126.21138 
L 187.91665 126.109591 
L 194.316124 126.240415 
L 213.465917 126.885017 
L 222.573224 126.832159 
L 254.071362 126.414659 
L 285.864252 126.114185 
L 301.48446 125.703839 
L 322.520987 125.054042 
L 328.645687 125.095354 
L 332.379626 125.281551 
L 335.789803 125.631596 
L 338.84773 126.173561 
L 341.538313 126.929609 
L 343.862109 127.913649 
L 345.835563 129.129305 
L 347.489657 130.568447 
L 348.867538 132.210624 
L 350.021546 134.023759 
L 351.009974 135.966343 
L 352.732729 140.049162 
L 354.493547 144.091113 
L 355.503229 146.007386 
L 356.639189 147.824657 
L 357.91491 149.531982 
L 359.329448 151.1248 
L 360.867659 152.602472 
L 363.343197 154.605668 
L 365.901182 156.357027 
L 369.186732 158.307546 
L 373.301265 160.452471 
L 373.301265 160.452471 
" style="fill:none;stroke:#b2b2b2;stroke-linecap:square;stroke-width:1.5;"/>
   </g>
   <g id="line2d_31">
    <path clip-path="url(#p214e4ec81d)" d="M 57.37603 174.454541 
L 66.482308 172.181944 
L 74.503552 169.950489 
L 81.263025 167.805946 
L 86.292906 165.985277 
L 91.195164 163.973782 
L 95.956899 161.765382 
L 100.613156 159.366459 
L 106.761758 155.918243 
L 121.181487 147.618654 
L 128.276486 143.867235 
L 133.990517 141.064144 
L 140.017111 138.304613 
L 146.256753 135.649665 
L 152.556663 133.18502 
L 158.753907 131.00378 
L 164.72229 129.183705 
L 170.399689 127.769449 
L 174.020752 127.055879 
L 179.230721 126.30914 
L 184.213637 125.901726 
L 189.006952 125.760831 
L 195.151869 125.849513 
L 206.958053 126.376384 
L 217.602395 126.745821 
L 227.612912 126.869632 
L 240.848966 126.783904 
L 261.219366 126.375353 
L 288.955107 125.843139 
L 300.924507 125.823007 
L 309.958543 126.006797 
L 316.373385 126.307373 
L 322.395853 126.790033 
L 327.91464 127.500195 
L 331.258483 128.123793 
L 334.304878 128.88327 
L 337.041799 129.789658 
L 339.470807 130.850016 
L 341.606833 132.065713 
L 343.476519 133.430936 
L 345.115753 134.931793 
L 346.566898 136.546386 
L 348.492257 139.117701 
L 353.869393 146.90214 
L 355.919112 149.25191 
L 358.185594 151.418648 
L 360.637246 153.395365 
L 363.188667 155.17733 
L 366.537485 157.236624 
L 370.895019 159.616897 
L 372.082466 160.225228 
L 372.082466 160.225228 
" style="fill:none;stroke:#b2b2b2;stroke-linecap:square;stroke-width:1.5;"/>
   </g>
   <g id="line2d_32">
    <path clip-path="url(#p214e4ec81d)" d="M 57.590766 174.254248 
L 66.405753 172.312631 
L 74.209864 170.345993 
L 79.168234 168.914899 
L 84.151358 167.281338 
L 89.067794 165.430104 
L 93.889683 163.349325 
L 98.639838 161.040464 
L 104.950773 157.649767 
L 123.358957 147.367283 
L 130.935703 143.547048 
L 137.02795 140.704067 
L 143.414034 137.924733 
L 149.964071 135.279469 
L 156.505402 132.858674 
L 162.871727 130.75257 
L 168.947673 129.029192 
L 174.687304 127.720035 
L 180.101996 126.816855 
L 185.230626 126.277415 
L 190.112014 126.036118 
L 194.774107 126.016416 
L 200.693242 126.205766 
L 226.875295 127.376816 
L 235.463425 127.430396 
L 247.371658 127.252125 
L 263.779706 126.747438 
L 294.245647 125.760759 
L 306.110795 125.60825 
L 315.023243 125.723836 
L 321.283285 126.009574 
L 327.06284 126.520932 
L 330.588967 127.014247 
L 333.817733 127.648109 
L 336.729794 128.436416 
L 339.319201 129.389437 
L 341.594168 130.512039 
L 343.576097 131.802029 
L 345.297449 133.248939 
L 346.799027 134.833648 
L 348.127129 136.529152 
L 349.901399 139.207452 
L 353.838812 145.494148 
L 355.737977 147.997079 
L 357.85846 150.322875 
L 360.189262 152.459284 
L 362.661494 154.399793 
L 365.982312 156.666326 
L 369.765317 158.950146 
L 372.244735 160.334295 
L 372.244735 160.334295 
" style="fill:none;stroke:#b2b2b2;stroke-linecap:square;stroke-width:1.5;"/>
   </g>
   <g id="line2d_33">
    <path clip-path="url(#p214e4ec81d)" d="M 57.673032 174.750773 
L 67.144006 172.265988 
L 73.732434 170.341478 
L 78.931198 168.653801 
L 84.146552 166.753863 
L 89.245351 164.633857 
L 94.165973 162.285594 
L 98.913652 159.711416 
L 103.53866 156.935814 
L 111.174776 152.009649 
L 119.057766 146.987942 
L 124.078967 144.037234 
L 129.41632 141.167054 
L 135.107438 138.390513 
L 141.124136 135.727479 
L 147.36372 133.217233 
L 153.668868 130.918523 
L 159.871588 128.897032 
L 165.84079 127.207498 
L 171.510003 125.879582 
L 176.874719 124.912559 
L 181.967121 124.278332 
L 186.826749 123.92932 
L 191.484053 123.80801 
L 197.421047 123.90048 
L 204.532735 124.261902 
L 225.417752 125.506734 
L 232.431121 125.641901 
L 240.224285 125.567161 
L 248.952859 125.259565 
L 261.173613 124.589563 
L 292.612902 122.730171 
L 302.384355 122.419168 
L 309.309489 122.378852 
L 315.867546 122.537882 
L 322.007539 122.930319 
L 325.826641 123.341089 
L 329.391639 123.886334 
L 332.675205 124.579447 
L 335.657574 125.432979 
L 338.330068 126.457092 
L 340.696757 127.65768 
L 342.7743 129.034365 
L 344.590428 130.578716 
L 346.181635 132.273155 
L 347.590572 134.090969 
L 349.463713 136.972327 
L 354.12729 144.643317 
L 356.102387 147.223696 
L 357.543602 148.811914 
L 359.88958 150.989221 
L 362.405086 152.923794 
L 364.987863 154.622005 
L 368.315906 156.527094 
L 372.536468 158.649412 
L 373.119025 158.923945 
L 373.119025 158.923945 
" style="fill:none;stroke:#b2b2b2;stroke-linecap:square;stroke-width:1.5;"/>
   </g>
   <g id="line2d_34">
    <path clip-path="url(#p214e4ec81d)" d="M 57.667299 174.641602 
L 66.604501 172.207646 
L 74.518258 169.827623 
L 81.234112 167.550938 
L 86.270676 165.626579 
L 91.219379 163.509239 
L 96.066845 161.19438 
L 100.841179 158.690538 
L 107.174099 155.110604 
L 121.914173 146.598342 
L 129.035453 142.804225 
L 134.719037 139.98669 
L 140.687046 137.219897 
L 146.862625 134.554256 
L 153.12106 132.06278 
L 159.328195 129.825589 
L 165.381784 127.909473 
L 171.233451 126.352566 
L 176.881561 125.159497 
L 182.343356 124.305978 
L 187.625777 123.748371 
L 192.712918 123.434104 
L 199.143731 123.303283 
L 205.152693 123.404369 
L 213.600689 123.813444 
L 228.104211 124.607386 
L 234.843989 124.751492 
L 242.530386 124.709237 
L 253.731282 124.386812 
L 285.643349 123.235945 
L 296.314976 123.165626 
L 304.001072 123.330186 
L 311.372977 123.70918 
L 318.39045 124.315441 
L 324.973142 125.154507 
L 330.998339 126.230005 
L 334.637859 127.081379 
L 337.934888 128.043703 
L 340.866981 129.120516 
L 343.426525 130.314728 
L 345.6219 131.62704 
L 347.47678 133.054142 
L 349.028131 134.587132 
L 350.323438 136.21062 
L 351.417547 137.902913 
L 352.81062 140.511485 
L 355.410621 145.634977 
L 356.932743 148.002376 
L 358.096898 149.481111 
L 359.390582 150.875763 
L 361.555108 152.808677 
L 363.916042 154.550502 
L 367.154764 156.569891 
L 370.902996 158.590602 
L 373.381737 159.809564 
L 373.381737 159.809564 
" style="fill:none;stroke:#b2b2b2;stroke-linecap:square;stroke-width:1.5;"/>
   </g>
   <g id="line2d_35">
    <path clip-path="url(#p214e4ec81d)" d="M 57.598531 174.056594 
L 66.532056 171.793239 
L 74.439773 169.553484 
L 81.147491 167.383465 
L 86.175618 165.528615 
L 91.113913 163.468566 
L 95.949477 161.198026 
L 100.711437 158.726691 
L 107.029881 155.176492 
L 121.765522 146.71862 
L 128.898582 142.96357 
L 134.589805 140.187452 
L 140.555276 137.474737 
L 146.706286 134.877466 
L 152.90401 132.470116 
L 159.000095 130.334204 
L 164.881133 128.537646 
L 170.494408 127.118729 
L 175.844714 126.080122 
L 180.969749 125.392215 
L 185.912046 125.00201 
L 190.703836 124.84406 
L 196.903333 124.879573 
L 205.99446 125.19605 
L 223.625666 125.850524 
L 234.50904 126.040471 
L 246.691726 126.038764 
L 265.428058 125.770978 
L 290.783137 125.43023 
L 302.954575 125.504406 
L 312.23289 125.78493 
L 318.855871 126.168882 
L 325.078369 126.740784 
L 330.756903 127.542009 
L 334.169114 128.225347 
L 337.243954 129.04263 
L 339.963526 130.004171 
L 342.326083 131.116552 
L 344.346168 132.380881 
L 346.053142 133.791222 
L 347.488669 135.333627 
L 348.703657 136.986151 
L 350.237809 139.60738 
L 354.000082 146.659662 
L 355.731255 149.082554 
L 357.052318 150.594642 
L 358.507965 152.020041 
L 360.907493 153.993434 
L 363.472361 155.766596 
L 366.906822 157.809172 
L 370.769638 159.828824 
L 372.695106 160.762631 
L 372.695106 160.762631 
" style="fill:none;stroke:#b2b2b2;stroke-linecap:square;stroke-width:1.5;"/>
   </g>
   <g id="line2d_36">
    <path clip-path="url(#p214e4ec81d)" d="M 57.611491 173.826588 
L 66.260738 171.959495 
L 72.327093 170.464168 
L 78.788736 168.617351 
L 83.682703 166.977963 
L 88.51247 165.099287 
L 93.249939 162.967282 
L 97.915987 160.583665 
L 102.557881 157.973945 
L 110.395065 153.259828 
L 120.332384 147.323843 
L 127.542125 143.334603 
L 133.336781 140.36172 
L 139.440921 137.444626 
L 145.75879 134.649352 
L 152.142596 132.067568 
L 158.434787 129.798558 
L 164.514039 127.925171 
L 168.416891 126.921177 
L 172.195721 126.118188 
L 175.857158 125.5108 
L 179.412123 125.08589 
L 184.568923 124.746816 
L 189.538445 124.690319 
L 195.900526 124.895697 
L 217.074205 125.902463 
L 225.123325 125.960896 
L 235.709507 125.783748 
L 249.922864 125.268084 
L 276.464635 123.989962 
L 298.524999 123.013369 
L 309.926953 122.753984 
L 316.392487 122.791344 
L 322.478566 123.045939 
L 326.265464 123.37191 
L 329.792291 123.849072 
L 333.027798 124.49882 
L 335.951542 125.339498 
L 338.556741 126.384273 
L 340.851041 127.638959 
L 342.855512 129.100064 
L 344.602472 130.753428 
L 346.132732 132.573885 
L 347.492713 134.526337 
L 349.321264 137.608626 
L 352.803492 143.777827 
L 354.720007 146.627446 
L 356.119307 148.39364 
L 357.62409 150.044562 
L 360.060543 152.302334 
L 362.643455 154.301914 
L 365.256449 156.049057 
L 368.56053 157.994087 
L 372.646656 160.132356 
L 372.646656 160.132356 
" style="fill:none;stroke:#b2b2b2;stroke-linecap:square;stroke-width:1.5;"/>
   </g>
   <g id="line2d_37">
    <path clip-path="url(#p214e4ec81d)" d="M 57.130983 174.791714 
L 66.020751 172.369437 
L 73.886436 170.011784 
L 80.555733 167.767667 
L 85.553933 165.879007 
L 90.463571 163.808212 
L 95.275178 161.550613 
L 101.601111 158.264487 
L 111.179103 152.899199 
L 119.58572 148.252866 
L 126.840088 144.522006 
L 132.679605 141.73721 
L 138.858915 138.987938 
L 145.297385 136.321817 
L 151.849333 133.813174 
L 158.341589 131.550326 
L 164.623241 129.614331 
L 170.602302 128.059518 
L 176.25256 126.90337 
L 181.592689 126.126948 
L 186.654629 125.682564 
L 191.460915 125.504804 
L 197.489363 125.559481 
L 204.477398 125.885087 
L 221.985812 126.837213 
L 229.733467 126.95911 
L 238.790889 126.83202 
L 249.558637 126.439338 
L 286.382768 124.900963 
L 296.941678 124.787606 
L 304.548436 124.904045 
L 311.85042 125.218352 
L 318.793942 125.746837 
L 325.278754 126.504185 
L 329.280217 127.144346 
L 332.975355 127.899472 
L 336.328883 128.775978 
L 339.31729 129.780055 
L 341.932142 130.916392 
L 344.181203 132.186505 
L 346.087664 133.586939 
L 347.688045 135.107759 
L 349.029346 136.731778 
L 350.165838 138.434914 
L 351.614224 141.072956 
L 354.286218 146.267736 
L 355.82132 148.66121 
L 356.985195 150.150454 
L 358.271787 151.54951 
L 360.414338 153.477867 
L 362.742632 155.20367 
L 365.928295 157.189805 
L 369.608337 159.162315 
L 372.039545 160.345778 
L 372.039545 160.345778 
" style="fill:none;stroke:#b2b2b2;stroke-linecap:square;stroke-width:1.5;"/>
   </g>
   <g id="line2d_38">
    <path clip-path="url(#p214e4ec81d)" d="M 58.293263 174.567953 
L 67.393166 172.410425 
L 75.452042 170.260284 
L 82.291889 168.161346 
L 87.421713 166.355264 
L 92.461638 164.337848 
L 97.396792 162.10251 
L 102.253735 159.658088 
L 108.685034 156.129624 
L 127.058249 145.751066 
L 134.40159 141.973859 
L 142.195676 138.279882 
L 148.237663 135.636339 
L 154.301589 133.189697 
L 160.24191 131.0283 
L 165.946834 129.225697 
L 171.363956 127.823351 
L 176.497782 126.823685 
L 181.386281 126.192918 
L 186.073757 125.87004 
L 190.595848 125.778665 
L 196.420043 125.880941 
L 219.982133 126.565891 
L 240.331685 126.661432 
L 285.647984 126.687469 
L 322.792218 126.555013 
L 328.413752 126.861254 
L 331.832305 127.215281 
L 334.959643 127.716308 
L 337.78187 128.384068 
L 340.296984 129.233054 
L 342.515554 130.270664 
L 344.459799 131.49562 
L 346.161595 132.896941 
L 347.659996 134.45382 
L 348.998647 136.136695 
L 350.807287 138.817658 
L 354.851938 145.154478 
L 356.786539 147.676357 
L 358.928843 150.01216 
L 361.267113 152.148381 
L 363.734192 154.079499 
L 367.034244 156.323455 
L 370.781333 158.572597 
L 373.232549 159.930572 
L 373.232549 159.930572 
" style="fill:none;stroke:#b2b2b2;stroke-linecap:square;stroke-width:1.5;"/>
   </g>
   <g id="line2d_39">
    <path clip-path="url(#p214e4ec81d)" d="M 57.597001 174.413113 
L 66.580442 172.21709 
L 72.868756 170.496197 
L 79.549576 168.417086 
L 84.592909 166.610532 
L 89.551538 164.578426 
L 94.393935 162.312303 
L 99.140638 159.819027 
L 105.407493 156.19917 
L 119.974145 147.52816 
L 125.227102 144.672591 
L 130.790061 141.880312 
L 136.680307 139.165967 
L 142.848216 136.557489 
L 149.175918 134.104534 
L 155.505049 131.87332 
L 161.683221 129.930714 
L 167.605951 128.326298 
L 173.233507 127.080788 
L 178.578414 126.183908 
L 183.676316 125.599704 
L 188.559695 125.27555 
L 194.770988 125.145162 
L 202.123593 125.284208 
L 214.980283 125.849599 
L 225.789102 126.250085 
L 236.375301 126.397628 
L 246.575594 126.319976 
L 263.226953 125.930671 
L 291.738207 125.211791 
L 304.031978 125.142903 
L 313.320536 125.32478 
L 319.889893 125.651577 
L 326.002618 126.188451 
L 329.75802 126.686879 
L 333.213647 127.314902 
L 336.341309 128.086239 
L 339.12592 129.01212 
L 341.567507 130.09957 
L 343.681163 131.349619 
L 345.495461 132.755751 
L 347.049911 134.302968 
L 348.391995 135.967882 
L 350.122136 138.618077 
L 354.896651 146.602084 
L 356.79724 148.989597 
L 358.953153 151.176816 
L 361.331146 153.158377 
L 363.840241 154.932738 
L 367.168308 156.969432 
L 371.536035 159.306968 
L 372.731263 159.901873 
L 372.731263 159.901873 
" style="fill:none;stroke:#ff0000;stroke-linecap:square;stroke-width:1.5;"/>
   </g>
   <g id="line2d_40">
    <defs>
     <path d="M 0 -9 
L -2.020626 -2.781153 
L -8.559509 -2.781153 
L -3.269441 1.062306 
L -5.290067 7.281153 
L -0 3.437694 
L 5.290067 7.281153 
L 3.269441 1.062306 
L 8.559509 -2.781153 
L 2.020626 -2.781153 
z
" id="m24b93ab096" style="stroke:#000000;stroke-linejoin:bevel;stroke-width:2;"/>
    </defs>
    <g clip-path="url(#p214e4ec81d)">
     <use style="stroke:#000000;stroke-linejoin:bevel;stroke-width:2;" x="57.597001" xlink:href="#m24b93ab096" y="174.413113"/>
    </g>
   </g>
   <g id="line2d_41">
    <defs>
     <path d="M 0 9 
C 2.386828 9 4.676219 8.051703 6.363961 6.363961 
C 8.051703 4.676219 9 2.386828 9 0 
C 9 -2.386828 8.051703 -4.676219 6.363961 -6.363961 
C 4.676219 -8.051703 2.386828 -9 0 -9 
C -2.386828 -9 -4.676219 -8.051703 -6.363961 -6.363961 
C -8.051703 -4.676219 -9 -2.386828 -9 0 
C -9 2.386828 -8.051703 4.676219 -6.363961 6.363961 
C -4.676219 8.051703 -2.386828 9 0 9 
z
" id="maa67bbe761" style="stroke:#bf00bf;stroke-width:2;"/>
    </defs>
    <g clip-path="url(#p214e4ec81d)">
     <use style="fill:#bf00bf;stroke:#bf00bf;stroke-width:2;" x="57.763326" xlink:href="#maa67bbe761" y="174.484167"/>
    </g>
   </g>
   <g id="patch_3">
    <path d="M 57.6 307.584 
L 57.6 41.472 
" style="fill:none;stroke:#000000;stroke-linecap:square;stroke-linejoin:miter;stroke-width:0.8;"/>
   </g>
   <g id="patch_4">
    <path d="M 414.72 307.584 
L 414.72 41.472 
" style="fill:none;stroke:#000000;stroke-linecap:square;stroke-linejoin:miter;stroke-width:0.8;"/>
   </g>
   <g id="patch_5">
    <path d="M 57.6 307.584 
L 414.72 307.584 
" style="fill:none;stroke:#000000;stroke-linecap:square;stroke-linejoin:miter;stroke-width:0.8;"/>
   </g>
   <g id="patch_6">
    <path d="M 57.6 41.472 
L 414.72 41.472 
" style="fill:none;stroke:#000000;stroke-linecap:square;stroke-linejoin:miter;stroke-width:0.8;"/>
   </g>
   <g id="text_15">
    <!-- Frame 0 -->
    <defs>
     <path d="M 9.8125 72.90625 
L 51.703125 72.90625 
L 51.703125 64.59375 
L 19.671875 64.59375 
L 19.671875 43.109375 
L 48.578125 43.109375 
L 48.578125 34.8125 
L 19.671875 34.8125 
L 19.671875 0 
L 9.8125 0 
z
" id="DejaVuSans-46"/>
     <path d="M 41.109375 46.296875 
Q 39.59375 47.171875 37.8125 47.578125 
Q 36.03125 48 33.890625 48 
Q 26.265625 48 22.1875 43.046875 
Q 18.109375 38.09375 18.109375 28.8125 
L 18.109375 0 
L 9.078125 0 
L 9.078125 54.6875 
L 18.109375 54.6875 
L 18.109375 46.1875 
Q 20.953125 51.171875 25.484375 53.578125 
Q 30.03125 56 36.53125 56 
Q 37.453125 56 38.578125 55.875 
Q 39.703125 55.765625 41.0625 55.515625 
z
" id="DejaVuSans-72"/>
     <path d="M 34.28125 27.484375 
Q 23.390625 27.484375 19.1875 25 
Q 14.984375 22.515625 14.984375 16.5 
Q 14.984375 11.71875 18.140625 8.90625 
Q 21.296875 6.109375 26.703125 6.109375 
Q 34.1875 6.109375 38.703125 11.40625 
Q 43.21875 16.703125 43.21875 25.484375 
L 43.21875 27.484375 
z
M 52.203125 31.203125 
L 52.203125 0 
L 43.21875 0 
L 43.21875 8.296875 
Q 40.140625 3.328125 35.546875 0.953125 
Q 30.953125 -1.421875 24.3125 -1.421875 
Q 15.921875 -1.421875 10.953125 3.296875 
Q 6 8.015625 6 15.921875 
Q 6 25.140625 12.171875 29.828125 
Q 18.359375 34.515625 30.609375 34.515625 
L 43.21875 34.515625 
L 43.21875 35.40625 
Q 43.21875 41.609375 39.140625 45 
Q 35.0625 48.390625 27.6875 48.390625 
Q 23 48.390625 18.546875 47.265625 
Q 14.109375 46.140625 10.015625 43.890625 
L 10.015625 52.203125 
Q 14.9375 54.109375 19.578125 55.046875 
Q 24.21875 56 28.609375 56 
Q 40.484375 56 46.34375 49.84375 
Q 52.203125 43.703125 52.203125 31.203125 
z
" id="DejaVuSans-61"/>
     <path d="M 52 44.1875 
Q 55.375 50.25 60.0625 53.125 
Q 64.75 56 71.09375 56 
Q 79.640625 56 84.28125 50.015625 
Q 88.921875 44.046875 88.921875 33.015625 
L 88.921875 0 
L 79.890625 0 
L 79.890625 32.71875 
Q 79.890625 40.578125 77.09375 44.375 
Q 74.3125 48.1875 68.609375 48.1875 
Q 61.625 48.1875 57.5625 43.546875 
Q 53.515625 38.921875 53.515625 30.90625 
L 53.515625 0 
L 44.484375 0 
L 44.484375 32.71875 
Q 44.484375 40.625 41.703125 44.40625 
Q 38.921875 48.1875 33.109375 48.1875 
Q 26.21875 48.1875 22.15625 43.53125 
Q 18.109375 38.875 18.109375 30.90625 
L 18.109375 0 
L 9.078125 0 
L 9.078125 54.6875 
L 18.109375 54.6875 
L 18.109375 46.1875 
Q 21.1875 51.21875 25.484375 53.609375 
Q 29.78125 56 35.6875 56 
Q 41.65625 56 45.828125 52.96875 
Q 50 49.953125 52 44.1875 
z
" id="DejaVuSans-6d"/>
     <path d="M 56.203125 29.59375 
L 56.203125 25.203125 
L 14.890625 25.203125 
Q 15.484375 15.921875 20.484375 11.0625 
Q 25.484375 6.203125 34.421875 6.203125 
Q 39.59375 6.203125 44.453125 7.46875 
Q 49.3125 8.734375 54.109375 11.28125 
L 54.109375 2.78125 
Q 49.265625 0.734375 44.1875 -0.34375 
Q 39.109375 -1.421875 33.890625 -1.421875 
Q 20.796875 -1.421875 13.15625 6.1875 
Q 5.515625 13.8125 5.515625 26.8125 
Q 5.515625 40.234375 12.765625 48.109375 
Q 20.015625 56 32.328125 56 
Q 43.359375 56 49.78125 48.890625 
Q 56.203125 41.796875 56.203125 29.59375 
z
M 47.21875 32.234375 
Q 47.125 39.59375 43.09375 43.984375 
Q 39.0625 48.390625 32.421875 48.390625 
Q 24.90625 48.390625 20.390625 44.140625 
Q 15.875 39.890625 15.1875 32.171875 
z
" id="DejaVuSans-65"/>
     <path id="DejaVuSans-20"/>
    </defs>
    <g transform="translate(198.887344 35.472)scale(0.18 -0.18)">
     <use xlink:href="#DejaVuSans-46"/>
     <use x="57.410156" xlink:href="#DejaVuSans-72"/>
     <use x="98.523438" xlink:href="#DejaVuSans-61"/>
     <use x="159.802734" xlink:href="#DejaVuSans-6d"/>
     <use x="257.214844" xlink:href="#DejaVuSans-65"/>
     <use x="318.738281" xlink:href="#DejaVuSans-20"/>
     <use x="350.525391" xlink:href="#DejaVuSans-30"/>
    </g>
   </g>
  </g>
 </g>
 <defs>
  <clipPath id="p214e4ec81d">
   <rect height="266.112" width="357.12" x="57.6" y="41.472"/>
  </clipPath>
 </defs>
</svg>
