<?xml version="1.0" encoding="utf-8" standalone="no"?>
<!DOCTYPE svg PUBLIC "-//W3C//DTD SVG 1.1//EN"
  "http://www.w3.org/Graphics/SVG/1.1/DTD/svg11.dtd">
<!-- Created with matplotlib (http://matplotlib.org/) -->
<svg height="345pt" version="1.1" viewBox="0 0 460 345" width="460pt" xmlns="http://www.w3.org/2000/svg" xmlns:xlink="http://www.w3.org/1999/xlink">
 <defs>
  <style type="text/css">
*{stroke-linecap:butt;stroke-linejoin:round;}
  </style>
 </defs>
 <g id="figure_1">
  <g id="patch_1">
   <path d="M 0 345.6 
L 460.8 345.6 
L 460.8 0 
L 0 0 
z
" style="fill:#ffffff;"/>
  </g>
  <g id="axes_1">
   <g id="patch_2">
    <path d="M 57.6 307.584 
L 414.72 307.584 
L 414.72 41.472 
L 57.6 41.472 
z
" style="fill:#ffffff;"/>
   </g>
   <g id="matplotlib.axis_1">
    <g id="xtick_1">
     <g id="line2d_1">
      <path clip-path="url(#p22df5cb531)" d="M 57.6 307.584 
L 57.6 41.472 
" style="fill:none;stroke:#b0b0b0;stroke-linecap:square;stroke-width:0.8;"/>
     </g>
     <g id="line2d_2">
      <defs>
       <path d="M 0 0 
L 0 3.5 
" id="med16874d0c" style="stroke:#000000;stroke-width:0.8;"/>
      </defs>
      <g>
       <use style="stroke:#000000;stroke-width:0.8;" x="57.6" xlink:href="#med16874d0c" y="307.584"/>
      </g>
     </g>
     <g id="text_1">
      <!-- 0 -->
      <defs>
       <path d="M 31.78125 66.40625 
Q 24.171875 66.40625 20.328125 58.90625 
Q 16.5 51.421875 16.5 36.375 
Q 16.5 21.390625 20.328125 13.890625 
Q 24.171875 6.390625 31.78125 6.390625 
Q 39.453125 6.390625 43.28125 13.890625 
Q 47.125 21.390625 47.125 36.375 
Q 47.125 51.421875 43.28125 58.90625 
Q 39.453125 66.40625 31.78125 66.40625 
z
M 31.78125 74.21875 
Q 44.046875 74.21875 50.515625 64.515625 
Q 56.984375 54.828125 56.984375 36.375 
Q 56.984375 17.96875 50.515625 8.265625 
Q 44.046875 -1.421875 31.78125 -1.421875 
Q 19.53125 -1.421875 13.0625 8.265625 
Q 6.59375 17.96875 6.59375 36.375 
Q 6.59375 54.828125 13.0625 64.515625 
Q 19.53125 74.21875 31.78125 74.21875 
z
" id="DejaVuSans-30"/>
      </defs>
      <g transform="translate(54.41875 322.182437)scale(0.1 -0.1)">
       <use xlink:href="#DejaVuSans-30"/>
      </g>
     </g>
    </g>
    <g id="xtick_2">
     <g id="line2d_3">
      <path clip-path="url(#p22df5cb531)" d="M 129.024 307.584 
L 129.024 41.472 
" style="fill:none;stroke:#b0b0b0;stroke-linecap:square;stroke-width:0.8;"/>
     </g>
     <g id="line2d_4">
      <g>
       <use style="stroke:#000000;stroke-width:0.8;" x="129.024" xlink:href="#med16874d0c" y="307.584"/>
      </g>
     </g>
     <g id="text_2">
      <!-- 2 -->
      <defs>
       <path d="M 19.1875 8.296875 
L 53.609375 8.296875 
L 53.609375 0 
L 7.328125 0 
L 7.328125 8.296875 
Q 12.9375 14.109375 22.625 23.890625 
Q 32.328125 33.6875 34.8125 36.53125 
Q 39.546875 41.84375 41.421875 45.53125 
Q 43.3125 49.21875 43.3125 52.78125 
Q 43.3125 58.59375 39.234375 62.25 
Q 35.15625 65.921875 28.609375 65.921875 
Q 23.96875 65.921875 18.8125 64.3125 
Q 13.671875 62.703125 7.8125 59.421875 
L 7.8125 69.390625 
Q 13.765625 71.78125 18.9375 73 
Q 24.125 74.21875 28.421875 74.21875 
Q 39.75 74.21875 46.484375 68.546875 
Q 53.21875 62.890625 53.21875 53.421875 
Q 53.21875 48.921875 51.53125 44.890625 
Q 49.859375 40.875 45.40625 35.40625 
Q 44.1875 33.984375 37.640625 27.21875 
Q 31.109375 20.453125 19.1875 8.296875 
z
" id="DejaVuSans-32"/>
      </defs>
      <g transform="translate(125.84275 322.182437)scale(0.1 -0.1)">
       <use xlink:href="#DejaVuSans-32"/>
      </g>
     </g>
    </g>
    <g id="xtick_3">
     <g id="line2d_5">
      <path clip-path="url(#p22df5cb531)" d="M 200.448 307.584 
L 200.448 41.472 
" style="fill:none;stroke:#b0b0b0;stroke-linecap:square;stroke-width:0.8;"/>
     </g>
     <g id="line2d_6">
      <g>
       <use style="stroke:#000000;stroke-width:0.8;" x="200.448" xlink:href="#med16874d0c" y="307.584"/>
      </g>
     </g>
     <g id="text_3">
      <!-- 4 -->
      <defs>
       <path d="M 37.796875 64.3125 
L 12.890625 25.390625 
L 37.796875 25.390625 
z
M 35.203125 72.90625 
L 47.609375 72.90625 
L 47.609375 25.390625 
L 58.015625 25.390625 
L 58.015625 17.1875 
L 47.609375 17.1875 
L 47.609375 0 
L 37.796875 0 
L 37.796875 17.1875 
L 4.890625 17.1875 
L 4.890625 26.703125 
z
" id="DejaVuSans-34"/>
      </defs>
      <g transform="translate(197.26675 322.182437)scale(0.1 -0.1)">
       <use xlink:href="#DejaVuSans-34"/>
      </g>
     </g>
    </g>
    <g id="xtick_4">
     <g id="line2d_7">
      <path clip-path="url(#p22df5cb531)" d="M 271.872 307.584 
L 271.872 41.472 
" style="fill:none;stroke:#b0b0b0;stroke-linecap:square;stroke-width:0.8;"/>
     </g>
     <g id="line2d_8">
      <g>
       <use style="stroke:#000000;stroke-width:0.8;" x="271.872" xlink:href="#med16874d0c" y="307.584"/>
      </g>
     </g>
     <g id="text_4">
      <!-- 6 -->
      <defs>
       <path d="M 33.015625 40.375 
Q 26.375 40.375 22.484375 35.828125 
Q 18.609375 31.296875 18.609375 23.390625 
Q 18.609375 15.53125 22.484375 10.953125 
Q 26.375 6.390625 33.015625 6.390625 
Q 39.65625 6.390625 43.53125 10.953125 
Q 47.40625 15.53125 47.40625 23.390625 
Q 47.40625 31.296875 43.53125 35.828125 
Q 39.65625 40.375 33.015625 40.375 
z
M 52.59375 71.296875 
L 52.59375 62.3125 
Q 48.875 64.0625 45.09375 64.984375 
Q 41.3125 65.921875 37.59375 65.921875 
Q 27.828125 65.921875 22.671875 59.328125 
Q 17.53125 52.734375 16.796875 39.40625 
Q 19.671875 43.65625 24.015625 45.921875 
Q 28.375 48.1875 33.59375 48.1875 
Q 44.578125 48.1875 50.953125 41.515625 
Q 57.328125 34.859375 57.328125 23.390625 
Q 57.328125 12.15625 50.6875 5.359375 
Q 44.046875 -1.421875 33.015625 -1.421875 
Q 20.359375 -1.421875 13.671875 8.265625 
Q 6.984375 17.96875 6.984375 36.375 
Q 6.984375 53.65625 15.1875 63.9375 
Q 23.390625 74.21875 37.203125 74.21875 
Q 40.921875 74.21875 44.703125 73.484375 
Q 48.484375 72.75 52.59375 71.296875 
z
" id="DejaVuSans-36"/>
      </defs>
      <g transform="translate(268.69075 322.182437)scale(0.1 -0.1)">
       <use xlink:href="#DejaVuSans-36"/>
      </g>
     </g>
    </g>
    <g id="xtick_5">
     <g id="line2d_9">
      <path clip-path="url(#p22df5cb531)" d="M 343.296 307.584 
L 343.296 41.472 
" style="fill:none;stroke:#b0b0b0;stroke-linecap:square;stroke-width:0.8;"/>
     </g>
     <g id="line2d_10">
      <g>
       <use style="stroke:#000000;stroke-width:0.8;" x="343.296" xlink:href="#med16874d0c" y="307.584"/>
      </g>
     </g>
     <g id="text_5">
      <!-- 8 -->
      <defs>
       <path d="M 31.78125 34.625 
Q 24.75 34.625 20.71875 30.859375 
Q 16.703125 27.09375 16.703125 20.515625 
Q 16.703125 13.921875 20.71875 10.15625 
Q 24.75 6.390625 31.78125 6.390625 
Q 38.8125 6.390625 42.859375 10.171875 
Q 46.921875 13.96875 46.921875 20.515625 
Q 46.921875 27.09375 42.890625 30.859375 
Q 38.875 34.625 31.78125 34.625 
z
M 21.921875 38.8125 
Q 15.578125 40.375 12.03125 44.71875 
Q 8.5 49.078125 8.5 55.328125 
Q 8.5 64.0625 14.71875 69.140625 
Q 20.953125 74.21875 31.78125 74.21875 
Q 42.671875 74.21875 48.875 69.140625 
Q 55.078125 64.0625 55.078125 55.328125 
Q 55.078125 49.078125 51.53125 44.71875 
Q 48 40.375 41.703125 38.8125 
Q 48.828125 37.15625 52.796875 32.3125 
Q 56.78125 27.484375 56.78125 20.515625 
Q 56.78125 9.90625 50.3125 4.234375 
Q 43.84375 -1.421875 31.78125 -1.421875 
Q 19.734375 -1.421875 13.25 4.234375 
Q 6.78125 9.90625 6.78125 20.515625 
Q 6.78125 27.484375 10.78125 32.3125 
Q 14.796875 37.15625 21.921875 38.8125 
z
M 18.3125 54.390625 
Q 18.3125 48.734375 21.84375 45.5625 
Q 25.390625 42.390625 31.78125 42.390625 
Q 38.140625 42.390625 41.71875 45.5625 
Q 45.3125 48.734375 45.3125 54.390625 
Q 45.3125 60.0625 41.71875 63.234375 
Q 38.140625 66.40625 31.78125 66.40625 
Q 25.390625 66.40625 21.84375 63.234375 
Q 18.3125 60.0625 18.3125 54.390625 
z
" id="DejaVuSans-38"/>
      </defs>
      <g transform="translate(340.11475 322.182437)scale(0.1 -0.1)">
       <use xlink:href="#DejaVuSans-38"/>
      </g>
     </g>
    </g>
    <g id="xtick_6">
     <g id="line2d_11">
      <path clip-path="url(#p22df5cb531)" d="M 414.72 307.584 
L 414.72 41.472 
" style="fill:none;stroke:#b0b0b0;stroke-linecap:square;stroke-width:0.8;"/>
     </g>
     <g id="line2d_12">
      <g>
       <use style="stroke:#000000;stroke-width:0.8;" x="414.72" xlink:href="#med16874d0c" y="307.584"/>
      </g>
     </g>
     <g id="text_6">
      <!-- 10 -->
      <defs>
       <path d="M 12.40625 8.296875 
L 28.515625 8.296875 
L 28.515625 63.921875 
L 10.984375 60.40625 
L 10.984375 69.390625 
L 28.421875 72.90625 
L 38.28125 72.90625 
L 38.28125 8.296875 
L 54.390625 8.296875 
L 54.390625 0 
L 12.40625 0 
z
" id="DejaVuSans-31"/>
      </defs>
      <g transform="translate(408.3575 322.182437)scale(0.1 -0.1)">
       <use xlink:href="#DejaVuSans-31"/>
       <use x="63.623047" xlink:href="#DejaVuSans-30"/>
      </g>
     </g>
    </g>
    <g id="text_7">
     <!-- x -->
     <defs>
      <path d="M 54.890625 54.6875 
L 35.109375 28.078125 
L 55.90625 0 
L 45.3125 0 
L 29.390625 21.484375 
L 13.484375 0 
L 2.875 0 
L 24.125 28.609375 
L 4.6875 54.6875 
L 15.28125 54.6875 
L 29.78125 35.203125 
L 44.28125 54.6875 
z
" id="DejaVuSans-78"/>
     </defs>
     <g transform="translate(230.833125 341.939312)scale(0.18 -0.18)">
      <use xlink:href="#DejaVuSans-78"/>
     </g>
    </g>
   </g>
   <g id="matplotlib.axis_2">
    <g id="ytick_1">
     <g id="line2d_13">
      <path clip-path="url(#p22df5cb531)" d="M 57.6 307.584 
L 414.72 307.584 
" style="fill:none;stroke:#b0b0b0;stroke-linecap:square;stroke-width:0.8;"/>
     </g>
     <g id="line2d_14">
      <defs>
       <path d="M 0 0 
L -3.5 0 
" id="m1c855f9fae" style="stroke:#000000;stroke-width:0.8;"/>
      </defs>
      <g>
       <use style="stroke:#000000;stroke-width:0.8;" x="57.6" xlink:href="#m1c855f9fae" y="307.584"/>
      </g>
     </g>
     <g id="text_8">
      <!-- 0 -->
      <g transform="translate(44.2375 311.383219)scale(0.1 -0.1)">
       <use xlink:href="#DejaVuSans-30"/>
      </g>
     </g>
    </g>
    <g id="ytick_2">
     <g id="line2d_15">
      <path clip-path="url(#p22df5cb531)" d="M 57.6 254.3616 
L 414.72 254.3616 
" style="fill:none;stroke:#b0b0b0;stroke-linecap:square;stroke-width:0.8;"/>
     </g>
     <g id="line2d_16">
      <g>
       <use style="stroke:#000000;stroke-width:0.8;" x="57.6" xlink:href="#m1c855f9fae" y="254.3616"/>
      </g>
     </g>
     <g id="text_9">
      <!-- 2 -->
      <g transform="translate(44.2375 258.160819)scale(0.1 -0.1)">
       <use xlink:href="#DejaVuSans-32"/>
      </g>
     </g>
    </g>
    <g id="ytick_3">
     <g id="line2d_17">
      <path clip-path="url(#p22df5cb531)" d="M 57.6 201.1392 
L 414.72 201.1392 
" style="fill:none;stroke:#b0b0b0;stroke-linecap:square;stroke-width:0.8;"/>
     </g>
     <g id="line2d_18">
      <g>
       <use style="stroke:#000000;stroke-width:0.8;" x="57.6" xlink:href="#m1c855f9fae" y="201.1392"/>
      </g>
     </g>
     <g id="text_10">
      <!-- 4 -->
      <g transform="translate(44.2375 204.938419)scale(0.1 -0.1)">
       <use xlink:href="#DejaVuSans-34"/>
      </g>
     </g>
    </g>
    <g id="ytick_4">
     <g id="line2d_19">
      <path clip-path="url(#p22df5cb531)" d="M 57.6 147.9168 
L 414.72 147.9168 
" style="fill:none;stroke:#b0b0b0;stroke-linecap:square;stroke-width:0.8;"/>
     </g>
     <g id="line2d_20">
      <g>
       <use style="stroke:#000000;stroke-width:0.8;" x="57.6" xlink:href="#m1c855f9fae" y="147.9168"/>
      </g>
     </g>
     <g id="text_11">
      <!-- 6 -->
      <g transform="translate(44.2375 151.716019)scale(0.1 -0.1)">
       <use xlink:href="#DejaVuSans-36"/>
      </g>
     </g>
    </g>
    <g id="ytick_5">
     <g id="line2d_21">
      <path clip-path="url(#p22df5cb531)" d="M 57.6 94.6944 
L 414.72 94.6944 
" style="fill:none;stroke:#b0b0b0;stroke-linecap:square;stroke-width:0.8;"/>
     </g>
     <g id="line2d_22">
      <g>
       <use style="stroke:#000000;stroke-width:0.8;" x="57.6" xlink:href="#m1c855f9fae" y="94.6944"/>
      </g>
     </g>
     <g id="text_12">
      <!-- 8 -->
      <g transform="translate(44.2375 98.493619)scale(0.1 -0.1)">
       <use xlink:href="#DejaVuSans-38"/>
      </g>
     </g>
    </g>
    <g id="ytick_6">
     <g id="line2d_23">
      <path clip-path="url(#p22df5cb531)" d="M 57.6 41.472 
L 414.72 41.472 
" style="fill:none;stroke:#b0b0b0;stroke-linecap:square;stroke-width:0.8;"/>
     </g>
     <g id="line2d_24">
      <g>
       <use style="stroke:#000000;stroke-width:0.8;" x="57.6" xlink:href="#m1c855f9fae" y="41.472"/>
      </g>
     </g>
     <g id="text_13">
      <!-- 10 -->
      <g transform="translate(37.875 45.271219)scale(0.1 -0.1)">
       <use xlink:href="#DejaVuSans-31"/>
       <use x="63.623047" xlink:href="#DejaVuSans-30"/>
      </g>
     </g>
    </g>
    <g id="text_14">
     <!-- y -->
     <defs>
      <path d="M 32.171875 -5.078125 
Q 28.375 -14.84375 24.75 -17.8125 
Q 21.140625 -20.796875 15.09375 -20.796875 
L 7.90625 -20.796875 
L 7.90625 -13.28125 
L 13.1875 -13.28125 
Q 16.890625 -13.28125 18.9375 -11.515625 
Q 21 -9.765625 23.484375 -3.21875 
L 25.09375 0.875 
L 2.984375 54.6875 
L 12.5 54.6875 
L 29.59375 11.921875 
L 46.6875 54.6875 
L 56.203125 54.6875 
z
" id="DejaVuSans-79"/>
     </defs>
     <g transform="translate(30.131563 179.854875)rotate(-90)scale(0.18 -0.18)">
      <use xlink:href="#DejaVuSans-79"/>
     </g>
    </g>
   </g>
   <g id="line2d_25">
    <defs>
     <path d="M -9 9 
L 9 -9 
M -9 -9 
L 9 9 
" id="medb669a0d6" style="stroke:#008000;stroke-width:2;"/>
    </defs>
    <g clip-path="url(#p22df5cb531)">
     <use style="fill:#008000;stroke:#008000;stroke-width:2;" x="57.6" xlink:href="#medb669a0d6" y="174.528"/>
    </g>
   </g>
   <g id="line2d_26">
    <path clip-path="url(#p22df5cb531)" d="M 260.904167 41.472 
L 260.904167 171.294342 
L 332.328167 171.294342 
L 332.328167 41.472 
L 260.904167 41.472 
" style="fill:none;stroke:#0000ff;stroke-linecap:square;stroke-width:2;"/>
   </g>
   <g id="line2d_27">
    <path clip-path="url(#p22df5cb531)" d="M 260.904167 224.516742 
L 260.904167 307.584 
L 332.328167 307.584 
L 332.328167 224.516742 
L 260.904167 224.516742 
" style="fill:none;stroke:#0000ff;stroke-linecap:square;stroke-width:2;"/>
   </g>
   <g id="line2d_28">
    <defs>
     <path d="M -9 9 
L 9 -9 
M -9 -9 
L 9 9 
" id="mbc709a6516" style="stroke:#ff0000;stroke-width:2;"/>
    </defs>
    <g clip-path="url(#p22df5cb531)">
     <use style="fill:#ff0000;stroke:#ff0000;stroke-width:2;" x="362.081044" xlink:href="#mbc709a6516" y="277.012206"/>
    </g>
   </g>
   <g id="line2d_29">
    <path clip-path="url(#p22df5cb531)" d="M 57.327717 174.706167 
L 81.649631 175.239904 
L 98.087254 175.37055 
L 111.7112 175.470832 
L 117.343531 175.758536 
L 121.635213 176.180674 
L 126.114778 176.830095 
L 130.881874 177.733102 
L 137.781351 179.326723 
L 147.208282 181.806248 
L 165.030183 186.581338 
L 172.801003 188.455372 
L 180.401392 190.09537 
L 189.605346 191.845108 
L 201.468091 193.846987 
L 214.479374 195.846737 
L 221.415882 196.688815 
L 227.552417 197.156069 
L 232.842264 197.339761 
L 238.961839 197.352264 
L 248.701416 197.091409 
L 266.839233 196.255813 
L 280.644937 195.679421 
L 291.262116 195.443319 
L 298.221789 195.456693 
L 304.954608 195.652066 
L 311.375032 196.062549 
L 317.425664 196.713689 
L 323.074671 197.621833 
L 328.30934 198.793129 
L 333.127915 200.223293 
L 337.531909 201.898349 
L 341.520552 203.796484 
L 345.088275 205.890968 
L 348.225204 208.153786 
L 350.919967 210.559291 
L 353.163682 213.08705 
L 354.954055 215.72316 
L 356.29878 218.459694 
L 357.217854 221.292408 
L 357.744729 224.217362 
L 357.926306 227.227374 
L 357.821775 230.309337 
L 357.500243 233.443197 
L 356.776803 238.183439 
L 355.551688 245.951744 
L 355.241387 248.944743 
L 355.10139 251.851447 
L 355.155146 254.665868 
L 355.409735 257.384768 
L 355.856845 260.004543 
L 356.474786 262.518674 
L 357.649757 266.067305 
L 359.002606 269.302845 
L 360.850812 273.038179 
L 362.896117 276.679163 
L 362.896117 276.679163 
" style="fill:none;stroke:#b2b2b2;stroke-linecap:square;stroke-width:1.5;"/>
   </g>
   <g id="line2d_30">
    <path clip-path="url(#p22df5cb531)" d="M 57.106751 174.338338 
L 78.017543 175.044508 
L 93.426955 175.346359 
L 114.908482 175.62452 
L 119.107839 175.95449 
L 123.453415 176.514289 
L 128.07115 177.350578 
L 133.056832 178.484217 
L 140.338631 180.42894 
L 152.345637 183.959405 
L 164.775057 187.541184 
L 172.899019 189.637915 
L 180.809107 191.410033 
L 188.478499 192.868071 
L 197.557208 194.317061 
L 207.28949 195.62459 
L 215.694537 196.557311 
L 222.281151 197.052095 
L 227.902936 197.209308 
L 232.674246 197.144433 
L 238.173826 196.892379 
L 246.971154 196.244449 
L 280.158749 193.41819 
L 290.471973 192.909097 
L 297.272806 192.79153 
L 303.890727 192.907039 
L 310.245911 193.295531 
L 316.284301 193.986842 
L 321.97461 194.998618 
L 327.301638 196.335011 
L 332.258093 197.986398 
L 336.837099 199.930317 
L 341.02713 202.133843 
L 344.810224 204.557333 
L 348.163439 207.159124 
L 351.062702 209.900331 
L 353.487804 212.748754 
L 355.427306 215.680971 
L 356.214778 217.173598 
L 356.882483 218.68221 
L 357.432991 220.205945 
L 358.1979 223.296085 
L 358.550789 226.438348 
L 358.548618 229.624142 
L 358.261832 232.839501 
L 357.475386 237.673285 
L 355.43591 248.577728 
L 355.118066 251.508913 
L 355.002125 254.340115 
L 355.10538 257.069115 
L 355.427439 259.694643 
L 355.951956 262.213542 
L 356.649435 264.618864 
L 357.93321 267.988516 
L 359.368804 271.028002 
L 361.277902 274.488717 
L 362.96388 277.22903 
L 362.96388 277.22903 
" style="fill:none;stroke:#b2b2b2;stroke-linecap:square;stroke-width:1.5;"/>
   </g>
   <g id="line2d_31">
    <path clip-path="url(#p22df5cb531)" d="M 57.095481 173.721979 
L 93.999096 172.629493 
L 103.201294 172.576437 
L 108.659508 172.764329 
L 112.616824 173.085564 
L 116.628963 173.611161 
L 120.850595 174.384715 
L 125.419957 175.439314 
L 132.216587 177.298738 
L 141.873405 180.245183 
L 158.819714 185.475812 
L 167.244937 187.831588 
L 173.379083 189.361121 
L 179.339575 190.671475 
L 187.006237 192.100867 
L 194.281541 193.223186 
L 202.633178 194.292776 
L 211.474616 195.217829 
L 218.272936 195.74824 
L 223.874161 196.002581 
L 230.152973 196.061495 
L 237.632615 195.875426 
L 246.775325 195.420784 
L 280.969736 193.504013 
L 291.543221 193.267636 
L 298.505184 193.315293 
L 305.271236 193.575272 
L 311.759396 194.082395 
L 317.913974 194.862923 
L 323.70252 195.932547 
L 329.10901 197.295047 
L 334.125481 198.941839 
L 338.744366 200.852679 
L 342.953292 202.99772 
L 346.733229 205.340921 
L 350.059958 207.84438 
L 352.908019 210.472822 
L 355.255873 213.197259 
L 356.237846 214.588671 
L 357.09105 215.996988 
L 357.816039 217.4209 
L 358.414393 218.85949 
L 358.888775 220.31213 
L 359.242964 221.778367 
L 359.611513 224.749966 
L 359.572519 227.769673 
L 359.194754 230.828922 
L 358.560286 233.913755 
L 357.326916 238.546826 
L 355.638858 244.622995 
L 354.95924 247.576895 
L 354.471402 250.459563 
L 354.213669 253.265935 
L 354.204343 255.993655 
L 354.442387 258.640161 
L 354.909427 261.199931 
L 355.572885 263.662763 
L 356.390039 266.013592 
L 357.798234 269.288988 
L 359.770286 273.09186 
L 361.987302 276.817084 
L 361.987302 276.817084 
" style="fill:none;stroke:#b2b2b2;stroke-linecap:square;stroke-width:1.5;"/>
   </g>
   <g id="line2d_32">
    <path clip-path="url(#p22df5cb531)" d="M 57.625591 175.355581 
L 78.010412 175.029949 
L 91.276878 174.61212 
L 105.737165 173.885797 
L 112.697162 173.653136 
L 116.783024 173.713722 
L 120.960658 174.004543 
L 125.355669 174.579793 
L 130.072082 175.471333 
L 135.169662 176.679615 
L 142.540845 178.71666 
L 154.37766 182.310667 
L 168.237301 186.495188 
L 177.791724 189.135071 
L 187.032458 191.424873 
L 195.824797 193.358134 
L 203.96995 194.911814 
L 210.041929 195.871086 
L 215.935906 196.579094 
L 221.984665 197.032407 
L 226.859733 197.194529 
L 232.222672 197.190397 
L 240.440848 196.907902 
L 250.205031 196.314738 
L 281.330392 194.22937 
L 291.622071 193.872977 
L 298.396286 193.837584 
L 304.986725 194.012946 
L 311.319619 194.434429 
L 317.345181 195.128712 
L 323.034452 196.111863 
L 328.372603 197.388137 
L 333.350837 198.949636 
L 337.959097 200.777102 
L 342.181298 202.842004 
L 345.99393 205.109885 
L 349.367999 207.544577 
L 352.273394 210.11252 
L 354.684404 212.786242 
L 355.699028 214.156343 
L 356.585106 215.546193 
L 357.342892 216.954548 
L 357.973717 218.380522 
L 358.480045 219.823485 
L 358.865502 221.282942 
L 359.294148 224.249324 
L 359.311668 227.274009 
L 358.986807 230.346872 
L 358.401903 233.45198 
L 357.237645 238.122987 
L 355.294968 245.748561 
L 354.746071 248.68783 
L 354.410464 251.547556 
L 354.316801 254.323629 
L 354.473712 257.013726 
L 354.871141 259.614319 
L 355.482926 262.118281 
L 356.270437 264.513799 
L 357.678222 267.868147 
L 359.210281 270.88176 
L 361.196609 274.285887 
L 362.515051 276.353818 
L 362.515051 276.353818 
" style="fill:none;stroke:#b2b2b2;stroke-linecap:square;stroke-width:1.5;"/>
   </g>
   <g id="line2d_33">
    <path clip-path="url(#p22df5cb531)" d="M 58.22574 174.610298 
L 90.651774 174.045463 
L 108.301475 173.746089 
L 113.723479 173.859771 
L 117.719544 174.118092 
L 121.813818 174.577988 
L 126.141949 175.280044 
L 130.81527 176.248536 
L 137.685275 177.949238 
L 147.214225 180.599263 
L 169.507622 186.916681 
L 179.418899 189.447916 
L 189.041376 191.672076 
L 199.853498 193.923128 
L 209.386446 195.673648 
L 216.462086 196.729091 
L 221.972142 197.298037 
L 226.312444 197.547346 
L 231.072372 197.624177 
L 236.474625 197.508825 
L 245.023889 197.037204 
L 258.269215 195.986515 
L 277.4883 194.447654 
L 287.788025 193.845266 
L 294.634846 193.609474 
L 301.33156 193.559503 
L 307.785155 193.735844 
L 313.928369 194.171474 
L 319.719352 194.889793 
L 325.136776 195.903286 
L 330.172275 197.212976 
L 334.822434 198.808835 
L 339.082312 200.671294 
L 342.941788 202.773911 
L 346.38516 205.086974 
L 349.393523 207.581452 
L 351.94893 210.232485 
L 353.052587 211.610643 
L 354.039075 213.021514 
L 354.908429 214.463799 
L 355.661506 215.936507 
L 356.300049 217.438852 
L 356.826735 218.970143 
L 357.560053 222.116444 
L 357.902042 225.366727 
L 357.907851 228.706026 
L 357.64519 232.111029 
L 356.917628 237.271128 
L 355.055966 248.905357 
L 354.78476 251.986597 
L 354.709608 254.928748 
L 354.846787 257.72718 
L 355.195544 260.381076 
L 355.739714 262.890248 
L 356.450398 265.252728 
L 357.743847 268.510199 
L 359.180078 271.401387 
L 361.081825 274.646752 
L 362.75682 277.18706 
L 362.75682 277.18706 
" style="fill:none;stroke:#b2b2b2;stroke-linecap:square;stroke-width:1.5;"/>
   </g>
   <g id="line2d_34">
    <path clip-path="url(#p22df5cb531)" d="M 58.430533 175.123557 
L 78.943336 176.196571 
L 92.208396 176.684477 
L 103.591685 176.878635 
L 113.225716 177.080546 
L 117.165875 177.34333 
L 121.187095 177.807076 
L 125.419822 178.526086 
L 129.973171 179.531683 
L 136.649346 181.310365 
L 147.856065 184.654061 
L 157.806952 187.582563 
L 165.844097 189.708283 
L 171.849734 191.089746 
L 177.827432 192.271207 
L 185.718471 193.55336 
L 193.383728 194.549116 
L 202.323016 195.47798 
L 211.828208 196.244095 
L 219.050033 196.643055 
L 226.403845 196.805918 
L 233.016851 196.718734 
L 240.82527 196.394795 
L 252.880381 195.648949 
L 274.153874 194.280207 
L 284.270149 193.821182 
L 294.454242 193.621103 
L 301.093601 193.697942 
L 307.506336 193.984732 
L 313.628268 194.510286 
L 319.419261 195.294998 
L 324.858213 196.34946 
L 329.935471 197.67377 
L 334.644907 199.257736 
L 338.977618 201.082155 
L 342.918567 203.121256 
L 346.446571 205.346102 
L 349.537137 207.728412 
L 352.167068 210.243998 
L 354.319559 212.874977 
L 355.214393 214.23002 
L 355.988702 215.610198 
L 356.64399 217.014924 
L 357.182776 218.443761 
L 357.926129 221.372041 
L 358.259661 224.39004 
L 358.239981 227.488093 
L 357.937218 230.649891 
L 357.129096 235.4604 
L 355.276175 244.978903 
L 354.858101 248.033012 
L 354.626759 251.003458 
L 354.608481 253.884307 
L 354.811516 256.672162 
L 355.22719 259.362988 
L 355.832199 261.949529 
L 356.591875 264.420067 
L 357.928621 267.873238 
L 359.368866 270.970037 
L 361.224776 274.462658 
L 362.452339 276.581923 
L 362.452339 276.581923 
" style="fill:none;stroke:#b2b2b2;stroke-linecap:square;stroke-width:1.5;"/>
   </g>
   <g id="line2d_35">
    <path clip-path="url(#p22df5cb531)" d="M 58.069249 173.881584 
L 83.240233 172.684026 
L 94.630322 172.316917 
L 102.863739 172.265019 
L 108.64995 172.45938 
L 112.683769 172.779488 
L 116.610122 173.280596 
L 120.577372 173.993997 
L 124.729939 174.948922 
L 130.766403 176.628467 
L 139.332284 179.345312 
L 156.965949 185.080726 
L 165.075917 187.447402 
L 171.104569 189.004262 
L 177.066435 190.35042 
L 182.948835 191.493146 
L 190.59429 192.740125 
L 199.560955 193.947724 
L 210.460938 195.182552 
L 218.585359 195.930975 
L 224.022479 196.25581 
L 230.100589 196.384429 
L 237.399106 196.255915 
L 246.423521 195.836089 
L 284.220942 193.684177 
L 294.837261 193.45393 
L 301.749153 193.510393 
L 308.409997 193.778762 
L 314.748021 194.289367 
L 320.718117 195.063798 
L 326.296777 196.113532 
L 331.474231 197.439301 
L 336.246106 199.031348 
L 340.606654 200.87078 
L 344.544898 202.932067 
L 348.044142 205.186491 
L 351.084384 207.605992 
L 353.64659 210.166597 
L 354.743951 211.49401 
L 355.71757 212.850594 
L 356.567439 214.235167 
L 357.294416 215.646876 
L 357.900291 217.085102 
L 358.387849 218.549349 
L 358.760894 220.039126 
L 359.183822 223.092585 
L 359.219874 226.237147 
L 358.93474 229.458011 
L 358.406227 232.732869 
L 357.345508 237.68257 
L 355.576281 245.770633 
L 355.08175 248.874157 
L 354.786304 251.879103 
L 354.716621 254.778887 
L 354.880687 257.570328 
L 355.26903 260.250432 
L 355.857115 262.813691 
L 356.608742 265.250679 
L 357.946324 268.640045 
L 359.397815 271.664903 
L 361.276381 275.062371 
L 362.522032 277.117787 
L 362.522032 277.117787 
" style="fill:none;stroke:#b2b2b2;stroke-linecap:square;stroke-width:1.5;"/>
   </g>
   <g id="line2d_36">
    <path clip-path="url(#p22df5cb531)" d="M 57.898065 174.247808 
L 86.137804 174.199486 
L 109.43251 174.100367 
L 115.104234 174.348518 
L 119.35051 174.748154 
L 123.730488 175.39239 
L 128.363056 176.323636 
L 133.341366 177.56083 
L 140.583425 179.657158 
L 152.507616 183.451265 
L 164.911193 187.356139 
L 173.088199 189.709717 
L 181.112348 191.771182 
L 188.936111 193.537747 
L 198.199649 195.356272 
L 206.49096 196.759986 
L 213.624187 197.760813 
L 218.71336 198.280491 
L 223.692532 198.549584 
L 229.116836 198.551149 
L 235.598913 198.258047 
L 243.704111 197.65535 
L 275.821017 195.022569 
L 286.230309 194.484396 
L 293.188019 194.30689 
L 300.022081 194.326491 
L 306.636634 194.582602 
L 312.961836 195.106793 
L 318.953255 195.9205 
L 324.586596 197.033403 
L 329.849741 198.442614 
L 334.734423 200.132901 
L 339.229619 202.078166 
L 343.318018 204.244279 
L 346.975992 206.59306 
L 350.176558 209.086809 
L 352.894198 211.692497 
L 355.110203 214.384679 
L 356.027295 215.757617 
L 356.817401 217.14649 
L 357.481996 218.550354 
L 358.023631 219.968564 
L 358.445957 221.400669 
L 358.952811 224.304994 
L 359.053468 227.25913 
L 358.814533 230.255315 
L 358.315275 233.280773 
L 357.270586 237.835037 
L 355.469046 245.306614 
L 354.945665 248.208621 
L 354.614261 251.048503 
L 354.502619 253.82309 
L 354.619774 256.529891 
L 354.957321 259.164145 
L 355.491871 261.716555 
L 356.188463 264.172408 
L 357.443535 267.632139 
L 358.81633 270.75861 
L 360.601793 274.307509 
L 361.789091 276.470916 
L 361.789091 276.470916 
" style="fill:none;stroke:#b2b2b2;stroke-linecap:square;stroke-width:1.5;"/>
   </g>
   <g id="line2d_37">
    <path clip-path="url(#p22df5cb531)" d="M 56.452001 174.054625 
L 77.196912 174.039984 
L 90.604108 173.825156 
L 103.598619 173.37202 
L 110.596907 173.187377 
L 114.66734 173.242012 
L 118.822515 173.502496 
L 123.207884 174.028522 
L 127.948674 174.860497 
L 133.126688 176.009202 
L 140.724963 177.9835 
L 153.179269 181.537227 
L 165.898203 185.129067 
L 174.136423 187.267187 
L 182.109532 189.13361 
L 191.628991 191.101739 
L 202.027624 192.991106 
L 212.26849 194.627617 
L 218.688213 195.464585 
L 223.856389 195.933629 
L 229.620402 196.197041 
L 236.539353 196.221707 
L 245.103622 195.99606 
L 281.206804 194.694989 
L 291.463426 194.693375 
L 298.188525 194.890865 
L 304.716079 195.286758 
L 310.980993 195.908585 
L 316.941678 196.776085 
L 322.574666 197.899801 
L 327.866679 199.280309 
L 332.806469 200.908287 
L 337.378495 202.765673 
L 341.559796 204.827971 
L 345.320465 207.067543 
L 348.62717 209.45733 
L 351.448517 211.974216 
L 352.669341 213.274744 
L 353.760853 214.601195 
L 354.722139 215.952462 
L 355.553323 217.327765 
L 356.255647 218.726565 
L 356.83152 220.148454 
L 357.284543 221.593046 
L 357.619512 223.059852 
L 357.960302 226.056991 
L 357.914802 229.130078 
L 357.55931 232.262543 
L 356.981496 235.431019 
L 354.065055 249.386961 
L 353.794652 252.288967 
L 353.759944 255.094267 
L 353.97 257.799874 
L 354.41524 260.402628 
L 355.069963 262.896627 
L 355.895957 265.271942 
L 357.353867 268.581849 
L 358.927771 271.541348 
L 360.958396 274.870746 
L 362.302472 276.887326 
L 362.302472 276.887326 
" style="fill:none;stroke:#b2b2b2;stroke-linecap:square;stroke-width:1.5;"/>
   </g>
   <g id="line2d_38">
    <path clip-path="url(#p22df5cb531)" d="M 56.083087 174.372713 
L 73.917894 174.506604 
L 87.012111 174.394525 
L 98.807044 174.044168 
L 109.183154 173.751625 
L 113.481876 173.821846 
L 117.862838 174.115317 
L 122.447165 174.69806 
L 127.342857 175.614468 
L 132.622366 176.87581 
L 138.297885 178.4525 
L 148.442299 181.573816 
L 165.081517 186.759602 
L 173.071482 189.009081 
L 180.756857 190.925844 
L 188.122834 192.525155 
L 196.743063 194.134278 
L 204.508009 195.370502 
L 211.462745 196.28261 
L 216.752758 196.795515 
L 222.235302 197.105296 
L 228.403612 197.178262 
L 235.778232 196.972314 
L 244.818907 196.466515 
L 282.237254 194.01784 
L 292.721648 193.687431 
L 299.557199 193.666352 
L 306.156849 193.847122 
L 312.45261 194.259287 
L 318.401847 194.924277 
L 323.982151 195.854258 
L 329.183519 197.051678 
L 334.000148 198.509638 
L 338.423873 200.213218 
L 342.440592 202.141807 
L 346.030104 204.27222 
L 349.16887 206.582085 
L 351.834594 209.052768 
L 352.984707 210.344066 
L 354.011347 211.671063 
L 354.914264 213.032944 
L 355.694115 214.429127 
L 356.352531 215.859156 
L 356.892166 217.322596 
L 357.31673 218.818904 
L 357.840752 221.906678 
L 357.975025 225.111549 
L 357.785019 228.414502 
L 357.348359 231.787679 
L 356.41882 236.900949 
L 354.848851 245.248095 
L 354.426888 248.433391 
L 354.199986 251.501469 
L 354.194994 254.443707 
L 354.420105 257.256415 
L 354.866026 259.937489 
L 355.508328 262.483494 
L 356.310815 264.887966 
L 357.718172 268.207703 
L 359.231141 271.148923 
L 361.178035 274.43177 
L 362.464718 276.408759 
L 362.464718 276.408759 
" style="fill:none;stroke:#b2b2b2;stroke-linecap:square;stroke-width:1.5;"/>
   </g>
   <g id="line2d_39">
    <path clip-path="url(#p22df5cb531)" d="M 57.57358 174.428078 
L 108.993913 174.243444 
L 114.505754 174.549768 
L 118.637641 174.979646 
L 122.919658 175.632623 
L 127.47731 176.54387 
L 132.405327 177.727648 
L 139.611268 179.697996 
L 167.821321 187.746067 
L 175.727017 189.620242 
L 183.408476 191.173891 
L 190.825402 192.444173 
L 199.535543 193.714764 
L 210.341969 195.060727 
L 218.715275 195.898705 
L 224.428544 196.272099 
L 230.778743 196.435092 
L 236.254486 196.379348 
L 244.869101 196.033088 
L 258.127065 195.198472 
L 277.285327 193.984188 
L 287.551065 193.560569 
L 294.384324 193.446569 
L 301.079857 193.518767 
L 307.548263 193.816332 
L 313.724844 194.371014 
L 319.568993 195.204951 
L 325.05911 196.329135 
L 330.184926 197.742651 
L 334.939494 199.432908 
L 339.312848 201.377055 
L 343.288652 203.544701 
L 346.844245 205.901698 
L 349.953587 208.414422 
L 352.592008 211.053666 
L 354.74145 213.797246 
L 355.630139 215.203363 
L 356.395125 216.63069 
L 357.037883 218.078399 
L 357.560942 219.545877 
L 357.96791 221.032608 
L 358.453442 224.06151 
L 358.544699 227.158394 
L 358.30738 230.311381 
L 357.819702 233.502161 
L 356.808612 238.305809 
L 355.097667 246.138497 
L 354.620117 249.148189 
L 354.339017 252.068607 
L 354.281571 254.894827 
L 354.456198 257.624386 
L 354.853762 260.254199 
L 355.449985 262.778047 
L 356.20885 265.185357 
L 357.555865 268.545357 
L 359.015298 271.554571 
L 360.902391 274.944685 
L 362.153046 277.000158 
L 362.153046 277.000158 
" style="fill:none;stroke:#ff0000;stroke-linecap:square;stroke-width:1.5;"/>
   </g>
   <g id="line2d_40">
    <defs>
     <path d="M 0 -9 
L -2.020626 -2.781153 
L -8.559509 -2.781153 
L -3.269441 1.062306 
L -5.290067 7.281153 
L -0 3.437694 
L 5.290067 7.281153 
L 3.269441 1.062306 
L 8.559509 -2.781153 
L 2.020626 -2.781153 
z
" id="m75549b1eb5" style="stroke:#000000;stroke-linejoin:bevel;stroke-width:2;"/>
    </defs>
    <g clip-path="url(#p22df5cb531)">
     <use style="stroke:#000000;stroke-linejoin:bevel;stroke-width:2;" x="319.568993" xlink:href="#m75549b1eb5" y="195.204951"/>
    </g>
   </g>
   <g id="line2d_41">
    <defs>
     <path d="M 0 9 
C 2.386828 9 4.676219 8.051703 6.363961 6.363961 
C 8.051703 4.676219 9 2.386828 9 0 
C 9 -2.386828 8.051703 -4.676219 6.363961 -6.363961 
C 4.676219 -8.051703 2.386828 -9 0 -9 
C -2.386828 -9 -4.676219 -8.051703 -6.363961 -6.363961 
C -8.051703 -4.676219 -9 -2.386828 -9 0 
C -9 2.386828 -8.051703 4.676219 -6.363961 6.363961 
C -4.676219 8.051703 -2.386828 9 0 9 
z
" id="m4a3f7e1a5a" style="stroke:#bf00bf;stroke-width:2;"/>
    </defs>
    <g clip-path="url(#p22df5cb531)">
     <use style="fill:#bf00bf;stroke:#bf00bf;stroke-width:2;" x="314.282201" xlink:href="#m4a3f7e1a5a" y="199.344202"/>
    </g>
   </g>
   <g id="patch_3">
    <path d="M 57.6 307.584 
L 57.6 41.472 
" style="fill:none;stroke:#000000;stroke-linecap:square;stroke-linejoin:miter;stroke-width:0.8;"/>
   </g>
   <g id="patch_4">
    <path d="M 414.72 307.584 
L 414.72 41.472 
" style="fill:none;stroke:#000000;stroke-linecap:square;stroke-linejoin:miter;stroke-width:0.8;"/>
   </g>
   <g id="patch_5">
    <path d="M 57.6 307.584 
L 414.72 307.584 
" style="fill:none;stroke:#000000;stroke-linecap:square;stroke-linejoin:miter;stroke-width:0.8;"/>
   </g>
   <g id="patch_6">
    <path d="M 57.6 41.472 
L 414.72 41.472 
" style="fill:none;stroke:#000000;stroke-linecap:square;stroke-linejoin:miter;stroke-width:0.8;"/>
   </g>
   <g id="text_15">
    <!-- Frame 133 -->
    <defs>
     <path d="M 9.8125 72.90625 
L 51.703125 72.90625 
L 51.703125 64.59375 
L 19.671875 64.59375 
L 19.671875 43.109375 
L 48.578125 43.109375 
L 48.578125 34.8125 
L 19.671875 34.8125 
L 19.671875 0 
L 9.8125 0 
z
" id="DejaVuSans-46"/>
     <path d="M 41.109375 46.296875 
Q 39.59375 47.171875 37.8125 47.578125 
Q 36.03125 48 33.890625 48 
Q 26.265625 48 22.1875 43.046875 
Q 18.109375 38.09375 18.109375 28.8125 
L 18.109375 0 
L 9.078125 0 
L 9.078125 54.6875 
L 18.109375 54.6875 
L 18.109375 46.1875 
Q 20.953125 51.171875 25.484375 53.578125 
Q 30.03125 56 36.53125 56 
Q 37.453125 56 38.578125 55.875 
Q 39.703125 55.765625 41.0625 55.515625 
z
" id="DejaVuSans-72"/>
     <path d="M 34.28125 27.484375 
Q 23.390625 27.484375 19.1875 25 
Q 14.984375 22.515625 14.984375 16.5 
Q 14.984375 11.71875 18.140625 8.90625 
Q 21.296875 6.109375 26.703125 6.109375 
Q 34.1875 6.109375 38.703125 11.40625 
Q 43.21875 16.703125 43.21875 25.484375 
L 43.21875 27.484375 
z
M 52.203125 31.203125 
L 52.203125 0 
L 43.21875 0 
L 43.21875 8.296875 
Q 40.140625 3.328125 35.546875 0.953125 
Q 30.953125 -1.421875 24.3125 -1.421875 
Q 15.921875 -1.421875 10.953125 3.296875 
Q 6 8.015625 6 15.921875 
Q 6 25.140625 12.171875 29.828125 
Q 18.359375 34.515625 30.609375 34.515625 
L 43.21875 34.515625 
L 43.21875 35.40625 
Q 43.21875 41.609375 39.140625 45 
Q 35.0625 48.390625 27.6875 48.390625 
Q 23 48.390625 18.546875 47.265625 
Q 14.109375 46.140625 10.015625 43.890625 
L 10.015625 52.203125 
Q 14.9375 54.109375 19.578125 55.046875 
Q 24.21875 56 28.609375 56 
Q 40.484375 56 46.34375 49.84375 
Q 52.203125 43.703125 52.203125 31.203125 
z
" id="DejaVuSans-61"/>
     <path d="M 52 44.1875 
Q 55.375 50.25 60.0625 53.125 
Q 64.75 56 71.09375 56 
Q 79.640625 56 84.28125 50.015625 
Q 88.921875 44.046875 88.921875 33.015625 
L 88.921875 0 
L 79.890625 0 
L 79.890625 32.71875 
Q 79.890625 40.578125 77.09375 44.375 
Q 74.3125 48.1875 68.609375 48.1875 
Q 61.625 48.1875 57.5625 43.546875 
Q 53.515625 38.921875 53.515625 30.90625 
L 53.515625 0 
L 44.484375 0 
L 44.484375 32.71875 
Q 44.484375 40.625 41.703125 44.40625 
Q 38.921875 48.1875 33.109375 48.1875 
Q 26.21875 48.1875 22.15625 43.53125 
Q 18.109375 38.875 18.109375 30.90625 
L 18.109375 0 
L 9.078125 0 
L 9.078125 54.6875 
L 18.109375 54.6875 
L 18.109375 46.1875 
Q 21.1875 51.21875 25.484375 53.609375 
Q 29.78125 56 35.6875 56 
Q 41.65625 56 45.828125 52.96875 
Q 50 49.953125 52 44.1875 
z
" id="DejaVuSans-6d"/>
     <path d="M 56.203125 29.59375 
L 56.203125 25.203125 
L 14.890625 25.203125 
Q 15.484375 15.921875 20.484375 11.0625 
Q 25.484375 6.203125 34.421875 6.203125 
Q 39.59375 6.203125 44.453125 7.46875 
Q 49.3125 8.734375 54.109375 11.28125 
L 54.109375 2.78125 
Q 49.265625 0.734375 44.1875 -0.34375 
Q 39.109375 -1.421875 33.890625 -1.421875 
Q 20.796875 -1.421875 13.15625 6.1875 
Q 5.515625 13.8125 5.515625 26.8125 
Q 5.515625 40.234375 12.765625 48.109375 
Q 20.015625 56 32.328125 56 
Q 43.359375 56 49.78125 48.890625 
Q 56.203125 41.796875 56.203125 29.59375 
z
M 47.21875 32.234375 
Q 47.125 39.59375 43.09375 43.984375 
Q 39.0625 48.390625 32.421875 48.390625 
Q 24.90625 48.390625 20.390625 44.140625 
Q 15.875 39.890625 15.1875 32.171875 
z
" id="DejaVuSans-65"/>
     <path id="DejaVuSans-20"/>
     <path d="M 40.578125 39.3125 
Q 47.65625 37.796875 51.625 33 
Q 55.609375 28.21875 55.609375 21.1875 
Q 55.609375 10.40625 48.1875 4.484375 
Q 40.765625 -1.421875 27.09375 -1.421875 
Q 22.515625 -1.421875 17.65625 -0.515625 
Q 12.796875 0.390625 7.625 2.203125 
L 7.625 11.71875 
Q 11.71875 9.328125 16.59375 8.109375 
Q 21.484375 6.890625 26.8125 6.890625 
Q 36.078125 6.890625 40.9375 10.546875 
Q 45.796875 14.203125 45.796875 21.1875 
Q 45.796875 27.640625 41.28125 31.265625 
Q 36.765625 34.90625 28.71875 34.90625 
L 20.21875 34.90625 
L 20.21875 43.015625 
L 29.109375 43.015625 
Q 36.375 43.015625 40.234375 45.921875 
Q 44.09375 48.828125 44.09375 54.296875 
Q 44.09375 59.90625 40.109375 62.90625 
Q 36.140625 65.921875 28.71875 65.921875 
Q 24.65625 65.921875 20.015625 65.03125 
Q 15.375 64.15625 9.8125 62.3125 
L 9.8125 71.09375 
Q 15.4375 72.65625 20.34375 73.4375 
Q 25.25 74.21875 29.59375 74.21875 
Q 40.828125 74.21875 47.359375 69.109375 
Q 53.90625 64.015625 53.90625 55.328125 
Q 53.90625 49.265625 50.4375 45.09375 
Q 46.96875 40.921875 40.578125 39.3125 
z
" id="DejaVuSans-33"/>
    </defs>
    <g transform="translate(187.434844 35.472)scale(0.18 -0.18)">
     <use xlink:href="#DejaVuSans-46"/>
     <use x="57.410156" xlink:href="#DejaVuSans-72"/>
     <use x="98.523438" xlink:href="#DejaVuSans-61"/>
     <use x="159.802734" xlink:href="#DejaVuSans-6d"/>
     <use x="257.214844" xlink:href="#DejaVuSans-65"/>
     <use x="318.738281" xlink:href="#DejaVuSans-20"/>
     <use x="350.525391" xlink:href="#DejaVuSans-31"/>
     <use x="414.148438" xlink:href="#DejaVuSans-33"/>
     <use x="477.771484" xlink:href="#DejaVuSans-33"/>
    </g>
   </g>
  </g>
 </g>
 <defs>
  <clipPath id="p22df5cb531">
   <rect height="266.112" width="357.12" x="57.6" y="41.472"/>
  </clipPath>
 </defs>
</svg>
