<?xml version="1.0" encoding="utf-8" standalone="no"?>
<!DOCTYPE svg PUBLIC "-//W3C//DTD SVG 1.1//EN"
  "http://www.w3.org/Graphics/SVG/1.1/DTD/svg11.dtd">
<!-- Created with matplotlib (http://matplotlib.org/) -->
<svg height="345pt" version="1.1" viewBox="0 0 460 345" width="460pt" xmlns="http://www.w3.org/2000/svg" xmlns:xlink="http://www.w3.org/1999/xlink">
 <defs>
  <style type="text/css">
*{stroke-linecap:butt;stroke-linejoin:round;}
  </style>
 </defs>
 <g id="figure_1">
  <g id="patch_1">
   <path d="M 0 345.6 
L 460.8 345.6 
L 460.8 0 
L 0 0 
z
" style="fill:#ffffff;"/>
  </g>
  <g id="axes_1">
   <g id="patch_2">
    <path d="M 57.6 307.584 
L 414.72 307.584 
L 414.72 41.472 
L 57.6 41.472 
z
" style="fill:#ffffff;"/>
   </g>
   <g id="matplotlib.axis_1">
    <g id="xtick_1">
     <g id="line2d_1">
      <path clip-path="url(#p8a171455dd)" d="M 57.6 307.584 
L 57.6 41.472 
" style="fill:none;stroke:#b0b0b0;stroke-linecap:square;stroke-width:0.8;"/>
     </g>
     <g id="line2d_2">
      <defs>
       <path d="M 0 0 
L 0 3.5 
" id="m32de85dd53" style="stroke:#000000;stroke-width:0.8;"/>
      </defs>
      <g>
       <use style="stroke:#000000;stroke-width:0.8;" x="57.6" xlink:href="#m32de85dd53" y="307.584"/>
      </g>
     </g>
     <g id="text_1">
      <!-- 0 -->
      <defs>
       <path d="M 31.78125 66.40625 
Q 24.171875 66.40625 20.328125 58.90625 
Q 16.5 51.421875 16.5 36.375 
Q 16.5 21.390625 20.328125 13.890625 
Q 24.171875 6.390625 31.78125 6.390625 
Q 39.453125 6.390625 43.28125 13.890625 
Q 47.125 21.390625 47.125 36.375 
Q 47.125 51.421875 43.28125 58.90625 
Q 39.453125 66.40625 31.78125 66.40625 
z
M 31.78125 74.21875 
Q 44.046875 74.21875 50.515625 64.515625 
Q 56.984375 54.828125 56.984375 36.375 
Q 56.984375 17.96875 50.515625 8.265625 
Q 44.046875 -1.421875 31.78125 -1.421875 
Q 19.53125 -1.421875 13.0625 8.265625 
Q 6.59375 17.96875 6.59375 36.375 
Q 6.59375 54.828125 13.0625 64.515625 
Q 19.53125 74.21875 31.78125 74.21875 
z
" id="DejaVuSans-30"/>
      </defs>
      <g transform="translate(54.41875 322.182437)scale(0.1 -0.1)">
       <use xlink:href="#DejaVuSans-30"/>
      </g>
     </g>
    </g>
    <g id="xtick_2">
     <g id="line2d_3">
      <path clip-path="url(#p8a171455dd)" d="M 129.024 307.584 
L 129.024 41.472 
" style="fill:none;stroke:#b0b0b0;stroke-linecap:square;stroke-width:0.8;"/>
     </g>
     <g id="line2d_4">
      <g>
       <use style="stroke:#000000;stroke-width:0.8;" x="129.024" xlink:href="#m32de85dd53" y="307.584"/>
      </g>
     </g>
     <g id="text_2">
      <!-- 2 -->
      <defs>
       <path d="M 19.1875 8.296875 
L 53.609375 8.296875 
L 53.609375 0 
L 7.328125 0 
L 7.328125 8.296875 
Q 12.9375 14.109375 22.625 23.890625 
Q 32.328125 33.6875 34.8125 36.53125 
Q 39.546875 41.84375 41.421875 45.53125 
Q 43.3125 49.21875 43.3125 52.78125 
Q 43.3125 58.59375 39.234375 62.25 
Q 35.15625 65.921875 28.609375 65.921875 
Q 23.96875 65.921875 18.8125 64.3125 
Q 13.671875 62.703125 7.8125 59.421875 
L 7.8125 69.390625 
Q 13.765625 71.78125 18.9375 73 
Q 24.125 74.21875 28.421875 74.21875 
Q 39.75 74.21875 46.484375 68.546875 
Q 53.21875 62.890625 53.21875 53.421875 
Q 53.21875 48.921875 51.53125 44.890625 
Q 49.859375 40.875 45.40625 35.40625 
Q 44.1875 33.984375 37.640625 27.21875 
Q 31.109375 20.453125 19.1875 8.296875 
z
" id="DejaVuSans-32"/>
      </defs>
      <g transform="translate(125.84275 322.182437)scale(0.1 -0.1)">
       <use xlink:href="#DejaVuSans-32"/>
      </g>
     </g>
    </g>
    <g id="xtick_3">
     <g id="line2d_5">
      <path clip-path="url(#p8a171455dd)" d="M 200.448 307.584 
L 200.448 41.472 
" style="fill:none;stroke:#b0b0b0;stroke-linecap:square;stroke-width:0.8;"/>
     </g>
     <g id="line2d_6">
      <g>
       <use style="stroke:#000000;stroke-width:0.8;" x="200.448" xlink:href="#m32de85dd53" y="307.584"/>
      </g>
     </g>
     <g id="text_3">
      <!-- 4 -->
      <defs>
       <path d="M 37.796875 64.3125 
L 12.890625 25.390625 
L 37.796875 25.390625 
z
M 35.203125 72.90625 
L 47.609375 72.90625 
L 47.609375 25.390625 
L 58.015625 25.390625 
L 58.015625 17.1875 
L 47.609375 17.1875 
L 47.609375 0 
L 37.796875 0 
L 37.796875 17.1875 
L 4.890625 17.1875 
L 4.890625 26.703125 
z
" id="DejaVuSans-34"/>
      </defs>
      <g transform="translate(197.26675 322.182437)scale(0.1 -0.1)">
       <use xlink:href="#DejaVuSans-34"/>
      </g>
     </g>
    </g>
    <g id="xtick_4">
     <g id="line2d_7">
      <path clip-path="url(#p8a171455dd)" d="M 271.872 307.584 
L 271.872 41.472 
" style="fill:none;stroke:#b0b0b0;stroke-linecap:square;stroke-width:0.8;"/>
     </g>
     <g id="line2d_8">
      <g>
       <use style="stroke:#000000;stroke-width:0.8;" x="271.872" xlink:href="#m32de85dd53" y="307.584"/>
      </g>
     </g>
     <g id="text_4">
      <!-- 6 -->
      <defs>
       <path d="M 33.015625 40.375 
Q 26.375 40.375 22.484375 35.828125 
Q 18.609375 31.296875 18.609375 23.390625 
Q 18.609375 15.53125 22.484375 10.953125 
Q 26.375 6.390625 33.015625 6.390625 
Q 39.65625 6.390625 43.53125 10.953125 
Q 47.40625 15.53125 47.40625 23.390625 
Q 47.40625 31.296875 43.53125 35.828125 
Q 39.65625 40.375 33.015625 40.375 
z
M 52.59375 71.296875 
L 52.59375 62.3125 
Q 48.875 64.0625 45.09375 64.984375 
Q 41.3125 65.921875 37.59375 65.921875 
Q 27.828125 65.921875 22.671875 59.328125 
Q 17.53125 52.734375 16.796875 39.40625 
Q 19.671875 43.65625 24.015625 45.921875 
Q 28.375 48.1875 33.59375 48.1875 
Q 44.578125 48.1875 50.953125 41.515625 
Q 57.328125 34.859375 57.328125 23.390625 
Q 57.328125 12.15625 50.6875 5.359375 
Q 44.046875 -1.421875 33.015625 -1.421875 
Q 20.359375 -1.421875 13.671875 8.265625 
Q 6.984375 17.96875 6.984375 36.375 
Q 6.984375 53.65625 15.1875 63.9375 
Q 23.390625 74.21875 37.203125 74.21875 
Q 40.921875 74.21875 44.703125 73.484375 
Q 48.484375 72.75 52.59375 71.296875 
z
" id="DejaVuSans-36"/>
      </defs>
      <g transform="translate(268.69075 322.182437)scale(0.1 -0.1)">
       <use xlink:href="#DejaVuSans-36"/>
      </g>
     </g>
    </g>
    <g id="xtick_5">
     <g id="line2d_9">
      <path clip-path="url(#p8a171455dd)" d="M 343.296 307.584 
L 343.296 41.472 
" style="fill:none;stroke:#b0b0b0;stroke-linecap:square;stroke-width:0.8;"/>
     </g>
     <g id="line2d_10">
      <g>
       <use style="stroke:#000000;stroke-width:0.8;" x="343.296" xlink:href="#m32de85dd53" y="307.584"/>
      </g>
     </g>
     <g id="text_5">
      <!-- 8 -->
      <defs>
       <path d="M 31.78125 34.625 
Q 24.75 34.625 20.71875 30.859375 
Q 16.703125 27.09375 16.703125 20.515625 
Q 16.703125 13.921875 20.71875 10.15625 
Q 24.75 6.390625 31.78125 6.390625 
Q 38.8125 6.390625 42.859375 10.171875 
Q 46.921875 13.96875 46.921875 20.515625 
Q 46.921875 27.09375 42.890625 30.859375 
Q 38.875 34.625 31.78125 34.625 
z
M 21.921875 38.8125 
Q 15.578125 40.375 12.03125 44.71875 
Q 8.5 49.078125 8.5 55.328125 
Q 8.5 64.0625 14.71875 69.140625 
Q 20.953125 74.21875 31.78125 74.21875 
Q 42.671875 74.21875 48.875 69.140625 
Q 55.078125 64.0625 55.078125 55.328125 
Q 55.078125 49.078125 51.53125 44.71875 
Q 48 40.375 41.703125 38.8125 
Q 48.828125 37.15625 52.796875 32.3125 
Q 56.78125 27.484375 56.78125 20.515625 
Q 56.78125 9.90625 50.3125 4.234375 
Q 43.84375 -1.421875 31.78125 -1.421875 
Q 19.734375 -1.421875 13.25 4.234375 
Q 6.78125 9.90625 6.78125 20.515625 
Q 6.78125 27.484375 10.78125 32.3125 
Q 14.796875 37.15625 21.921875 38.8125 
z
M 18.3125 54.390625 
Q 18.3125 48.734375 21.84375 45.5625 
Q 25.390625 42.390625 31.78125 42.390625 
Q 38.140625 42.390625 41.71875 45.5625 
Q 45.3125 48.734375 45.3125 54.390625 
Q 45.3125 60.0625 41.71875 63.234375 
Q 38.140625 66.40625 31.78125 66.40625 
Q 25.390625 66.40625 21.84375 63.234375 
Q 18.3125 60.0625 18.3125 54.390625 
z
" id="DejaVuSans-38"/>
      </defs>
      <g transform="translate(340.11475 322.182437)scale(0.1 -0.1)">
       <use xlink:href="#DejaVuSans-38"/>
      </g>
     </g>
    </g>
    <g id="xtick_6">
     <g id="line2d_11">
      <path clip-path="url(#p8a171455dd)" d="M 414.72 307.584 
L 414.72 41.472 
" style="fill:none;stroke:#b0b0b0;stroke-linecap:square;stroke-width:0.8;"/>
     </g>
     <g id="line2d_12">
      <g>
       <use style="stroke:#000000;stroke-width:0.8;" x="414.72" xlink:href="#m32de85dd53" y="307.584"/>
      </g>
     </g>
     <g id="text_6">
      <!-- 10 -->
      <defs>
       <path d="M 12.40625 8.296875 
L 28.515625 8.296875 
L 28.515625 63.921875 
L 10.984375 60.40625 
L 10.984375 69.390625 
L 28.421875 72.90625 
L 38.28125 72.90625 
L 38.28125 8.296875 
L 54.390625 8.296875 
L 54.390625 0 
L 12.40625 0 
z
" id="DejaVuSans-31"/>
      </defs>
      <g transform="translate(408.3575 322.182437)scale(0.1 -0.1)">
       <use xlink:href="#DejaVuSans-31"/>
       <use x="63.623047" xlink:href="#DejaVuSans-30"/>
      </g>
     </g>
    </g>
    <g id="text_7">
     <!-- x -->
     <defs>
      <path d="M 54.890625 54.6875 
L 35.109375 28.078125 
L 55.90625 0 
L 45.3125 0 
L 29.390625 21.484375 
L 13.484375 0 
L 2.875 0 
L 24.125 28.609375 
L 4.6875 54.6875 
L 15.28125 54.6875 
L 29.78125 35.203125 
L 44.28125 54.6875 
z
" id="DejaVuSans-78"/>
     </defs>
     <g transform="translate(230.833125 341.939312)scale(0.18 -0.18)">
      <use xlink:href="#DejaVuSans-78"/>
     </g>
    </g>
   </g>
   <g id="matplotlib.axis_2">
    <g id="ytick_1">
     <g id="line2d_13">
      <path clip-path="url(#p8a171455dd)" d="M 57.6 307.584 
L 414.72 307.584 
" style="fill:none;stroke:#b0b0b0;stroke-linecap:square;stroke-width:0.8;"/>
     </g>
     <g id="line2d_14">
      <defs>
       <path d="M 0 0 
L -3.5 0 
" id="md1be7bc1bd" style="stroke:#000000;stroke-width:0.8;"/>
      </defs>
      <g>
       <use style="stroke:#000000;stroke-width:0.8;" x="57.6" xlink:href="#md1be7bc1bd" y="307.584"/>
      </g>
     </g>
     <g id="text_8">
      <!-- 0 -->
      <g transform="translate(44.2375 311.383219)scale(0.1 -0.1)">
       <use xlink:href="#DejaVuSans-30"/>
      </g>
     </g>
    </g>
    <g id="ytick_2">
     <g id="line2d_15">
      <path clip-path="url(#p8a171455dd)" d="M 57.6 254.3616 
L 414.72 254.3616 
" style="fill:none;stroke:#b0b0b0;stroke-linecap:square;stroke-width:0.8;"/>
     </g>
     <g id="line2d_16">
      <g>
       <use style="stroke:#000000;stroke-width:0.8;" x="57.6" xlink:href="#md1be7bc1bd" y="254.3616"/>
      </g>
     </g>
     <g id="text_9">
      <!-- 2 -->
      <g transform="translate(44.2375 258.160819)scale(0.1 -0.1)">
       <use xlink:href="#DejaVuSans-32"/>
      </g>
     </g>
    </g>
    <g id="ytick_3">
     <g id="line2d_17">
      <path clip-path="url(#p8a171455dd)" d="M 57.6 201.1392 
L 414.72 201.1392 
" style="fill:none;stroke:#b0b0b0;stroke-linecap:square;stroke-width:0.8;"/>
     </g>
     <g id="line2d_18">
      <g>
       <use style="stroke:#000000;stroke-width:0.8;" x="57.6" xlink:href="#md1be7bc1bd" y="201.1392"/>
      </g>
     </g>
     <g id="text_10">
      <!-- 4 -->
      <g transform="translate(44.2375 204.938419)scale(0.1 -0.1)">
       <use xlink:href="#DejaVuSans-34"/>
      </g>
     </g>
    </g>
    <g id="ytick_4">
     <g id="line2d_19">
      <path clip-path="url(#p8a171455dd)" d="M 57.6 147.9168 
L 414.72 147.9168 
" style="fill:none;stroke:#b0b0b0;stroke-linecap:square;stroke-width:0.8;"/>
     </g>
     <g id="line2d_20">
      <g>
       <use style="stroke:#000000;stroke-width:0.8;" x="57.6" xlink:href="#md1be7bc1bd" y="147.9168"/>
      </g>
     </g>
     <g id="text_11">
      <!-- 6 -->
      <g transform="translate(44.2375 151.716019)scale(0.1 -0.1)">
       <use xlink:href="#DejaVuSans-36"/>
      </g>
     </g>
    </g>
    <g id="ytick_5">
     <g id="line2d_21">
      <path clip-path="url(#p8a171455dd)" d="M 57.6 94.6944 
L 414.72 94.6944 
" style="fill:none;stroke:#b0b0b0;stroke-linecap:square;stroke-width:0.8;"/>
     </g>
     <g id="line2d_22">
      <g>
       <use style="stroke:#000000;stroke-width:0.8;" x="57.6" xlink:href="#md1be7bc1bd" y="94.6944"/>
      </g>
     </g>
     <g id="text_12">
      <!-- 8 -->
      <g transform="translate(44.2375 98.493619)scale(0.1 -0.1)">
       <use xlink:href="#DejaVuSans-38"/>
      </g>
     </g>
    </g>
    <g id="ytick_6">
     <g id="line2d_23">
      <path clip-path="url(#p8a171455dd)" d="M 57.6 41.472 
L 414.72 41.472 
" style="fill:none;stroke:#b0b0b0;stroke-linecap:square;stroke-width:0.8;"/>
     </g>
     <g id="line2d_24">
      <g>
       <use style="stroke:#000000;stroke-width:0.8;" x="57.6" xlink:href="#md1be7bc1bd" y="41.472"/>
      </g>
     </g>
     <g id="text_13">
      <!-- 10 -->
      <g transform="translate(37.875 45.271219)scale(0.1 -0.1)">
       <use xlink:href="#DejaVuSans-31"/>
       <use x="63.623047" xlink:href="#DejaVuSans-30"/>
      </g>
     </g>
    </g>
    <g id="text_14">
     <!-- y -->
     <defs>
      <path d="M 32.171875 -5.078125 
Q 28.375 -14.84375 24.75 -17.8125 
Q 21.140625 -20.796875 15.09375 -20.796875 
L 7.90625 -20.796875 
L 7.90625 -13.28125 
L 13.1875 -13.28125 
Q 16.890625 -13.28125 18.9375 -11.515625 
Q 21 -9.765625 23.484375 -3.21875 
L 25.09375 0.875 
L 2.984375 54.6875 
L 12.5 54.6875 
L 29.59375 11.921875 
L 46.6875 54.6875 
L 56.203125 54.6875 
z
" id="DejaVuSans-79"/>
     </defs>
     <g transform="translate(30.131563 179.854875)rotate(-90)scale(0.18 -0.18)">
      <use xlink:href="#DejaVuSans-79"/>
     </g>
    </g>
   </g>
   <g id="line2d_25">
    <defs>
     <path d="M -9 9 
L 9 -9 
M -9 -9 
L 9 9 
" id="m0571135d04" style="stroke:#008000;stroke-width:2;"/>
    </defs>
    <g clip-path="url(#p8a171455dd)">
     <use style="fill:#008000;stroke:#008000;stroke-width:2;" x="57.6" xlink:href="#m0571135d04" y="174.528"/>
    </g>
   </g>
   <g id="line2d_26">
    <path clip-path="url(#p8a171455dd)" d="M 121.627367 41.472 
L 121.627367 88.799622 
L 193.051367 88.799622 
L 193.051367 41.472 
L 121.627367 41.472 
" style="fill:none;stroke:#0000ff;stroke-linecap:square;stroke-width:2;"/>
   </g>
   <g id="line2d_27">
    <path clip-path="url(#p8a171455dd)" d="M 121.627367 142.022022 
L 121.627367 307.584 
L 193.051367 307.584 
L 193.051367 142.022022 
L 121.627367 142.022022 
" style="fill:none;stroke:#0000ff;stroke-linecap:square;stroke-width:2;"/>
   </g>
   <g id="line2d_28">
    <defs>
     <path d="M -9 9 
L 9 -9 
M -9 -9 
L 9 9 
" id="mf9cf9f41f6" style="stroke:#ff0000;stroke-width:2;"/>
    </defs>
    <g clip-path="url(#p8a171455dd)">
     <use style="fill:#ff0000;stroke:#ff0000;stroke-width:2;" x="226.375444" xlink:href="#mf9cf9f41f6" y="162.584046"/>
    </g>
   </g>
   <g id="line2d_29">
    <path clip-path="url(#p8a171455dd)" d="M 57.835685 174.06991 
L 61.888085 164.947173 
L 65.217372 156.846619 
L 68.04979 149.323949 
L 74.402631 131.754603 
L 76.383773 127.258588 
L 77.830117 124.50837 
L 79.402063 122.020846 
L 81.119415 119.840882 
L 82.998133 117.999052 
L 85.047571 116.509437 
L 87.267413 115.369296 
L 89.644864 114.560217 
L 92.15285 114.050316 
L 94.749969 113.79717 
L 97.382667 113.751225 
L 101.263671 113.954897 
L 105.994062 114.468753 
L 112.177105 115.177185 
L 114.474241 115.20561 
L 115.797655 115.030728 
L 117.369915 114.586182 
L 120.876091 113.462256 
L 123.946202 112.743598 
L 128.015895 112.038693 
L 133.029342 111.411137 
L 138.783321 110.945415 
L 143.444433 110.760803 
L 148.324242 110.761173 
L 153.390719 110.97913 
L 158.628978 111.43869 
L 164.01142 112.155691 
L 169.474822 113.140453 
L 174.919493 114.402205 
L 178.482387 115.403297 
L 181.955856 116.538112 
L 185.316936 117.812391 
L 188.551419 119.231355 
L 191.653051 120.797876 
L 194.620856 122.510283 
L 197.455458 124.360237 
L 200.155476 126.331272 
L 202.71498 128.398545 
L 206.264683 131.608758 
L 209.417117 134.840517 
L 212.115564 137.978432 
L 214.323819 140.938325 
L 216.041802 143.677362 
L 217.30977 146.187636 
L 218.203132 148.480071 
L 218.986134 151.221436 
L 220.113349 155.688928 
L 220.652864 157.03872 
L 221.328461 158.233325 
L 222.138922 159.290043 
L 223.370439 160.507118 
L 224.964358 161.741111 
L 226.857202 162.960363 
L 226.857202 162.960363 
" style="fill:none;stroke:#b2b2b2;stroke-linecap:square;stroke-width:1.5;"/>
   </g>
   <g id="line2d_30">
    <path clip-path="url(#p8a171455dd)" d="M 57.132256 174.42989 
L 61.422718 165.977907 
L 64.339879 159.822253 
L 67.321826 153.007782 
L 70.82536 144.293408 
L 74.414943 135.440831 
L 76.369155 131.251162 
L 77.773401 128.653562 
L 79.281095 126.265394 
L 80.910101 124.122909 
L 82.675244 122.250452 
L 84.585915 120.658957 
L 86.643353 119.346094 
L 88.838135 118.297685 
L 91.148522 117.489877 
L 93.540363 116.89171 
L 97.181113 116.309521 
L 100.729364 115.994199 
L 112.645166 115.228686 
L 114.717062 114.784059 
L 122.691744 112.702786 
L 126.627184 112.007208 
L 131.440911 111.377289 
L 137.00868 110.907702 
L 141.573383 110.730717 
L 146.407496 110.758102 
L 151.484232 111.029651 
L 156.792086 111.571353 
L 162.30561 112.393169 
L 167.958291 113.490218 
L 173.635639 114.847814 
L 179.195239 116.449536 
L 184.503569 118.284974 
L 187.855106 119.637294 
L 191.038646 121.093183 
L 194.049197 122.652212 
L 196.88777 124.310909 
L 199.557561 126.060937 
L 202.06055 127.888016 
L 205.498121 130.727799 
L 208.536184 133.610649 
L 211.145805 136.450666 
L 213.306677 139.180814 
L 215.022214 141.764289 
L 216.326143 144.191799 
L 217.280622 146.46861 
L 218.155414 149.278253 
L 219.887934 155.571688 
L 220.513668 156.910766 
L 221.527204 158.472782 
L 222.688978 159.803676 
L 224.173363 161.160101 
L 225.921858 162.50549 
L 225.921858 162.50549 
" style="fill:none;stroke:#b2b2b2;stroke-linecap:square;stroke-width:1.5;"/>
   </g>
   <g id="line2d_31">
    <path clip-path="url(#p8a171455dd)" d="M 56.602217 175.757165 
L 60.865072 166.402743 
L 64.125646 158.774828 
L 68.209898 148.578694 
L 72.002238 139.152531 
L 74.083823 134.467677 
L 76.344065 130.02995 
L 77.972536 127.302388 
L 79.714477 124.816962 
L 81.58279 122.610099 
L 83.587452 120.703791 
L 85.732883 119.104956 
L 88.015094 117.806456 
L 90.419275 116.789246 
L 92.918604 116.025117 
L 95.47487 115.47966 
L 98.041188 115.115178 
L 101.798 114.824488 
L 106.391063 114.732756 
L 117.69502 114.693866 
L 121.023361 114.334395 
L 132.83238 112.826922 
L 137.729113 112.433146 
L 143.239462 112.220611 
L 147.755909 112.240317 
L 152.60576 112.450688 
L 157.786632 112.873567 
L 163.259755 113.520124 
L 168.931456 114.393478 
L 174.659317 115.493461 
L 180.283425 116.822123 
L 185.666795 118.387054 
L 189.076842 119.567144 
L 192.327875 120.859778 
L 195.415323 122.264886 
L 198.33841 123.778145 
L 201.096135 125.389783 
L 203.684259 127.084296 
L 207.228037 129.73602 
L 210.324901 132.449478 
L 212.927817 135.152078 
L 214.373447 136.921699 
L 215.586098 138.655369 
L 216.573489 140.349624 
L 217.351241 142.003822 
L 218.176376 144.409805 
L 218.683106 146.719401 
L 219.142007 150.302861 
L 219.574456 153.457761 
L 219.985026 155.118895 
L 220.558671 156.609734 
L 221.292699 157.941445 
L 222.455929 159.486622 
L 224.00381 161.061944 
L 225.872715 162.623843 
L 225.872715 162.623843 
" style="fill:none;stroke:#b2b2b2;stroke-linecap:square;stroke-width:1.5;"/>
   </g>
   <g id="line2d_32">
    <path clip-path="url(#p8a171455dd)" d="M 57.996975 175.309075 
L 61.53927 167.699782 
L 64.2611 161.407476 
L 67.087324 154.2508 
L 69.875493 146.464914 
L 73.880254 135.027482 
L 75.787929 130.279241 
L 77.17824 127.30507 
L 78.690754 124.553988 
L 80.347871 122.07808 
L 82.168938 119.916858 
L 84.167612 118.094234 
L 86.348762 116.617551 
L 88.70533 115.478343 
L 91.215862 114.654347 
L 93.843505 114.112286 
L 96.537128 113.811066 
L 99.234841 113.705169 
L 103.142616 113.811092 
L 107.772771 114.224391 
L 114.087377 115.095726 
L 116.6443 115.357883 
L 118.032245 115.301093 
L 120.84356 114.891855 
L 127.712769 113.859784 
L 134.046441 113.1095 
L 139.985978 112.610069 
L 146.482669 112.327788 
L 151.651559 112.319853 
L 157.049666 112.522105 
L 162.645246 112.956693 
L 168.367268 113.639883 
L 174.097375 114.586413 
L 179.689438 115.813663 
L 183.271652 116.798405 
L 186.699718 117.924544 
L 189.953501 119.198195 
L 193.023381 120.622833 
L 195.907856 122.19725 
L 198.609932 123.913623 
L 201.133404 125.756243 
L 203.479953 127.701374 
L 205.64769 129.718559 
L 208.551874 132.803734 
L 211.017906 135.858748 
L 213.030059 138.792342 
L 214.595216 141.550899 
L 215.750104 144.116431 
L 216.560544 146.492527 
L 217.260488 149.380488 
L 218.402528 154.720676 
L 218.945826 156.148906 
L 219.642733 157.418432 
L 220.48748 158.545058 
L 221.777283 159.846082 
L 223.450187 161.168062 
L 225.438311 162.47626 
L 225.438311 162.47626 
" style="fill:none;stroke:#b2b2b2;stroke-linecap:square;stroke-width:1.5;"/>
   </g>
   <g id="line2d_33">
    <path clip-path="url(#p8a171455dd)" d="M 57.565793 175.619741 
L 61.726288 165.705945 
L 65.516606 156.123441 
L 73.642704 134.983734 
L 75.840454 130.082118 
L 77.409675 127.005684 
L 79.075264 124.156551 
L 80.848766 121.589901 
L 82.740872 119.347574 
L 84.75945 117.454862 
L 86.90687 115.919459 
L 89.17706 114.732229 
L 91.553004 113.869294 
L 94.00545 113.294939 
L 96.493501 112.964986 
L 98.967345 112.830391 
L 102.533292 112.88521 
L 106.76008 113.1972 
L 113.205457 113.703454 
L 114.975746 113.612258 
L 117.005363 113.253558 
L 121.059134 112.499913 
L 125.691921 111.915566 
L 131.95437 111.390908 
L 137.91734 111.090393 
L 144.446271 110.975217 
L 151.348767 111.120282 
L 156.719634 111.438798 
L 162.236891 111.960851 
L 167.861893 112.703101 
L 173.516651 113.680386 
L 179.091032 114.909202 
L 182.705511 115.878233 
L 186.205201 116.97536 
L 189.570713 118.20764 
L 192.791467 119.580617 
L 195.863861 121.096429 
L 198.787917 122.751794 
L 201.563428 124.536353 
L 204.186704 126.431899 
L 206.648743 128.412902 
L 210.007142 131.476309 
L 212.909534 134.551844 
L 215.300868 137.544265 
L 216.595917 139.460794 
L 217.652386 141.302776 
L 218.480788 143.066961 
L 219.100091 144.753864 
L 219.696431 147.143445 
L 219.995336 149.366729 
L 220.630697 156.488766 
L 221.082919 157.82683 
L 221.705952 159.01121 
L 222.738047 160.373799 
L 224.150307 161.751842 
L 225.883422 163.109222 
L 225.883422 163.109222 
" style="fill:none;stroke:#b2b2b2;stroke-linecap:square;stroke-width:1.5;"/>
   </g>
   <g id="line2d_34">
    <path clip-path="url(#p8a171455dd)" d="M 58.156188 174.602089 
L 61.737963 166.020397 
L 64.756532 158.279852 
L 67.959428 149.414557 
L 72.524217 136.524856 
L 74.444552 131.71472 
L 75.829238 128.654937 
L 77.317393 125.784309 
L 78.926221 123.159465 
L 80.67182 120.826556 
L 82.567269 118.817205 
L 84.620017 117.146501 
L 86.828866 115.812927 
L 89.181159 114.799807 
L 91.65089 114.07774 
L 94.198519 113.607632 
L 96.772956 113.344028 
L 100.556315 113.230033 
L 105.152183 113.360657 
L 111.135615 113.578618 
L 113.354115 113.44014 
L 115.026978 113.077101 
L 121.155653 111.209217 
L 124.799805 110.537827 
L 129.476409 109.947613 
L 135.044547 109.532017 
L 139.665157 109.405405 
L 144.566399 109.494451 
L 149.6931 109.842612 
L 155.019708 110.478238 
L 160.52478 111.409437 
L 166.159715 112.622505 
L 171.831696 114.085492 
L 177.412899 115.757421 
L 182.771704 117.600525 
L 187.807316 119.589802 
L 192.467757 121.714469 
L 196.74323 123.970125 
L 200.642389 126.346113 
L 204.167416 128.815869 
L 207.301778 131.336826 
L 210.015228 133.86068 
L 212.280346 136.347882 
L 214.090022 138.777143 
L 215.467799 141.14413 
L 216.469154 143.45068 
L 217.175989 145.691651 
L 217.970759 149.222316 
L 218.688634 152.370499 
L 219.237665 154.029707 
L 219.930384 155.510391 
L 220.772832 156.821137 
L 221.738268 157.97427 
L 223.124279 159.283916 
L 225.1085 160.789953 
L 226.199217 161.512285 
L 226.199217 161.512285 
" style="fill:none;stroke:#b2b2b2;stroke-linecap:square;stroke-width:1.5;"/>
   </g>
   <g id="line2d_35">
    <path clip-path="url(#p8a171455dd)" d="M 58.258006 174.837665 
L 62.347373 166.452883 
L 65.174181 160.228129 
L 68.129441 153.184306 
L 71.720091 143.929864 
L 74.85295 135.899795 
L 76.87899 131.22291 
L 78.321168 128.28298 
L 79.854703 125.554353 
L 81.49506 123.088221 
L 83.256277 120.923384 
L 85.148985 119.083336 
L 87.17784 117.575379 
L 89.338794 116.391463 
L 91.616834 115.510228 
L 93.984909 114.89977 
L 96.404632 114.520775 
L 98.829017 114.329766 
L 102.362728 114.298908 
L 106.639268 114.522716 
L 114.72041 115.077956 
L 117.189179 114.948666 
L 119.798115 114.562096 
L 130.151237 112.839223 
L 136.651696 112.043739 
L 142.5749 111.571738 
L 147.349843 111.392169 
L 152.381156 111.408808 
L 157.658685 111.651567 
L 163.156438 112.139268 
L 168.805826 112.882498 
L 174.48925 113.888281 
L 180.060748 115.165213 
L 183.643766 116.173528 
L 187.084185 117.313078 
L 190.36169 118.588374 
L 193.46628 120.001907 
L 196.395767 121.552167 
L 199.152099 123.231736 
L 201.737586 125.02597 
L 204.152006 126.91279 
L 206.391229 128.863838 
L 209.404068 131.840341 
L 211.973284 134.782505 
L 214.076356 137.606254 
L 215.715602 140.263705 
L 216.925623 142.741466 
L 217.772171 145.047488 
L 218.493031 147.878435 
L 219.745611 153.846099 
L 220.299751 155.35675 
L 221.001746 156.758569 
L 222.138325 158.469378 
L 223.721035 160.336712 
L 225.755368 162.346235 
L 226.232085 162.781369 
L 226.232085 162.781369 
" style="fill:none;stroke:#b2b2b2;stroke-linecap:square;stroke-width:1.5;"/>
   </g>
   <g id="line2d_36">
    <path clip-path="url(#p8a171455dd)" d="M 58.131354 175.130431 
L 61.535994 167.973129 
L 64.185685 161.986254 
L 66.987046 155.081483 
L 69.818282 147.447441 
L 73.973145 136.050877 
L 75.946939 131.282574 
L 77.370018 128.292293 
L 78.900407 125.527607 
L 80.556084 123.044073 
L 82.352948 120.883842 
L 84.302547 119.07239 
L 86.409254 117.617365 
L 88.667333 116.509238 
L 91.058557 115.723284 
L 93.551138 115.22242 
L 96.100605 114.960577 
L 98.652886 114.886385 
L 102.358421 115.011638 
L 113.64167 115.691349 
L 115.090615 115.495969 
L 116.745621 115.02094 
L 121.363548 113.437525 
L 124.604432 112.66711 
L 128.802282 111.944134 
L 133.893334 111.352115 
L 138.196684 111.059287 
L 142.833973 110.951744 
L 147.757924 111.075021 
L 152.948738 111.463049 
L 158.393563 112.13343 
L 164.055452 113.08575 
L 169.851186 114.303804 
L 175.653519 115.762223 
L 181.318941 117.435972 
L 186.725389 119.30841 
L 191.797824 121.372806 
L 196.508378 123.625069 
L 200.854388 126.050684 
L 204.829898 128.613204 
L 208.407618 131.252158 
L 211.540139 133.893557 
L 214.177241 136.46847 
L 216.288018 138.929672 
L 217.876877 141.257752 
L 218.988843 143.45503 
L 219.705585 145.532717 
L 220.135365 147.499425 
L 221.277554 154.261935 
L 221.829784 155.689632 
L 222.539354 157.024633 
L 223.667286 158.655541 
L 225.171517 160.41212 
L 226.990283 162.239648 
L 226.990283 162.239648 
" style="fill:none;stroke:#b2b2b2;stroke-linecap:square;stroke-width:1.5;"/>
   </g>
   <g id="line2d_37">
    <path clip-path="url(#p8a171455dd)" d="M 58.44729 174.70809 
L 62.437327 167.05332 
L 65.476478 160.77979 
L 67.972533 155.182318 
L 70.405132 149.223629 
L 74.534835 138.268975 
L 77.01758 132.064501 
L 78.363045 129.120404 
L 79.810931 126.352988 
L 81.385754 123.811787 
L 83.10988 121.537077 
L 85.001204 119.556353 
L 87.070263 117.882714 
L 89.317088 116.515034 
L 91.728362 115.439497 
L 94.275641 114.631966 
L 96.915372 114.060758 
L 99.591216 113.689529 
L 103.530816 113.424188 
L 107.187142 113.399099 
L 112.197455 113.613824 
L 119.0274 113.992758 
L 121.31129 113.698524 
L 128.896505 112.601864 
L 133.567003 112.123388 
L 139.031697 111.799252 
L 143.573497 111.741746 
L 148.462551 111.89941 
L 153.686234 112.306333 
L 159.219171 112.97781 
L 164.992853 113.910642 
L 170.881996 115.087415 
L 176.719479 116.484528 
L 182.334647 118.081616 
L 187.594654 119.867874 
L 190.865721 121.162616 
L 193.938662 122.54036 
L 196.814733 123.999376 
L 199.499345 125.534733 
L 203.179661 127.959743 
L 206.452265 130.487284 
L 209.314152 133.058485 
L 211.758314 135.619257 
L 213.787847 138.133778 
L 215.425862 140.587595 
L 216.717487 142.979219 
L 217.725521 145.306146 
L 218.755361 148.281344 
L 220.798101 154.662545 
L 221.715853 156.682724 
L 222.746402 158.411061 
L 224.108206 160.195976 
L 225.834899 162.032162 
L 226.427363 162.597458 
L 226.427363 162.597458 
" style="fill:none;stroke:#b2b2b2;stroke-linecap:square;stroke-width:1.5;"/>
   </g>
   <g id="line2d_38">
    <path clip-path="url(#p8a171455dd)" d="M 58.997561 174.742478 
L 62.367389 168.736874 
L 65.309711 163.036231 
L 67.763775 157.774928 
L 70.16495 152.001175 
L 72.472125 145.798117 
L 77.103152 132.847335 
L 79.035089 128.288412 
L 80.442188 125.504717 
L 81.970165 122.989913 
L 83.637978 120.785049 
L 85.459442 118.914991 
L 87.440483 117.387426 
L 89.576371 116.193666 
L 91.849553 115.310719 
L 94.228787 114.704141 
L 96.670165 114.331315 
L 99.120263 114.144914 
L 102.685207 114.108993 
L 107.904903 114.334942 
L 112.463074 114.480935 
L 114.564096 114.315069 
L 116.268923 113.923896 
L 123.210039 111.85706 
L 127.212266 111.041556 
L 132.197236 110.276121 
L 136.475462 109.803773 
L 141.100831 109.484241 
L 145.982267 109.377585 
L 151.063514 109.535561 
L 156.320173 109.994934 
L 161.735254 110.774075 
L 167.26859 111.873321 
L 172.839605 113.279477 
L 178.335164 114.974041 
L 183.638376 116.942307 
L 187.021326 118.403221 
L 190.262837 119.982691 
L 193.355758 121.679845 
L 196.298654 123.490926 
L 199.092126 125.406954 
L 201.735178 127.411958 
L 205.404862 130.532913 
L 208.684415 133.694716 
L 211.51923 136.78077 
L 213.859565 139.689765 
L 215.681852 142.356578 
L 217.001608 144.758293 
L 217.875788 146.905959 
L 218.396846 148.829565 
L 218.745209 151.106944 
L 219.205095 154.515513 
L 219.589157 155.823597 
L 220.154138 157.070881 
L 221.176361 158.6524 
L 222.407983 160.122927 
L 224.302207 162.013637 
L 225.634996 163.21094 
L 225.634996 163.21094 
" style="fill:none;stroke:#b2b2b2;stroke-linecap:square;stroke-width:1.5;"/>
   </g>
   <g id="line2d_39">
    <path clip-path="url(#p8a171455dd)" d="M 57.9169 174.647877 
L 61.588997 167.211503 
L 65.022235 159.729337 
L 68.004235 152.611458 
L 71.569188 143.342392 
L 74.652331 135.363623 
L 76.655505 130.738858 
L 78.093084 127.839659 
L 79.634931 125.154877 
L 81.299805 122.734406 
L 83.104241 120.615928 
L 85.060254 118.821998 
L 87.1725 117.359103 
L 89.435336 116.218423 
L 91.830432 115.377775 
L 94.325721 114.804312 
L 96.876298 114.457611 
L 100.684888 114.264499 
L 104.296158 114.32827 
L 111.085912 114.762744 
L 114.269494 114.881311 
L 116.074599 114.754944 
L 118.037604 114.338181 
L 122.461781 113.238391 
L 126.953554 112.39975 
L 131.626119 111.739221 
L 137.107971 111.19571 
L 141.627922 110.938609 
L 146.422567 110.866824 
L 151.4576 111.021501 
L 156.717607 111.430232 
L 162.177186 112.105839 
L 167.773669 113.048324 
L 173.399433 114.249922 
L 178.920591 115.702229 
L 184.212015 117.402423 
L 187.56756 118.67538 
L 190.768733 120.061845 
L 193.810829 121.56189 
L 196.694232 123.17206 
L 199.420566 124.883645 
L 201.989341 126.681711 
L 205.535702 129.493839 
L 208.683092 132.365431 
L 211.389355 135.207872 
L 213.623044 137.952006 
L 215.380382 140.559616 
L 216.692826 143.020579 
L 217.625231 145.339698 
L 218.267854 147.522117 
L 219.102306 151.460353 
L 219.799069 154.270401 
L 220.358833 155.750605 
L 221.055991 157.088683 
L 222.173405 158.669967 
L 223.408985 160.028831 
L 225.186253 161.640794 
L 226.165814 162.43168 
L 226.165814 162.43168 
" style="fill:none;stroke:#ff0000;stroke-linecap:square;stroke-width:1.5;"/>
   </g>
   <g id="line2d_40">
    <defs>
     <path d="M 0 -9 
L -2.020626 -2.781153 
L -8.559509 -2.781153 
L -3.269441 1.062306 
L -5.290067 7.281153 
L -0 3.437694 
L 5.290067 7.281153 
L 3.269441 1.062306 
L 8.559509 -2.781153 
L 2.020626 -2.781153 
z
" id="mfeb373fb59" style="stroke:#000000;stroke-linejoin:bevel;stroke-width:2;"/>
    </defs>
    <g clip-path="url(#p8a171455dd)">
     <use style="stroke:#000000;stroke-linejoin:bevel;stroke-width:2;" x="226.165814" xlink:href="#mfeb373fb59" y="162.43168"/>
    </g>
   </g>
   <g id="line2d_41">
    <defs>
     <path d="M 0 9 
C 2.386828 9 4.676219 8.051703 6.363961 6.363961 
C 8.051703 4.676219 9 2.386828 9 0 
C 9 -2.386828 8.051703 -4.676219 6.363961 -6.363961 
C 4.676219 -8.051703 2.386828 -9 0 -9 
C -2.386828 -9 -4.676219 -8.051703 -6.363961 -6.363961 
C -8.051703 -4.676219 -9 -2.386828 -9 0 
C -9 2.386828 -8.051703 4.676219 -6.363961 6.363961 
C -4.676219 8.051703 -2.386828 9 0 9 
z
" id="m31fef89437" style="stroke:#bf00bf;stroke-width:2;"/>
    </defs>
    <g clip-path="url(#p8a171455dd)">
     <use style="fill:#bf00bf;stroke:#bf00bf;stroke-width:2;" x="233.65392" xlink:href="#m31fef89437" y="168.763913"/>
    </g>
   </g>
   <g id="patch_3">
    <path d="M 57.6 307.584 
L 57.6 41.472 
" style="fill:none;stroke:#000000;stroke-linecap:square;stroke-linejoin:miter;stroke-width:0.8;"/>
   </g>
   <g id="patch_4">
    <path d="M 414.72 307.584 
L 414.72 41.472 
" style="fill:none;stroke:#000000;stroke-linecap:square;stroke-linejoin:miter;stroke-width:0.8;"/>
   </g>
   <g id="patch_5">
    <path d="M 57.6 307.584 
L 414.72 307.584 
" style="fill:none;stroke:#000000;stroke-linecap:square;stroke-linejoin:miter;stroke-width:0.8;"/>
   </g>
   <g id="patch_6">
    <path d="M 57.6 41.472 
L 414.72 41.472 
" style="fill:none;stroke:#000000;stroke-linecap:square;stroke-linejoin:miter;stroke-width:0.8;"/>
   </g>
   <g id="text_15">
    <!-- Frame 199 -->
    <defs>
     <path d="M 9.8125 72.90625 
L 51.703125 72.90625 
L 51.703125 64.59375 
L 19.671875 64.59375 
L 19.671875 43.109375 
L 48.578125 43.109375 
L 48.578125 34.8125 
L 19.671875 34.8125 
L 19.671875 0 
L 9.8125 0 
z
" id="DejaVuSans-46"/>
     <path d="M 41.109375 46.296875 
Q 39.59375 47.171875 37.8125 47.578125 
Q 36.03125 48 33.890625 48 
Q 26.265625 48 22.1875 43.046875 
Q 18.109375 38.09375 18.109375 28.8125 
L 18.109375 0 
L 9.078125 0 
L 9.078125 54.6875 
L 18.109375 54.6875 
L 18.109375 46.1875 
Q 20.953125 51.171875 25.484375 53.578125 
Q 30.03125 56 36.53125 56 
Q 37.453125 56 38.578125 55.875 
Q 39.703125 55.765625 41.0625 55.515625 
z
" id="DejaVuSans-72"/>
     <path d="M 34.28125 27.484375 
Q 23.390625 27.484375 19.1875 25 
Q 14.984375 22.515625 14.984375 16.5 
Q 14.984375 11.71875 18.140625 8.90625 
Q 21.296875 6.109375 26.703125 6.109375 
Q 34.1875 6.109375 38.703125 11.40625 
Q 43.21875 16.703125 43.21875 25.484375 
L 43.21875 27.484375 
z
M 52.203125 31.203125 
L 52.203125 0 
L 43.21875 0 
L 43.21875 8.296875 
Q 40.140625 3.328125 35.546875 0.953125 
Q 30.953125 -1.421875 24.3125 -1.421875 
Q 15.921875 -1.421875 10.953125 3.296875 
Q 6 8.015625 6 15.921875 
Q 6 25.140625 12.171875 29.828125 
Q 18.359375 34.515625 30.609375 34.515625 
L 43.21875 34.515625 
L 43.21875 35.40625 
Q 43.21875 41.609375 39.140625 45 
Q 35.0625 48.390625 27.6875 48.390625 
Q 23 48.390625 18.546875 47.265625 
Q 14.109375 46.140625 10.015625 43.890625 
L 10.015625 52.203125 
Q 14.9375 54.109375 19.578125 55.046875 
Q 24.21875 56 28.609375 56 
Q 40.484375 56 46.34375 49.84375 
Q 52.203125 43.703125 52.203125 31.203125 
z
" id="DejaVuSans-61"/>
     <path d="M 52 44.1875 
Q 55.375 50.25 60.0625 53.125 
Q 64.75 56 71.09375 56 
Q 79.640625 56 84.28125 50.015625 
Q 88.921875 44.046875 88.921875 33.015625 
L 88.921875 0 
L 79.890625 0 
L 79.890625 32.71875 
Q 79.890625 40.578125 77.09375 44.375 
Q 74.3125 48.1875 68.609375 48.1875 
Q 61.625 48.1875 57.5625 43.546875 
Q 53.515625 38.921875 53.515625 30.90625 
L 53.515625 0 
L 44.484375 0 
L 44.484375 32.71875 
Q 44.484375 40.625 41.703125 44.40625 
Q 38.921875 48.1875 33.109375 48.1875 
Q 26.21875 48.1875 22.15625 43.53125 
Q 18.109375 38.875 18.109375 30.90625 
L 18.109375 0 
L 9.078125 0 
L 9.078125 54.6875 
L 18.109375 54.6875 
L 18.109375 46.1875 
Q 21.1875 51.21875 25.484375 53.609375 
Q 29.78125 56 35.6875 56 
Q 41.65625 56 45.828125 52.96875 
Q 50 49.953125 52 44.1875 
z
" id="DejaVuSans-6d"/>
     <path d="M 56.203125 29.59375 
L 56.203125 25.203125 
L 14.890625 25.203125 
Q 15.484375 15.921875 20.484375 11.0625 
Q 25.484375 6.203125 34.421875 6.203125 
Q 39.59375 6.203125 44.453125 7.46875 
Q 49.3125 8.734375 54.109375 11.28125 
L 54.109375 2.78125 
Q 49.265625 0.734375 44.1875 -0.34375 
Q 39.109375 -1.421875 33.890625 -1.421875 
Q 20.796875 -1.421875 13.15625 6.1875 
Q 5.515625 13.8125 5.515625 26.8125 
Q 5.515625 40.234375 12.765625 48.109375 
Q 20.015625 56 32.328125 56 
Q 43.359375 56 49.78125 48.890625 
Q 56.203125 41.796875 56.203125 29.59375 
z
M 47.21875 32.234375 
Q 47.125 39.59375 43.09375 43.984375 
Q 39.0625 48.390625 32.421875 48.390625 
Q 24.90625 48.390625 20.390625 44.140625 
Q 15.875 39.890625 15.1875 32.171875 
z
" id="DejaVuSans-65"/>
     <path id="DejaVuSans-20"/>
     <path d="M 10.984375 1.515625 
L 10.984375 10.5 
Q 14.703125 8.734375 18.5 7.8125 
Q 22.3125 6.890625 25.984375 6.890625 
Q 35.75 6.890625 40.890625 13.453125 
Q 46.046875 20.015625 46.78125 33.40625 
Q 43.953125 29.203125 39.59375 26.953125 
Q 35.25 24.703125 29.984375 24.703125 
Q 19.046875 24.703125 12.671875 31.3125 
Q 6.296875 37.9375 6.296875 49.421875 
Q 6.296875 60.640625 12.9375 67.421875 
Q 19.578125 74.21875 30.609375 74.21875 
Q 43.265625 74.21875 49.921875 64.515625 
Q 56.59375 54.828125 56.59375 36.375 
Q 56.59375 19.140625 48.40625 8.859375 
Q 40.234375 -1.421875 26.421875 -1.421875 
Q 22.703125 -1.421875 18.890625 -0.6875 
Q 15.09375 0.046875 10.984375 1.515625 
z
M 30.609375 32.421875 
Q 37.25 32.421875 41.125 36.953125 
Q 45.015625 41.5 45.015625 49.421875 
Q 45.015625 57.28125 41.125 61.84375 
Q 37.25 66.40625 30.609375 66.40625 
Q 23.96875 66.40625 20.09375 61.84375 
Q 16.21875 57.28125 16.21875 49.421875 
Q 16.21875 41.5 20.09375 36.953125 
Q 23.96875 32.421875 30.609375 32.421875 
z
" id="DejaVuSans-39"/>
    </defs>
    <g transform="translate(187.434844 35.472)scale(0.18 -0.18)">
     <use xlink:href="#DejaVuSans-46"/>
     <use x="57.410156" xlink:href="#DejaVuSans-72"/>
     <use x="98.523438" xlink:href="#DejaVuSans-61"/>
     <use x="159.802734" xlink:href="#DejaVuSans-6d"/>
     <use x="257.214844" xlink:href="#DejaVuSans-65"/>
     <use x="318.738281" xlink:href="#DejaVuSans-20"/>
     <use x="350.525391" xlink:href="#DejaVuSans-31"/>
     <use x="414.148438" xlink:href="#DejaVuSans-39"/>
     <use x="477.771484" xlink:href="#DejaVuSans-39"/>
    </g>
   </g>
  </g>
 </g>
 <defs>
  <clipPath id="p8a171455dd">
   <rect height="266.112" width="357.12" x="57.6" y="41.472"/>
  </clipPath>
 </defs>
</svg>
