<?xml version="1.0" encoding="utf-8" standalone="no"?>
<!DOCTYPE svg PUBLIC "-//W3C//DTD SVG 1.1//EN"
  "http://www.w3.org/Graphics/SVG/1.1/DTD/svg11.dtd">
<!-- Created with matplotlib (http://matplotlib.org/) -->
<svg height="345pt" version="1.1" viewBox="0 0 460 345" width="460pt" xmlns="http://www.w3.org/2000/svg" xmlns:xlink="http://www.w3.org/1999/xlink">
 <defs>
  <style type="text/css">
*{stroke-linecap:butt;stroke-linejoin:round;}
  </style>
 </defs>
 <g id="figure_1">
  <g id="patch_1">
   <path d="M 0 345.6 
L 460.8 345.6 
L 460.8 0 
L 0 0 
z
" style="fill:#ffffff;"/>
  </g>
  <g id="axes_1">
   <g id="patch_2">
    <path d="M 57.6 307.584 
L 414.72 307.584 
L 414.72 41.472 
L 57.6 41.472 
z
" style="fill:#ffffff;"/>
   </g>
   <g id="matplotlib.axis_1">
    <g id="xtick_1">
     <g id="line2d_1">
      <path clip-path="url(#p4a4185c91b)" d="M 57.6 307.584 
L 57.6 41.472 
" style="fill:none;stroke:#b0b0b0;stroke-linecap:square;stroke-width:0.8;"/>
     </g>
     <g id="line2d_2">
      <defs>
       <path d="M 0 0 
L 0 3.5 
" id="m03ab857dce" style="stroke:#000000;stroke-width:0.8;"/>
      </defs>
      <g>
       <use style="stroke:#000000;stroke-width:0.8;" x="57.6" xlink:href="#m03ab857dce" y="307.584"/>
      </g>
     </g>
     <g id="text_1">
      <!-- 0 -->
      <defs>
       <path d="M 31.78125 66.40625 
Q 24.171875 66.40625 20.328125 58.90625 
Q 16.5 51.421875 16.5 36.375 
Q 16.5 21.390625 20.328125 13.890625 
Q 24.171875 6.390625 31.78125 6.390625 
Q 39.453125 6.390625 43.28125 13.890625 
Q 47.125 21.390625 47.125 36.375 
Q 47.125 51.421875 43.28125 58.90625 
Q 39.453125 66.40625 31.78125 66.40625 
z
M 31.78125 74.21875 
Q 44.046875 74.21875 50.515625 64.515625 
Q 56.984375 54.828125 56.984375 36.375 
Q 56.984375 17.96875 50.515625 8.265625 
Q 44.046875 -1.421875 31.78125 -1.421875 
Q 19.53125 -1.421875 13.0625 8.265625 
Q 6.59375 17.96875 6.59375 36.375 
Q 6.59375 54.828125 13.0625 64.515625 
Q 19.53125 74.21875 31.78125 74.21875 
z
" id="DejaVuSans-30"/>
      </defs>
      <g transform="translate(54.41875 322.182437)scale(0.1 -0.1)">
       <use xlink:href="#DejaVuSans-30"/>
      </g>
     </g>
    </g>
    <g id="xtick_2">
     <g id="line2d_3">
      <path clip-path="url(#p4a4185c91b)" d="M 129.024 307.584 
L 129.024 41.472 
" style="fill:none;stroke:#b0b0b0;stroke-linecap:square;stroke-width:0.8;"/>
     </g>
     <g id="line2d_4">
      <g>
       <use style="stroke:#000000;stroke-width:0.8;" x="129.024" xlink:href="#m03ab857dce" y="307.584"/>
      </g>
     </g>
     <g id="text_2">
      <!-- 2 -->
      <defs>
       <path d="M 19.1875 8.296875 
L 53.609375 8.296875 
L 53.609375 0 
L 7.328125 0 
L 7.328125 8.296875 
Q 12.9375 14.109375 22.625 23.890625 
Q 32.328125 33.6875 34.8125 36.53125 
Q 39.546875 41.84375 41.421875 45.53125 
Q 43.3125 49.21875 43.3125 52.78125 
Q 43.3125 58.59375 39.234375 62.25 
Q 35.15625 65.921875 28.609375 65.921875 
Q 23.96875 65.921875 18.8125 64.3125 
Q 13.671875 62.703125 7.8125 59.421875 
L 7.8125 69.390625 
Q 13.765625 71.78125 18.9375 73 
Q 24.125 74.21875 28.421875 74.21875 
Q 39.75 74.21875 46.484375 68.546875 
Q 53.21875 62.890625 53.21875 53.421875 
Q 53.21875 48.921875 51.53125 44.890625 
Q 49.859375 40.875 45.40625 35.40625 
Q 44.1875 33.984375 37.640625 27.21875 
Q 31.109375 20.453125 19.1875 8.296875 
z
" id="DejaVuSans-32"/>
      </defs>
      <g transform="translate(125.84275 322.182437)scale(0.1 -0.1)">
       <use xlink:href="#DejaVuSans-32"/>
      </g>
     </g>
    </g>
    <g id="xtick_3">
     <g id="line2d_5">
      <path clip-path="url(#p4a4185c91b)" d="M 200.448 307.584 
L 200.448 41.472 
" style="fill:none;stroke:#b0b0b0;stroke-linecap:square;stroke-width:0.8;"/>
     </g>
     <g id="line2d_6">
      <g>
       <use style="stroke:#000000;stroke-width:0.8;" x="200.448" xlink:href="#m03ab857dce" y="307.584"/>
      </g>
     </g>
     <g id="text_3">
      <!-- 4 -->
      <defs>
       <path d="M 37.796875 64.3125 
L 12.890625 25.390625 
L 37.796875 25.390625 
z
M 35.203125 72.90625 
L 47.609375 72.90625 
L 47.609375 25.390625 
L 58.015625 25.390625 
L 58.015625 17.1875 
L 47.609375 17.1875 
L 47.609375 0 
L 37.796875 0 
L 37.796875 17.1875 
L 4.890625 17.1875 
L 4.890625 26.703125 
z
" id="DejaVuSans-34"/>
      </defs>
      <g transform="translate(197.26675 322.182437)scale(0.1 -0.1)">
       <use xlink:href="#DejaVuSans-34"/>
      </g>
     </g>
    </g>
    <g id="xtick_4">
     <g id="line2d_7">
      <path clip-path="url(#p4a4185c91b)" d="M 271.872 307.584 
L 271.872 41.472 
" style="fill:none;stroke:#b0b0b0;stroke-linecap:square;stroke-width:0.8;"/>
     </g>
     <g id="line2d_8">
      <g>
       <use style="stroke:#000000;stroke-width:0.8;" x="271.872" xlink:href="#m03ab857dce" y="307.584"/>
      </g>
     </g>
     <g id="text_4">
      <!-- 6 -->
      <defs>
       <path d="M 33.015625 40.375 
Q 26.375 40.375 22.484375 35.828125 
Q 18.609375 31.296875 18.609375 23.390625 
Q 18.609375 15.53125 22.484375 10.953125 
Q 26.375 6.390625 33.015625 6.390625 
Q 39.65625 6.390625 43.53125 10.953125 
Q 47.40625 15.53125 47.40625 23.390625 
Q 47.40625 31.296875 43.53125 35.828125 
Q 39.65625 40.375 33.015625 40.375 
z
M 52.59375 71.296875 
L 52.59375 62.3125 
Q 48.875 64.0625 45.09375 64.984375 
Q 41.3125 65.921875 37.59375 65.921875 
Q 27.828125 65.921875 22.671875 59.328125 
Q 17.53125 52.734375 16.796875 39.40625 
Q 19.671875 43.65625 24.015625 45.921875 
Q 28.375 48.1875 33.59375 48.1875 
Q 44.578125 48.1875 50.953125 41.515625 
Q 57.328125 34.859375 57.328125 23.390625 
Q 57.328125 12.15625 50.6875 5.359375 
Q 44.046875 -1.421875 33.015625 -1.421875 
Q 20.359375 -1.421875 13.671875 8.265625 
Q 6.984375 17.96875 6.984375 36.375 
Q 6.984375 53.65625 15.1875 63.9375 
Q 23.390625 74.21875 37.203125 74.21875 
Q 40.921875 74.21875 44.703125 73.484375 
Q 48.484375 72.75 52.59375 71.296875 
z
" id="DejaVuSans-36"/>
      </defs>
      <g transform="translate(268.69075 322.182437)scale(0.1 -0.1)">
       <use xlink:href="#DejaVuSans-36"/>
      </g>
     </g>
    </g>
    <g id="xtick_5">
     <g id="line2d_9">
      <path clip-path="url(#p4a4185c91b)" d="M 343.296 307.584 
L 343.296 41.472 
" style="fill:none;stroke:#b0b0b0;stroke-linecap:square;stroke-width:0.8;"/>
     </g>
     <g id="line2d_10">
      <g>
       <use style="stroke:#000000;stroke-width:0.8;" x="343.296" xlink:href="#m03ab857dce" y="307.584"/>
      </g>
     </g>
     <g id="text_5">
      <!-- 8 -->
      <defs>
       <path d="M 31.78125 34.625 
Q 24.75 34.625 20.71875 30.859375 
Q 16.703125 27.09375 16.703125 20.515625 
Q 16.703125 13.921875 20.71875 10.15625 
Q 24.75 6.390625 31.78125 6.390625 
Q 38.8125 6.390625 42.859375 10.171875 
Q 46.921875 13.96875 46.921875 20.515625 
Q 46.921875 27.09375 42.890625 30.859375 
Q 38.875 34.625 31.78125 34.625 
z
M 21.921875 38.8125 
Q 15.578125 40.375 12.03125 44.71875 
Q 8.5 49.078125 8.5 55.328125 
Q 8.5 64.0625 14.71875 69.140625 
Q 20.953125 74.21875 31.78125 74.21875 
Q 42.671875 74.21875 48.875 69.140625 
Q 55.078125 64.0625 55.078125 55.328125 
Q 55.078125 49.078125 51.53125 44.71875 
Q 48 40.375 41.703125 38.8125 
Q 48.828125 37.15625 52.796875 32.3125 
Q 56.78125 27.484375 56.78125 20.515625 
Q 56.78125 9.90625 50.3125 4.234375 
Q 43.84375 -1.421875 31.78125 -1.421875 
Q 19.734375 -1.421875 13.25 4.234375 
Q 6.78125 9.90625 6.78125 20.515625 
Q 6.78125 27.484375 10.78125 32.3125 
Q 14.796875 37.15625 21.921875 38.8125 
z
M 18.3125 54.390625 
Q 18.3125 48.734375 21.84375 45.5625 
Q 25.390625 42.390625 31.78125 42.390625 
Q 38.140625 42.390625 41.71875 45.5625 
Q 45.3125 48.734375 45.3125 54.390625 
Q 45.3125 60.0625 41.71875 63.234375 
Q 38.140625 66.40625 31.78125 66.40625 
Q 25.390625 66.40625 21.84375 63.234375 
Q 18.3125 60.0625 18.3125 54.390625 
z
" id="DejaVuSans-38"/>
      </defs>
      <g transform="translate(340.11475 322.182437)scale(0.1 -0.1)">
       <use xlink:href="#DejaVuSans-38"/>
      </g>
     </g>
    </g>
    <g id="xtick_6">
     <g id="line2d_11">
      <path clip-path="url(#p4a4185c91b)" d="M 414.72 307.584 
L 414.72 41.472 
" style="fill:none;stroke:#b0b0b0;stroke-linecap:square;stroke-width:0.8;"/>
     </g>
     <g id="line2d_12">
      <g>
       <use style="stroke:#000000;stroke-width:0.8;" x="414.72" xlink:href="#m03ab857dce" y="307.584"/>
      </g>
     </g>
     <g id="text_6">
      <!-- 10 -->
      <defs>
       <path d="M 12.40625 8.296875 
L 28.515625 8.296875 
L 28.515625 63.921875 
L 10.984375 60.40625 
L 10.984375 69.390625 
L 28.421875 72.90625 
L 38.28125 72.90625 
L 38.28125 8.296875 
L 54.390625 8.296875 
L 54.390625 0 
L 12.40625 0 
z
" id="DejaVuSans-31"/>
      </defs>
      <g transform="translate(408.3575 322.182437)scale(0.1 -0.1)">
       <use xlink:href="#DejaVuSans-31"/>
       <use x="63.623047" xlink:href="#DejaVuSans-30"/>
      </g>
     </g>
    </g>
    <g id="text_7">
     <!-- x -->
     <defs>
      <path d="M 54.890625 54.6875 
L 35.109375 28.078125 
L 55.90625 0 
L 45.3125 0 
L 29.390625 21.484375 
L 13.484375 0 
L 2.875 0 
L 24.125 28.609375 
L 4.6875 54.6875 
L 15.28125 54.6875 
L 29.78125 35.203125 
L 44.28125 54.6875 
z
" id="DejaVuSans-78"/>
     </defs>
     <g transform="translate(230.833125 341.939312)scale(0.18 -0.18)">
      <use xlink:href="#DejaVuSans-78"/>
     </g>
    </g>
   </g>
   <g id="matplotlib.axis_2">
    <g id="ytick_1">
     <g id="line2d_13">
      <path clip-path="url(#p4a4185c91b)" d="M 57.6 307.584 
L 414.72 307.584 
" style="fill:none;stroke:#b0b0b0;stroke-linecap:square;stroke-width:0.8;"/>
     </g>
     <g id="line2d_14">
      <defs>
       <path d="M 0 0 
L -3.5 0 
" id="ma65072bc29" style="stroke:#000000;stroke-width:0.8;"/>
      </defs>
      <g>
       <use style="stroke:#000000;stroke-width:0.8;" x="57.6" xlink:href="#ma65072bc29" y="307.584"/>
      </g>
     </g>
     <g id="text_8">
      <!-- 0 -->
      <g transform="translate(44.2375 311.383219)scale(0.1 -0.1)">
       <use xlink:href="#DejaVuSans-30"/>
      </g>
     </g>
    </g>
    <g id="ytick_2">
     <g id="line2d_15">
      <path clip-path="url(#p4a4185c91b)" d="M 57.6 254.3616 
L 414.72 254.3616 
" style="fill:none;stroke:#b0b0b0;stroke-linecap:square;stroke-width:0.8;"/>
     </g>
     <g id="line2d_16">
      <g>
       <use style="stroke:#000000;stroke-width:0.8;" x="57.6" xlink:href="#ma65072bc29" y="254.3616"/>
      </g>
     </g>
     <g id="text_9">
      <!-- 2 -->
      <g transform="translate(44.2375 258.160819)scale(0.1 -0.1)">
       <use xlink:href="#DejaVuSans-32"/>
      </g>
     </g>
    </g>
    <g id="ytick_3">
     <g id="line2d_17">
      <path clip-path="url(#p4a4185c91b)" d="M 57.6 201.1392 
L 414.72 201.1392 
" style="fill:none;stroke:#b0b0b0;stroke-linecap:square;stroke-width:0.8;"/>
     </g>
     <g id="line2d_18">
      <g>
       <use style="stroke:#000000;stroke-width:0.8;" x="57.6" xlink:href="#ma65072bc29" y="201.1392"/>
      </g>
     </g>
     <g id="text_10">
      <!-- 4 -->
      <g transform="translate(44.2375 204.938419)scale(0.1 -0.1)">
       <use xlink:href="#DejaVuSans-34"/>
      </g>
     </g>
    </g>
    <g id="ytick_4">
     <g id="line2d_19">
      <path clip-path="url(#p4a4185c91b)" d="M 57.6 147.9168 
L 414.72 147.9168 
" style="fill:none;stroke:#b0b0b0;stroke-linecap:square;stroke-width:0.8;"/>
     </g>
     <g id="line2d_20">
      <g>
       <use style="stroke:#000000;stroke-width:0.8;" x="57.6" xlink:href="#ma65072bc29" y="147.9168"/>
      </g>
     </g>
     <g id="text_11">
      <!-- 6 -->
      <g transform="translate(44.2375 151.716019)scale(0.1 -0.1)">
       <use xlink:href="#DejaVuSans-36"/>
      </g>
     </g>
    </g>
    <g id="ytick_5">
     <g id="line2d_21">
      <path clip-path="url(#p4a4185c91b)" d="M 57.6 94.6944 
L 414.72 94.6944 
" style="fill:none;stroke:#b0b0b0;stroke-linecap:square;stroke-width:0.8;"/>
     </g>
     <g id="line2d_22">
      <g>
       <use style="stroke:#000000;stroke-width:0.8;" x="57.6" xlink:href="#ma65072bc29" y="94.6944"/>
      </g>
     </g>
     <g id="text_12">
      <!-- 8 -->
      <g transform="translate(44.2375 98.493619)scale(0.1 -0.1)">
       <use xlink:href="#DejaVuSans-38"/>
      </g>
     </g>
    </g>
    <g id="ytick_6">
     <g id="line2d_23">
      <path clip-path="url(#p4a4185c91b)" d="M 57.6 41.472 
L 414.72 41.472 
" style="fill:none;stroke:#b0b0b0;stroke-linecap:square;stroke-width:0.8;"/>
     </g>
     <g id="line2d_24">
      <g>
       <use style="stroke:#000000;stroke-width:0.8;" x="57.6" xlink:href="#ma65072bc29" y="41.472"/>
      </g>
     </g>
     <g id="text_13">
      <!-- 10 -->
      <g transform="translate(37.875 45.271219)scale(0.1 -0.1)">
       <use xlink:href="#DejaVuSans-31"/>
       <use x="63.623047" xlink:href="#DejaVuSans-30"/>
      </g>
     </g>
    </g>
    <g id="text_14">
     <!-- y -->
     <defs>
      <path d="M 32.171875 -5.078125 
Q 28.375 -14.84375 24.75 -17.8125 
Q 21.140625 -20.796875 15.09375 -20.796875 
L 7.90625 -20.796875 
L 7.90625 -13.28125 
L 13.1875 -13.28125 
Q 16.890625 -13.28125 18.9375 -11.515625 
Q 21 -9.765625 23.484375 -3.21875 
L 25.09375 0.875 
L 2.984375 54.6875 
L 12.5 54.6875 
L 29.59375 11.921875 
L 46.6875 54.6875 
L 56.203125 54.6875 
z
" id="DejaVuSans-79"/>
     </defs>
     <g transform="translate(30.131563 179.854875)rotate(-90)scale(0.18 -0.18)">
      <use xlink:href="#DejaVuSans-79"/>
     </g>
    </g>
   </g>
   <g id="line2d_25">
    <defs>
     <path d="M -9 9 
L 9 -9 
M -9 -9 
L 9 9 
" id="mbf501bf4d9" style="stroke:#008000;stroke-width:2;"/>
    </defs>
    <g clip-path="url(#p4a4185c91b)">
     <use style="fill:#008000;stroke:#008000;stroke-width:2;" x="57.6" xlink:href="#mbf501bf4d9" y="174.528"/>
    </g>
   </g>
   <g id="line2d_26">
    <path clip-path="url(#p4a4185c91b)" d="M 168.052967 41.472 
L 168.052967 160.649862 
L 239.476967 160.649862 
L 239.476967 41.472 
L 168.052967 41.472 
" style="fill:none;stroke:#0000ff;stroke-linecap:square;stroke-width:2;"/>
   </g>
   <g id="line2d_27">
    <path clip-path="url(#p4a4185c91b)" d="M 168.052967 213.872262 
L 168.052967 307.584 
L 239.476967 307.584 
L 239.476967 213.872262 
L 168.052967 213.872262 
" style="fill:none;stroke:#0000ff;stroke-linecap:square;stroke-width:2;"/>
   </g>
   <g id="line2d_28">
    <defs>
     <path d="M -9 9 
L 9 -9 
M -9 -9 
L 9 9 
" id="m7703d93920" style="stroke:#ff0000;stroke-width:2;"/>
    </defs>
    <g clip-path="url(#p4a4185c91b)">
     <use style="fill:#ff0000;stroke:#ff0000;stroke-width:2;" x="272.801044" xlink:href="#m7703d93920" y="98.717166"/>
    </g>
   </g>
   <g id="line2d_29">
    <path clip-path="url(#p4a4185c91b)" d="M 56.598057 175.180261 
L 62.778815 177.919477 
L 66.956993 180.021607 
L 69.831016 181.751879 
L 71.495163 183.01027 
L 72.689813 184.199983 
L 73.484968 185.296586 
L 74.681763 187.099223 
L 75.286897 187.544263 
L 76.164171 187.889991 
L 77.412215 188.124074 
L 79.117278 188.23646 
L 82.670085 188.164206 
L 87.500592 187.804951 
L 95.785695 186.93723 
L 131.010108 182.911248 
L 137.368821 182.473016 
L 141.956986 182.38093 
L 145.873397 182.54571 
L 149.436021 182.68805 
L 151.998676 182.532346 
L 163.172357 181.45038 
L 166.095776 181.420008 
L 169.339334 181.546432 
L 172.921638 181.870501 
L 176.861177 182.424901 
L 181.1728 183.230088 
L 185.862208 184.290532 
L 193.57674 186.32193 
L 207.844632 190.470165 
L 216.76128 192.967984 
L 222.610496 194.422517 
L 228.24424 195.584141 
L 233.559364 196.35631 
L 236.071557 196.570617 
L 238.476423 196.65929 
L 240.768345 196.615854 
L 242.943405 196.435439 
L 244.999274 196.114827 
L 246.935057 195.652485 
L 248.75111 195.048556 
L 250.44884 194.304825 
L 252.030503 193.424653 
L 253.499007 192.412878 
L 254.857729 191.275679 
L 256.11035 190.020414 
L 257.260715 188.655415 
L 258.312724 187.189769 
L 259.270238 185.633062 
L 260.916721 182.285768 
L 262.228631 178.690473 
L 263.232195 174.916476 
L 263.952087 171.020185 
L 264.412707 167.04307 
L 264.639742 163.013019 
L 264.661754 158.948465 
L 264.383449 152.819109 
L 263.850868 146.705171 
L 262.508124 133.043812 
L 262.268134 127.711319 
L 262.311174 124.388897 
L 262.539249 121.262057 
L 262.957935 118.330389 
L 263.560214 115.589082 
L 264.327202 113.032167 
L 265.229869 110.655057 
L 266.7573 107.423056 
L 268.371214 104.594877 
L 270.440916 101.45962 
L 272.226521 99.030326 
L 272.226521 99.030326 
" style="fill:none;stroke:#b2b2b2;stroke-linecap:square;stroke-width:1.5;"/>
   </g>
   <g id="line2d_30">
    <path clip-path="url(#p4a4185c91b)" d="M 57.908876 174.689082 
L 63.695755 177.379131 
L 67.580757 179.421306 
L 70.223154 181.080229 
L 71.726888 182.270419 
L 72.778286 183.38163 
L 73.450691 184.395477 
L 74.262792 185.826491 
L 74.73092 186.291767 
L 75.43322 186.685441 
L 76.47278 187.000402 
L 77.944016 187.230515 
L 81.124686 187.408066 
L 85.60331 187.383718 
L 93.55204 187.067437 
L 108.405361 186.18879 
L 131.875837 184.800772 
L 140.974109 184.49907 
L 149.7724 184.324542 
L 152.334165 183.968391 
L 157.223073 182.944401 
L 161.617848 182.098599 
L 165.625891 181.561098 
L 168.659121 181.331118 
L 171.994427 181.257322 
L 175.644771 181.381421 
L 179.623955 181.736821 
L 183.943516 182.344626 
L 188.607521 183.210097 
L 193.606124 184.319779 
L 201.659247 186.361963 
L 221.736465 191.652906 
L 227.332576 192.877705 
L 232.66613 193.793814 
L 237.65076 194.316972 
L 239.991919 194.409765 
L 242.224764 194.381283 
L 244.345643 194.226796 
L 246.352392 193.943103 
L 248.244178 193.528552 
L 250.021324 192.983032 
L 251.685119 192.307936 
L 253.237618 191.506097 
L 254.681457 190.581692 
L 256.019676 189.540119 
L 257.255566 188.387843 
L 258.392537 187.13221 
L 259.434019 185.781239 
L 260.383382 184.343399 
L 262.018654 181.241803 
L 263.322768 177.895217 
L 264.318123 174.364432 
L 265.026038 170.698595 
L 265.468223 166.933538 
L 265.668468 163.09325 
L 265.654304 159.193881 
L 265.458359 155.249046 
L 264.909507 149.283527 
L 262.943841 131.939307 
L 262.75419 128.408057 
L 262.736981 125.046254 
L 262.911198 121.862017 
L 263.282938 118.85638 
L 263.84525 116.026447 
L 264.578959 113.368704 
L 265.454489 110.881553 
L 266.951166 107.474691 
L 268.543931 104.470562 
L 270.596085 101.117352 
L 272.371948 98.504463 
L 272.371948 98.504463 
" style="fill:none;stroke:#b2b2b2;stroke-linecap:square;stroke-width:1.5;"/>
   </g>
   <g id="line2d_31">
    <path clip-path="url(#p4a4185c91b)" d="M 57.976974 173.864827 
L 63.093247 176.197038 
L 67.094206 178.261519 
L 69.258707 179.569945 
L 71.042608 180.876938 
L 72.348318 182.148835 
L 73.174015 183.362128 
L 73.62854 184.497817 
L 74.190857 186.154945 
L 74.622321 186.708334 
L 75.329873 187.183177 
L 76.415315 187.569351 
L 77.967767 187.858652 
L 80.056193 188.045842 
L 84.277042 188.133071 
L 89.791737 188.001213 
L 98.813027 187.547275 
L 116.478342 186.370551 
L 139.627148 184.852814 
L 148.690502 184.256394 
L 152.520293 183.737575 
L 158.49579 182.568819 
L 162.813925 181.839669 
L 166.646248 181.445039 
L 169.521498 181.332234 
L 172.676069 181.39029 
L 176.130622 181.658662 
L 179.905446 182.168743 
L 184.017172 182.939779 
L 188.473651 183.975105 
L 195.783692 185.983385 
L 206.486685 189.259226 
L 217.70422 192.628269 
L 223.240357 194.09082 
L 228.58096 195.261978 
L 233.631127 196.044461 
L 236.023532 196.26402 
L 238.31795 196.357917 
L 240.509262 196.31962 
L 242.593909 196.144204 
L 244.569794 195.828405 
L 246.436124 195.370647 
L 248.193246 194.771033 
L 249.842448 194.03131 
L 251.385775 193.154804 
L 252.825843 192.146315 
L 254.165665 191.011989 
L 255.408503 189.759145 
L 256.557742 188.396079 
L 257.61679 186.931835 
L 258.589003 185.375961 
L 260.285815 182.028451 
L 261.67266 178.430144 
L 262.772118 174.649997 
L 263.60568 170.744113 
L 264.195019 166.753719 
L 264.56339 162.70656 
L 264.736963 158.621057 
L 264.699245 152.45344 
L 264.412939 146.294172 
L 263.523885 130.671766 
L 263.536093 125.422299 
L 263.72954 122.163028 
L 264.085654 119.101037 
L 264.604261 116.233441 
L 265.274157 113.554565 
L 266.074147 111.058975 
L 267.4526 107.652988 
L 268.939497 104.652978 
L 270.888699 101.294589 
L 272.985868 98.109107 
L 272.985868 98.109107 
" style="fill:none;stroke:#b2b2b2;stroke-linecap:square;stroke-width:1.5;"/>
   </g>
   <g id="line2d_32">
    <path clip-path="url(#p4a4185c91b)" d="M 57.436907 175.101705 
L 63.530211 178.004454 
L 67.628016 180.213202 
L 70.420918 182.012764 
L 72.012671 183.308134 
L 73.123371 184.521749 
L 73.821503 185.633152 
L 74.78051 187.474426 
L 75.292692 187.949099 
L 76.069977 188.3401 
L 77.210931 188.639232 
L 78.801838 188.839897 
L 82.170851 188.948414 
L 86.805331 188.828602 
L 94.822904 188.355112 
L 109.320243 187.213115 
L 138.945398 184.824589 
L 147.551926 184.156371 
L 151.4599 183.59241 
L 166.002924 181.087079 
L 170.804993 180.724256 
L 174.339324 180.667354 
L 178.147647 180.803573 
L 182.238727 181.16332 
L 186.620666 181.765438 
L 191.29605 182.613785 
L 196.255707 183.69442 
L 204.162888 185.671873 
L 223.601166 190.746009 
L 228.974514 191.904107 
L 234.082439 192.756563 
L 238.845307 193.221394 
L 241.078761 193.287569 
L 243.206761 193.234374 
L 245.226112 193.057184 
L 247.135034 192.752858 
L 248.933018 192.319762 
L 250.620663 191.757765 
L 252.199496 191.068205 
L 253.671791 190.253823 
L 255.040387 189.318678 
L 256.308524 188.268022 
L 257.479699 187.10815 
L 258.557538 185.846222 
L 259.545698 184.490059 
L 261.26732 181.528266 
L 262.672084 178.289939 
L 263.785345 174.83847 
L 264.630574 171.227799 
L 265.230303 167.499302 
L 265.607429 163.681817 
L 265.786612 159.794581 
L 265.795567 155.852108 
L 265.560409 149.869408 
L 264.826171 139.921309 
L 264.31325 132.297731 
L 264.181134 126.959387 
L 264.269093 123.625049 
L 264.517853 120.482246 
L 264.932415 117.532083 
L 265.506673 114.770888 
L 266.224018 112.193533 
L 267.510378 108.66423 
L 268.948243 105.537461 
L 270.894343 102.005051 
L 273.05454 98.609421 
L 273.42822 98.05965 
L 273.42822 98.05965 
" style="fill:none;stroke:#b2b2b2;stroke-linecap:square;stroke-width:1.5;"/>
   </g>
   <g id="line2d_33">
    <path clip-path="url(#p4a4185c91b)" d="M 58.955061 174.954392 
L 64.98342 177.929226 
L 69.027688 180.190071 
L 71.150805 181.574269 
L 72.86059 182.916757 
L 74.087308 184.180481 
L 74.861949 185.340127 
L 76.087301 187.758416 
L 76.668349 188.165495 
L 77.558992 188.474304 
L 78.851948 188.676206 
L 80.624094 188.764964 
L 84.29157 188.681108 
L 91.111172 188.18583 
L 102.151683 187.096508 
L 129.473342 184.308904 
L 137.406877 183.734585 
L 143.939527 183.490036 
L 149.31319 183.28714 
L 153.047946 182.863451 
L 162.121533 181.622298 
L 166.196484 181.382865 
L 169.267877 181.384907 
L 172.64769 181.564225 
L 176.357688 181.955857 
L 180.417768 182.585068 
L 184.841482 183.463558 
L 192.156456 185.231956 
L 200.206961 187.4432 
L 217.56892 192.279803 
L 223.344996 193.669729 
L 228.924146 194.777516 
L 234.207355 195.510023 
L 236.713108 195.710742 
L 239.118257 195.7904 
L 241.417352 195.742776 
L 243.606535 195.563199 
L 245.68343 195.248606 
L 247.646974 194.797565 
L 249.497242 194.210271 
L 251.235238 193.488516 
L 252.862698 192.635622 
L 254.381896 191.656347 
L 255.795465 190.556756 
L 257.106246 189.344059 
L 258.317159 188.026419 
L 259.431104 186.612728 
L 260.450897 185.112373 
L 262.218623 181.890135 
L 263.640147 178.435005 
L 264.733549 174.814774 
L 265.516502 171.084515 
L 266.008057 167.284436 
L 266.23056 163.441018 
L 266.211419 159.570829 
L 265.984497 155.685771 
L 265.346207 149.858583 
L 263.914569 140.314744 
L 262.937971 133.067713 
L 262.644404 129.639594 
L 262.529407 126.360537 
L 262.614116 123.235419 
L 262.905866 120.263841 
L 263.398163 117.443213 
L 264.071672 114.771857 
L 264.896227 112.251244 
L 266.331827 108.765701 
L 267.878973 105.661886 
L 269.88865 102.166836 
L 271.636927 99.423669 
L 271.636927 99.423669 
" style="fill:none;stroke:#b2b2b2;stroke-linecap:square;stroke-width:1.5;"/>
   </g>
   <g id="line2d_34">
    <path clip-path="url(#p4a4185c91b)" d="M 56.965488 174.421892 
L 62.122282 176.801924 
L 66.184012 178.920255 
L 68.405143 180.270807 
L 70.264994 181.627868 
L 71.668383 182.95729 
L 72.613927 184.233462 
L 73.207975 185.432899 
L 74.028955 187.177041 
L 74.564715 187.749498 
L 75.372119 188.229301 
L 76.549789 188.603149 
L 78.184032 188.860251 
L 80.341505 188.993704 
L 84.638313 188.959384 
L 90.192466 188.661861 
L 99.2056 187.943037 
L 129.700018 185.307384 
L 136.279243 184.984814 
L 142.203864 184.930161 
L 148.465252 184.916161 
L 150.552009 184.679998 
L 153.644742 184.048885 
L 162.070264 182.047423 
L 166.234334 181.402333 
L 169.351759 181.142163 
L 172.757549 181.079815 
L 176.466481 181.260738 
L 180.493044 181.718348 
L 184.847463 182.469761 
L 189.530044 183.512223 
L 194.52498 184.820533 
L 202.515438 187.168297 
L 216.544283 191.41255 
L 222.118187 192.919467 
L 227.515049 194.150526 
L 232.645902 195.005159 
L 235.089332 195.264513 
L 237.442505 195.400293 
L 239.700602 195.405715 
L 241.860228 195.275634 
L 243.919295 195.006589 
L 245.876862 194.596828 
L 247.732953 194.04629 
L 249.488366 193.35657 
L 251.144477 192.530839 
L 252.703061 191.573745 
L 254.166127 190.491272 
L 255.53578 189.290575 
L 256.814115 187.979774 
L 258.00314 186.567734 
L 259.104722 185.063814 
L 261.052273 181.818715 
L 262.668881 178.319606 
L 263.965501 174.634137 
L 264.953726 170.817373 
L 265.647838 166.909834 
L 266.066736 162.938892 
L 266.235523 158.922881 
L 266.186573 154.876613 
L 265.794422 148.788409 
L 264.938266 140.770116 
L 264.1034 133.111319 
L 263.736805 127.758419 
L 263.688513 124.416042 
L 263.823799 121.264749 
L 264.150678 118.304646 
L 264.66382 115.531509 
L 265.345481 112.940062 
L 266.167423 110.526536 
L 267.583623 107.238381 
L 269.099347 104.355057 
L 271.05973 101.152692 
L 272.760501 98.667569 
L 272.760501 98.667569 
" style="fill:none;stroke:#b2b2b2;stroke-linecap:square;stroke-width:1.5;"/>
   </g>
   <g id="line2d_35">
    <path clip-path="url(#p4a4185c91b)" d="M 58.471837 174.063222 
L 63.88281 176.433579 
L 67.278023 178.117088 
L 69.644844 179.472655 
L 71.646786 180.861486 
L 73.149395 182.247953 
L 73.848278 183.156745 
L 74.319343 184.044101 
L 74.690541 185.315593 
L 75.034391 187.172911 
L 75.363513 187.776837 
L 75.967531 188.273696 
L 76.952735 188.646064 
L 78.411917 188.879684 
L 80.416622 188.965193 
L 84.532378 188.811005 
L 89.965384 188.339249 
L 98.90205 187.324846 
L 123.382637 184.410439 
L 131.353266 183.721473 
L 136.170927 183.490574 
L 140.040982 183.479401 
L 144.012308 183.690993 
L 149.216714 184.059371 
L 151.369302 183.991039 
L 153.760694 183.720329 
L 159.809919 182.690956 
L 163.650558 182.12445 
L 168.116481 181.721223 
L 171.467333 181.626333 
L 175.136909 181.724323 
L 179.142595 182.05175 
L 183.498623 182.632117 
L 188.210686 183.472257 
L 193.269384 184.559467 
L 201.433186 186.573105 
L 221.815258 191.802398 
L 227.492338 193.003265 
L 232.89635 193.889308 
L 237.937468 194.374806 
L 240.300806 194.445593 
L 242.551481 194.392889 
L 244.685708 194.211944 
L 246.70126 193.89959 
L 248.597323 193.454263 
L 250.374313 192.875996 
L 252.033684 192.166385 
L 253.57773 191.328529 
L 255.009388 190.366929 
L 256.332061 189.287366 
L 257.549456 188.096741 
L 258.665445 186.802883 
L 259.683954 185.414337 
L 260.608875 183.940127 
L 262.193013 180.771714 
L 263.446546 177.370065 
L 264.395859 173.800322 
L 265.065664 170.115328 
L 265.480233 166.353612 
L 265.664948 162.540595 
L 265.647889 158.692419 
L 265.315647 152.880801 
L 264.732371 147.066452 
L 263.267185 133.946083 
L 262.965914 128.736677 
L 262.963404 125.450203 
L 263.141718 122.320562 
L 263.506363 119.347771 
L 264.050599 116.529338 
L 264.756187 113.863404 
L 265.595097 111.351028 
L 267.025313 107.881844 
L 268.544458 104.797177 
L 270.499305 101.328294 
L 272.189577 98.608628 
L 272.189577 98.608628 
" style="fill:none;stroke:#b2b2b2;stroke-linecap:square;stroke-width:1.5;"/>
   </g>
   <g id="line2d_36">
    <path clip-path="url(#p4a4185c91b)" d="M 57.005897 174.66362 
L 62.623902 177.152178 
L 66.149777 178.893464 
L 69.352272 180.73795 
L 71.27137 182.119261 
L 72.645603 183.455497 
L 73.250876 184.307255 
L 73.76229 185.508783 
L 74.345553 187.80733 
L 74.807478 188.282931 
L 75.607431 188.654224 
L 76.849194 188.909727 
L 78.61856 189.041012 
L 82.384981 188.997479 
L 87.529272 188.675677 
L 96.279403 187.886765 
L 130.268754 184.564261 
L 137.128429 184.150221 
L 143.30382 184.026721 
L 150.330256 184.010434 
L 153.05639 183.685134 
L 157.053727 182.877477 
L 161.092392 182.068092 
L 164.755343 181.549034 
L 167.541749 181.332082 
L 170.630093 181.275185 
L 174.043816 181.42263 
L 177.805621 181.809916 
L 181.93395 182.459533 
L 186.437669 183.377223 
L 193.875939 185.219776 
L 204.849727 188.30068 
L 216.432104 191.511911 
L 222.177166 192.912231 
L 227.739667 194.033835 
L 233.021619 194.780521 
L 235.532783 194.98763 
L 237.947469 195.072831 
L 240.260267 195.02966 
L 242.467332 194.85324 
L 244.56626 194.540333 
L 246.555928 194.089367 
L 248.436303 193.500426 
L 250.208246 192.775218 
L 251.873304 191.917009 
L 253.433521 190.930522 
L 254.891261 189.821805 
L 256.249058 188.598069 
L 257.509499 187.267492 
L 258.675124 185.838991 
L 259.748371 184.321984 
L 260.731541 182.72613 
L 262.436147 179.336191 
L 263.804847 175.741875 
L 264.852774 172.005445 
L 265.59607 168.17501 
L 266.053835 164.284125 
L 266.249977 160.354522 
L 266.214711 156.400964 
L 265.985504 152.43678 
L 265.378006 146.508424 
L 263.366271 129.704946 
L 263.213343 126.349374 
L 263.247952 123.16829 
L 263.484732 120.164179 
L 263.924332 117.334491 
L 264.553867 114.674844 
L 265.348383 112.181897 
L 266.273356 109.855114 
L 267.815649 106.68282 
L 269.416681 103.906624 
L 271.43045 100.840322 
L 272.743261 99.007764 
L 272.743261 99.007764 
" style="fill:none;stroke:#b2b2b2;stroke-linecap:square;stroke-width:1.5;"/>
   </g>
   <g id="line2d_37">
    <path clip-path="url(#p4a4185c91b)" d="M 57.330264 174.568863 
L 62.385762 176.932635 
L 65.55712 178.599731 
L 67.767845 179.932519 
L 69.638851 181.287083 
L 71.046997 182.6267 
L 71.706987 183.497656 
L 72.319816 184.753981 
L 72.696507 186.296143 
L 72.999983 187.308677 
L 73.403075 187.890687 
L 74.094496 188.381659 
L 75.178785 188.768275 
L 76.747176 189.039701 
L 78.869798 189.188938 
L 83.175606 189.180588 
L 88.80905 188.910651 
L 98.013477 188.227288 
L 132.663707 185.380131 
L 139.486894 185.107567 
L 148.163243 184.872116 
L 151.00707 184.428221 
L 162.829753 182.121257 
L 165.824769 181.801564 
L 169.103518 181.630096 
L 172.67379 181.656687 
L 176.545468 181.924236 
L 180.728962 182.464082 
L 185.231266 183.291764 
L 190.050174 184.40341 
L 195.167844 185.773044 
L 203.312879 188.196836 
L 217.50366 192.521054 
L 223.101945 194.041956 
L 228.496364 195.27583 
L 233.59578 196.121644 
L 236.01211 196.372143 
L 238.330436 196.496103 
L 240.545908 196.486775 
L 242.655186 196.33908 
L 244.656331 196.049662 
L 246.54865 195.616913 
L 248.332531 195.040962 
L 250.009246 194.323638 
L 251.580764 193.468396 
L 253.049569 192.480214 
L 254.418491 191.365453 
L 255.69056 190.131684 
L 256.868889 188.787485 
L 257.956574 187.342206 
L 258.956636 185.805715 
L 260.705338 182.499568 
L 262.136545 178.948307 
L 263.270029 175.223389 
L 264.124871 171.383011 
L 264.720961 167.469838 
L 265.080573 163.512158 
L 265.229805 159.527814 
L 265.19968 155.529642 
L 264.899532 149.536437 
L 263.522464 130.526618 
L 263.508602 127.093231 
L 263.656852 123.819537 
L 263.979342 120.707408 
L 264.476169 117.754676 
L 265.13565 114.958421 
L 265.935487 112.317816 
L 267.32944 108.656095 
L 268.845045 105.376011 
L 270.842183 101.647028 
L 272.998651 98.060354 
L 272.998651 98.060354 
" style="fill:none;stroke:#b2b2b2;stroke-linecap:square;stroke-width:1.5;"/>
   </g>
   <g id="line2d_38">
    <path clip-path="url(#p4a4185c91b)" d="M 58.401756 174.292451 
L 64.050647 176.624921 
L 67.58496 178.259822 
L 70.778262 179.995779 
L 72.673054 181.300153 
L 73.626146 182.150773 
L 74.317854 182.977062 
L 74.763503 183.772751 
L 75.065397 184.89561 
L 75.33411 186.788524 
L 75.710058 187.276828 
L 76.419976 187.674552 
L 77.568557 187.971547 
L 79.242243 188.160339 
L 82.861288 188.233679 
L 87.854212 188.063039 
L 96.397848 187.514745 
L 113.964921 186.092098 
L 131.542323 184.719855 
L 140.26162 184.246929 
L 149.761022 183.831673 
L 153.212544 183.349471 
L 158.642554 182.53781 
L 162.161185 182.214197 
L 166.342153 182.109224 
L 169.542763 182.229332 
L 173.106386 182.545812 
L 177.059155 183.088515 
L 181.421415 183.875796 
L 186.201736 184.910906 
L 194.127194 186.890082 
L 221.23033 194.088205 
L 227.205407 195.373147 
L 232.886791 196.326253 
L 238.17286 196.861459 
L 240.643625 196.950494 
L 242.990567 196.911587 
L 245.20932 196.739963 
L 247.297291 196.432428 
L 249.25351 195.987398 
L 251.078435 195.404889 
L 252.773751 194.686484 
L 254.342154 193.835265 
L 255.787143 192.855723 
L 257.11282 191.75362 
L 258.32371 190.535837 
L 259.4246 189.210178 
L 260.420408 187.785157 
L 261.31607 186.269755 
L 262.116455 184.673181 
L 263.450197 181.272978 
L 264.457458 177.653606 
L 265.171128 173.874013 
L 265.621689 169.979632 
L 265.838391 166.002305 
L 265.850793 161.963287 
L 265.690362 157.878324 
L 265.202707 151.700778 
L 264.073305 141.481702 
L 263.289771 133.693589 
L 262.992714 128.264535 
L 262.991459 124.885613 
L 263.168189 121.710682 
L 263.527602 118.74024 
L 264.062637 115.969655 
L 264.755168 113.392517 
L 265.577632 111.003336 
L 266.978465 107.765786 
L 268.465268 104.942937 
L 270.377446 101.824008 
L 272.030186 99.414174 
L 272.030186 99.414174 
" style="fill:none;stroke:#b2b2b2;stroke-linecap:square;stroke-width:1.5;"/>
   </g>
   <g id="line2d_39">
    <path clip-path="url(#p4a4185c91b)" d="M 57.803222 174.631655 
L 63.159541 177.06915 
L 67.358193 179.208389 
L 70.316562 180.996337 
L 72.04544 182.307241 
L 73.265709 183.553289 
L 74.009519 184.710636 
L 74.527992 186.080192 
L 74.904987 186.944414 
L 75.337191 187.425183 
L 76.038949 187.817438 
L 77.112533 188.111369 
L 78.647379 188.299091 
L 81.958444 188.37208 
L 86.569648 188.197701 
L 94.608349 187.629442 
L 114.226625 185.89527 
L 127.81134 184.7789 
L 136.412294 184.284497 
L 142.478504 184.152841 
L 149.672101 184.037695 
L 152.609045 183.693142 
L 157.985659 182.726987 
L 162.612453 181.996998 
L 166.752729 181.610116 
L 169.863445 181.514582 
L 173.274852 181.601669 
L 177.005351 181.909919 
L 181.07206 182.467284 
L 185.486498 183.287177 
L 190.248651 184.365047 
L 197.998339 186.404649 
L 220.66608 192.731065 
L 226.24249 193.99771 
L 231.56419 194.930985 
L 236.544761 195.442428 
L 238.886806 195.517526 
L 241.122478 195.463097 
L 243.248125 195.274267 
L 245.261581 194.9478 
L 247.162009 194.482127 
L 248.94973 193.87734 
L 250.626026 193.135155 
L 252.192945 192.258849 
L 253.653113 191.25316 
L 255.009558 190.124159 
L 256.265559 188.879079 
L 257.424515 187.526125 
L 258.489843 186.074247 
L 259.464903 184.532891 
L 261.157099 181.220496 
L 262.5255 177.664807 
L 263.592542 173.934161 
L 264.379603 170.084157 
L 264.908393 166.155613 
L 265.202512 162.17588 
L 265.288958 158.1629 
L 265.199327 154.130705 
L 264.816857 148.081657 
L 263.236167 129.009645 
L 263.196341 125.620357 
L 263.32375 122.417449 
L 263.63036 119.403745 
L 264.115963 116.576404 
L 264.768442 113.930147 
L 265.564954 111.460205 
L 266.959456 108.081495 
L 268.480294 105.098149 
L 270.48818 101.750726 
L 272.659064 98.568937 
L 272.659064 98.568937 
" style="fill:none;stroke:#ff0000;stroke-linecap:square;stroke-width:1.5;"/>
   </g>
   <g id="line2d_40">
    <defs>
     <path d="M 0 -9 
L -2.020626 -2.781153 
L -8.559509 -2.781153 
L -3.269441 1.062306 
L -5.290067 7.281153 
L -0 3.437694 
L 5.290067 7.281153 
L 3.269441 1.062306 
L 8.559509 -2.781153 
L 2.020626 -2.781153 
z
" id="m3bf2db09ea" style="stroke:#000000;stroke-linejoin:bevel;stroke-width:2;"/>
    </defs>
    <g clip-path="url(#p4a4185c91b)">
     <use style="stroke:#000000;stroke-linejoin:bevel;stroke-width:2;" x="131.579756" xlink:href="#m3bf2db09ea" y="184.52973"/>
    </g>
   </g>
   <g id="line2d_41">
    <defs>
     <path d="M 0 9 
C 2.386828 9 4.676219 8.051703 6.363961 6.363961 
C 8.051703 4.676219 9 2.386828 9 0 
C 9 -2.386828 8.051703 -4.676219 6.363961 -6.363961 
C 4.676219 -8.051703 2.386828 -9 0 -9 
C -2.386828 -9 -4.676219 -8.051703 -6.363961 -6.363961 
C -8.051703 -4.676219 -9 -2.386828 -9 0 
C -9 2.386828 -8.051703 4.676219 -6.363961 6.363961 
C -4.676219 8.051703 -2.386828 9 0 9 
z
" id="m4cbcc56b51" style="stroke:#bf00bf;stroke-width:2;"/>
    </defs>
    <g clip-path="url(#p4a4185c91b)">
     <use style="fill:#bf00bf;stroke:#bf00bf;stroke-width:2;" x="139.264456" xlink:href="#m4cbcc56b51" y="178.381842"/>
    </g>
   </g>
   <g id="patch_3">
    <path d="M 57.6 307.584 
L 57.6 41.472 
" style="fill:none;stroke:#000000;stroke-linecap:square;stroke-linejoin:miter;stroke-width:0.8;"/>
   </g>
   <g id="patch_4">
    <path d="M 414.72 307.584 
L 414.72 41.472 
" style="fill:none;stroke:#000000;stroke-linecap:square;stroke-linejoin:miter;stroke-width:0.8;"/>
   </g>
   <g id="patch_5">
    <path d="M 57.6 307.584 
L 414.72 307.584 
" style="fill:none;stroke:#000000;stroke-linecap:square;stroke-linejoin:miter;stroke-width:0.8;"/>
   </g>
   <g id="patch_6">
    <path d="M 57.6 41.472 
L 414.72 41.472 
" style="fill:none;stroke:#000000;stroke-linecap:square;stroke-linejoin:miter;stroke-width:0.8;"/>
   </g>
   <g id="text_15">
    <!-- Frame 66 -->
    <defs>
     <path d="M 9.8125 72.90625 
L 51.703125 72.90625 
L 51.703125 64.59375 
L 19.671875 64.59375 
L 19.671875 43.109375 
L 48.578125 43.109375 
L 48.578125 34.8125 
L 19.671875 34.8125 
L 19.671875 0 
L 9.8125 0 
z
" id="DejaVuSans-46"/>
     <path d="M 41.109375 46.296875 
Q 39.59375 47.171875 37.8125 47.578125 
Q 36.03125 48 33.890625 48 
Q 26.265625 48 22.1875 43.046875 
Q 18.109375 38.09375 18.109375 28.8125 
L 18.109375 0 
L 9.078125 0 
L 9.078125 54.6875 
L 18.109375 54.6875 
L 18.109375 46.1875 
Q 20.953125 51.171875 25.484375 53.578125 
Q 30.03125 56 36.53125 56 
Q 37.453125 56 38.578125 55.875 
Q 39.703125 55.765625 41.0625 55.515625 
z
" id="DejaVuSans-72"/>
     <path d="M 34.28125 27.484375 
Q 23.390625 27.484375 19.1875 25 
Q 14.984375 22.515625 14.984375 16.5 
Q 14.984375 11.71875 18.140625 8.90625 
Q 21.296875 6.109375 26.703125 6.109375 
Q 34.1875 6.109375 38.703125 11.40625 
Q 43.21875 16.703125 43.21875 25.484375 
L 43.21875 27.484375 
z
M 52.203125 31.203125 
L 52.203125 0 
L 43.21875 0 
L 43.21875 8.296875 
Q 40.140625 3.328125 35.546875 0.953125 
Q 30.953125 -1.421875 24.3125 -1.421875 
Q 15.921875 -1.421875 10.953125 3.296875 
Q 6 8.015625 6 15.921875 
Q 6 25.140625 12.171875 29.828125 
Q 18.359375 34.515625 30.609375 34.515625 
L 43.21875 34.515625 
L 43.21875 35.40625 
Q 43.21875 41.609375 39.140625 45 
Q 35.0625 48.390625 27.6875 48.390625 
Q 23 48.390625 18.546875 47.265625 
Q 14.109375 46.140625 10.015625 43.890625 
L 10.015625 52.203125 
Q 14.9375 54.109375 19.578125 55.046875 
Q 24.21875 56 28.609375 56 
Q 40.484375 56 46.34375 49.84375 
Q 52.203125 43.703125 52.203125 31.203125 
z
" id="DejaVuSans-61"/>
     <path d="M 52 44.1875 
Q 55.375 50.25 60.0625 53.125 
Q 64.75 56 71.09375 56 
Q 79.640625 56 84.28125 50.015625 
Q 88.921875 44.046875 88.921875 33.015625 
L 88.921875 0 
L 79.890625 0 
L 79.890625 32.71875 
Q 79.890625 40.578125 77.09375 44.375 
Q 74.3125 48.1875 68.609375 48.1875 
Q 61.625 48.1875 57.5625 43.546875 
Q 53.515625 38.921875 53.515625 30.90625 
L 53.515625 0 
L 44.484375 0 
L 44.484375 32.71875 
Q 44.484375 40.625 41.703125 44.40625 
Q 38.921875 48.1875 33.109375 48.1875 
Q 26.21875 48.1875 22.15625 43.53125 
Q 18.109375 38.875 18.109375 30.90625 
L 18.109375 0 
L 9.078125 0 
L 9.078125 54.6875 
L 18.109375 54.6875 
L 18.109375 46.1875 
Q 21.1875 51.21875 25.484375 53.609375 
Q 29.78125 56 35.6875 56 
Q 41.65625 56 45.828125 52.96875 
Q 50 49.953125 52 44.1875 
z
" id="DejaVuSans-6d"/>
     <path d="M 56.203125 29.59375 
L 56.203125 25.203125 
L 14.890625 25.203125 
Q 15.484375 15.921875 20.484375 11.0625 
Q 25.484375 6.203125 34.421875 6.203125 
Q 39.59375 6.203125 44.453125 7.46875 
Q 49.3125 8.734375 54.109375 11.28125 
L 54.109375 2.78125 
Q 49.265625 0.734375 44.1875 -0.34375 
Q 39.109375 -1.421875 33.890625 -1.421875 
Q 20.796875 -1.421875 13.15625 6.1875 
Q 5.515625 13.8125 5.515625 26.8125 
Q 5.515625 40.234375 12.765625 48.109375 
Q 20.015625 56 32.328125 56 
Q 43.359375 56 49.78125 48.890625 
Q 56.203125 41.796875 56.203125 29.59375 
z
M 47.21875 32.234375 
Q 47.125 39.59375 43.09375 43.984375 
Q 39.0625 48.390625 32.421875 48.390625 
Q 24.90625 48.390625 20.390625 44.140625 
Q 15.875 39.890625 15.1875 32.171875 
z
" id="DejaVuSans-65"/>
     <path id="DejaVuSans-20"/>
    </defs>
    <g transform="translate(193.161094 35.472)scale(0.18 -0.18)">
     <use xlink:href="#DejaVuSans-46"/>
     <use x="57.410156" xlink:href="#DejaVuSans-72"/>
     <use x="98.523438" xlink:href="#DejaVuSans-61"/>
     <use x="159.802734" xlink:href="#DejaVuSans-6d"/>
     <use x="257.214844" xlink:href="#DejaVuSans-65"/>
     <use x="318.738281" xlink:href="#DejaVuSans-20"/>
     <use x="350.525391" xlink:href="#DejaVuSans-36"/>
     <use x="414.148438" xlink:href="#DejaVuSans-36"/>
    </g>
   </g>
  </g>
 </g>
 <defs>
  <clipPath id="p4a4185c91b">
   <rect height="266.112" width="357.12" x="57.6" y="41.472"/>
  </clipPath>
 </defs>
</svg>
